{
.formatVersion = 3;
axes = (
{
name = Weight;
tag = wght;
}
);
classes = (
{
code = "a aacute abreve acaron acircumflex adieresis adotbelow agrave ahoi amacron aogonek aring aringacute atilde abreveacute abrevedotbelow abrevegrave abrevehoi abrevetilde acircumflexacute acircumflexdotbelow acircumflexgrave acircumflexhoi acircumflextilde gbreve gcircumflex gcommaaccent gdotaccent germandbls alpha alphatonos acyr vecyr gecyr decyr zhecyr zecyr kacyr elcyr tecyr efcyr hardcyr softcyr yucyr Decyr Zhecyr Kacyr Elcyr Efcyr Yacyr adieresiscyr abrevecyr";
name = aalt;
},
{
code = "a.alt01 aacute.alt01 abreve.alt01 acaron.alt01 acircumflex.alt01 adieresis.alt01 adotbelow.alt01 agrave.alt01 ahoi.alt01 amacron.alt01 aogonek.alt01 aring.alt01 aringacute.alt01 atilde.alt01 abreveacute.alt01 abrevedotbelow.alt01 abrevegrave.alt01 abrevehoi.alt01 abrevetilde.alt01 acircumflexacute.alt01 acircumflexdotbelow.alt01 acircumflexgrave.alt01 acircumflexhoi.alt01 acircumflextilde.alt01 gbreve.alt01 gcircumflex.alt01 gcommaaccent.alt01 gdotaccent.alt01 germandbls.alt01 alpha.alt01 alphatonos.alt01 acyr.alt01 vecyr.loclBGR gecyr.loclBGR decyr.loclBGR zhecyr.loclBGR zecyr.loclBGR kacyr.loclBGR elcyr.loclBGR tecyr.loclBGR efcyr.loclBGR hardcyr.loclBGR softcyr.loclBGR yucyr.loclBGR Decyr.loclBGR Zhecyr.loclBGR Kacyr.loclBGR Elcyr.loclBGR Efcyr.loclBGR Yacyr.loclBGR adieresiscyr.alt01 abrevecyr.alt01";
name = aalt2;
},
{
code = "hookabovecomb breveacute brevegrave brevehook brevetilde dieresisacute dieresiscaron dieresisgrave circumflexacute circumflexbreve circumflexgrave circumflexhook dieresismacron circumflextilde";
name = ccmp;
},
{
code = "g i j caroncomb hookabovecomb commaaccentcomb breveacute brevegrave brevehook brevetilde dieresisacute dieresiscaron dieresisgrave circumflexacute circumflexbreve circumflexgrave circumflexhook dieresismacron circumflextilde";
name = ccmp2;
},
{

glyphs = (
{
glyphname = .notdef;
layers = (
{
layerId = "2ED2F014-92B4-41A8-8CFE-CD21E2CD1218";
shapes = (
{
closed = 1;
nodes = (
(32,0,l),
(440,0,l),
(440,780,l),
(32,780,l)
);
},
{
closed = 1;
nodes = (
(159,127,l),
(159,653,l),
(313,653,l),
(313,127,l)
);
}
);
width = 472;
},
{
layerId = "BE19BB09-F61D-48A8-8F95-1DC5A5769CFD";
shapes = (
{
closed = 1;
nodes = (
(32,0,l),
(440,0,l),
(440,780,l),
(32,780,l)
);
},
{
closed = 1;
nodes = (
(132,100,l),
(132,680,l),
(340,680,l),
(340,100,l)
);
}
);
width = 472;
},
{
layerId = "B488FFC1-C82B-453A-B801-8B96DD071204";
shapes = (
{
closed = 1;
nodes = (
(32,0,l),
(440,0,l),
(440,780,l),
(32,780,l)
);
},
{
closed = 1;
nodes = (
(92,60,l),
(92,720,l),
(380,720,l),
(380,60,l)
);
}
);
width = 472;
},
{
layerId = "76CB80E2-1BCF-4FA8-BCDD-2F5266FDBF6B";
shapes = (
{
closed = 1;
nodes = (
(32,0,l),
(440,0,l),
(440,780,l),
(32,780,l)
);
},
{
closed = 1;
nodes = (
(48,16,l),
(48,764,l),
(424,764,l),
(424,16,l)
);
}
);
width = 472;
}
);
},
{
glyphname = a;
layers = (
{
anchors = (
{
name = b.uni0327;
position = "{247, 0}";
},
{
name = b.uni0328;
position = "{492, 0}";
},
{
name = t.uni0303;
position = "{312, 540}";
}
);
layerId = "2ED2F014-92B4-41A8-8CFE-CD21E2CD1218";
shapes = (
{
closed = 1;
nodes = (
(248,-12,o),
(298,18,o),
(326,97,c),
(363,97,l),
(328,128,l),
(331,106,l),
(334,104,o),
(334,97,o),
(334,87,cs),
(334,30,o),
(384,0,o),
(436,0,cs),
(517,0,l),
(545,141,l),
(507,141,l),
(539,303,ls),
(544,326,o),
(545,348,o),
(545,361,cs),
(545,445,o),
(507,499,o),
(441,525,cs),
(406,538,o),
(365,543,o),
(318,543,cs),
(261,543,o),
(214,534,o),
(178,517,cs),
(141,499,o),
(108,473,o),
(79,439,c),
(184,338,l),
(193,353,o),
(207,367,o),
(225,380,c),
(242,394,o),
(265,402,o),
(295,402,cs),
(328,402,o),
(347,393,o),
(356,377,c),
(359,367,o),
(362,355,o),
(362,343,cs),
(362,334,o),
(362,324,o),
(359,312,c),
(359,309,l),
(278,309,ls),
(202,309,o),
(143,293,o),
(97,263,cs),
(51,232,o),
(27,188,o),
(27,133,cs),
(27,42,o),
(78,-12,o),
(175,-12,cs)
);
},
{
closed = 1;
nodes = (
(236,112,o),
(218,123,o),
(218,144,cs),
(218,146,o),
(218,158,o),
(221,170,cs),
(229,201,o),
(244,212,o),
(272,212,cs),
(338,212,l),
(330,167,l),
(323,138,o),
(306,122,o),
(288,116,c),
(279,114,o),
(270,112,o),
(262,112,cs)
);
}
);
width = 586;
},
{
anchors = (
{
name = b.uni0327;
position = "{247, 0}";
},
{
name = b.uni0328;
position = "{492, 0}";
},
{
name = t.uni0303;
position = "{312, 540}";
}
);
layerId = "BE19BB09-F61D-48A8-8F95-1DC5A5769CFD";
shapes = (
{
closed = 1;
nodes = (
(241,-12,o),
(293,19,o),
(324,92,c),
(360,92,l),
(330,122,l),
(330,101,ls),
(330,93,o),
(330,85,o),
(330,77,cs),
(330,28,o),
(369,0,o),
(418,0,cs),
(492,0,l),
(514,112,l),
(462,112,l),
(503,319,ls),
(507,339,o),
(508,357,o),
(508,370,cs),
(508,441,o),
(476,492,o),
(416,518,cs),
(385,531,o),
(348,537,o),
(304,537,cs),
(252,537,o),
(208,528,o),
(173,510,cs),
(137,492,o),
(107,467,o),
(82,436,c),
(164,357,l),
(177,376,o),
(193,392,o),
(212,405,cs),
(231,418,o),
(255,425,o),
(286,425,cs),
(323,425,o),
(347,414,o),
(359,394,c),
(364,383,o),
(367,370,o),
(367,355,cs),
(367,346,o),
(367,337,o),
(364,325,c),
(360,303,l),
(269,303,ls),
(192,303,o),
(133,287,o),
(90,256,cs),
(47,225,o),
(25,181,o),
(25,125,cs),
(25,41,o),
(77,-12,o),
(170,-12,cs)
);
},
{
closed = 1;
nodes = (
(195,89,o),
(171,105,o),
(171,134,cs),
(171,138,o),
(171,148,o),
(175,165,cs),
(184,204,o),
(211,222,o),
(263,222,cs),
(343,222,l),
(331,160,ls),
(324,128,o),
(302,107,o),
(274,97,cs),
(260,92,o),
(245,89,o),
(230,89,cs)
);
}
);
width = 561;
},
{
anchors = (
{
name = b.uni0327;
position = "{247, 0}";
},
{
name = b.uni0328;
position = "{492, 0}";
},
{
name = t.uni0303;
position = "{312, 540}";
}
);
layerId = "B488FFC1-C82B-453A-B801-8B96DD071204";
shapes = (
{
closed = 1;
nodes = (
(231,-12,o),
(286,21,o),
(321,84,c),
(356,84,l),
(333,113,l),
(328,94,ls),
(324,77,o),
(324,67,o),
(324,62,cs),
(324,25,o),
(346,0,o),
(391,0,cs),
(454,0,l),
(467,68,l),
(394,68,l),
(449,343,ls),
(452,358,o),
(453,370,o),
(453,383,cs),
(453,435,o),
(429,481,o),
(379,508,cs),
(354,521,o),
(322,528,o),
(283,528,cs),
(238,528,o),
(199,519,o),
(165,500,cs),
(131,481,o),
(105,458,o),
(87,431,c),
(134,386,l),
(153,411,o),
(172,429,o),
(193,442,cs),
(214,454,o),
(240,460,o),
(272,460,cs),
(316,460,o),
(347,445,o),
(363,420,cs),
(371,407,o),
(375,392,o),
(375,373,cs),
(375,364,o),
(375,356,o),
(372,345,c),
(362,294,l),
(256,294,ls),
(177,294,o),
(118,278,o),
(80,246,cs),
(41,214,o),
(22,170,o),
(22,113,cs),
(22,40,o),
(75,-12,o),
(162,-12,cs)
);
},
{
closed = 1;
nodes = (
(133,55,o),
(100,78,o),
(100,119,cs),
(100,126,o),
(101,133,o),
(106,158,cs),
(117,209,o),
(162,237,o),
(249,237,cs),
(350,237,l),
(333,150,ls),
(326,113,o),
(296,84,o),
(253,68,cs),
(231,59,o),
(207,55,o),
(182,55,cs)
);
}
);
width = 524;
},
{
anchors = (
{
name = b.uni0327;
position = "{228, 0}";
},
{
name = b.uni0328;
position = "{457, 0}";
},
{
name = t.uni0303;
position = "{347, 540}";
}
);
layerId = "76CB80E2-1BCF-4FA8-BCDD-2F5266FDBF6B";
shapes = (
{
closed = 1;
nodes = (
(295,-12,o),
(350,30,o),
(383,75,c),
(396,75,l),
(388,85,l),
(378,35,ls),
(377,30,o),
(376,26,o),
(376,19,cs),
(376,6,o),
(384,0,o),
(399,0,cs),
(477,0,l),
(481,19,l),
(396,19,l),
(458,328,ls),
(462,348,o),
(463,366,o),
(463,382,cs),
(463,435,o),
(443,477,o),
(398,501,c),
(375,512,o),
(346,518,o),
(309,518,cs),
(256,518,o),
(216,509,o),
(188,490,cs),
(159,471,o),
(135,444,o),
(115,411,c),
(132,402,l),
(153,436,o),
(177,461,o),
(202,476,cs),
(227,491,o),
(262,499,o),
(307,499,cs),
(376,499,o),
(414,476,o),
(430,441,cs),
(438,423,o),
(442,403,o),
(442,381,cs),
(442,366,o),
(441,348,o),
(437,329,cs),
(426,272,l),
(266,272,ls),
(193,272,o),
(139,258,o),
(102,230,cs),
(65,202,o),
(47,160,o),
(47,103,cs),
(47,30,o),
(108,-12,o),
(204,-12,cs)
);
},
{
closed = 1;
nodes = (
(117,7,o),
(68,42,o),
(68,102,cs),
(68,114,o),
(70,126,o),
(75,151,cs),
(87,214,o),
(146,254,o),
(266,254,cs),
(422,254,l),
(401,148,ls),
(389,85,o),
(347,43,o),
(292,23,c),
(265,12,o),
(236,7,o),
(206,7,cs)
);
}
);
width = 544;
}
);
leftKerningGroup = a2;
rightKerningGroup = a;
unicode = 97;
},
{
glyphname = a.alt01;
layers = (
{
layerId = "2ED2F014-92B4-41A8-8CFE-CD21E2CD1218";
shapes = (
{
closed = 1;
nodes = (
(534,0,l),
(562,141,l),
(513,141,l),
(591,531,l),
(409,531,l),
(390,435,l),
(385,435,l),
(384,462,o),
(372,486,o),
(351,508,cs),
(328,532,o),
(297,543,o),
(256,543,cs),
(197,543,o),
(131,508,o),
(83,433,cs),
(59,397,o),
(42,349,o),
(29,290,c),
(22,251,o),
(18,211,o),
(18,160,cs),
(18,99,o),
(31,42,o),
(68,12,cs),
(87,-4,o),
(112,-12,o),
(146,-12,cs),
(234,-12,o),
(279,44,o),
(320,129,c),
(328,129,l),
(326,119,l),
(325,117,o),
(323,100,o),
(323,87,cs),
(323,30,o),
(374,0,o),
(425,0,cs)
);
},
{
closed = 1;
nodes = (
(233,133,o),
(218,138,o),
(209,153,c),
(206,160,o),
(203,170,o),
(203,180,cs),
(203,196,o),
(207,231,o),
(210,241,c),
(223,308,l),
(237,373,o),
(263,398,o),
(307,398,cs),
(332,398,o),
(354,387,o),
(365,368,cs),
(370,359,o),
(371,347,o),
(370,333,c),
(357,270,ls),
(350,237,o),
(335,201,o),
(320,179,cs),
(305,157,o),
(277,133,o),
(249,133,cs)
);
}
);
width = 596;
},
{
layerId = "BE19BB09-F61D-48A8-8F95-1DC5A5769CFD";
shapes = (
{
closed = 1;
nodes = (
(523,0,l),
(545,112,l),
(486,112,l),
(569,525,l),
(429,525,l),
(411,434,l),
(406,434,l),
(403,463,o),
(389,487,o),
(366,507,cs),
(342,527,o),
(312,537,o),
(275,537,cs),
(203,537,o),
(137,495,o),
(92,420,cs),
(69,383,o),
(53,338,o),
(42,286,cs),
(35,250,o),
(31,213,o),
(31,170,cs),
(31,101,o),
(50,43,o),
(91,12,cs),
(112,-4,o),
(138,-12,o),
(171,-12,cs),
(254,-12,o),
(301,37,o),
(342,122,c),
(348,122,l),
(345,107,ls),
(344,102,o),
(342,88,o),
(342,77,cs),
(342,28,o),
(381,0,o),
(430,0,cs)
);
},
{
closed = 1;
nodes = (
(213,103,o),
(193,115,o),
(182,138,cs),
(177,149,o),
(174,163,o),
(174,178,cs),
(174,194,o),
(177,222,o),
(180,235,cs),
(194,305,ls),
(210,384,o),
(248,422,o),
(309,422,cs),
(348,422,o),
(375,406,o),
(387,380,cs),
(393,367,o),
(394,352,o),
(391,335,cs),
(375,255,ls),
(367,216,o),
(350,178,o),
(327,151,cs),
(306,126,o),
(276,103,o),
(240,103,cs)
);
}
);
width = 591;
},
{
layerId = "B488FFC1-C82B-453A-B801-8B96DD071204";
shapes = (
{
closed = 1;
nodes = (
(506,0,l),
(519,68,l),
(446,68,l),
(536,516,l),
(459,516,l),
(442,432,l),
(438,432,l),
(431,465,o),
(414,489,o),
(389,505,c),
(363,520,o),
(334,528,o),
(303,528,cs),
(212,528,o),
(146,476,o),
(105,400,cs),
(84,362,o),
(70,322,o),
(61,280,cs),
(54,248,o),
(51,216,o),
(51,185,cs),
(51,104,o),
(78,44,o),
(126,12,cs),
(149,-4,o),
(177,-12,o),
(208,-12,cs),
(284,-12,o),
(334,27,o),
(375,112,c),
(378,112,l),
(373,89,l),
(372,80,o),
(370,70,o),
(370,62,cs),
(370,25,o),
(392,0,o),
(437,0,cs)
);
},
{
closed = 1;
nodes = (
(183,58,o),
(155,80,o),
(141,116,cs),
(134,133,o),
(130,153,o),
(130,175,cs),
(130,191,o),
(132,209,o),
(135,226,cs),
(150,301,ls),
(170,401,o),
(225,458,o),
(312,458,cs),
(372,458,o),
(407,434,o),
(420,398,cs),
(427,379,o),
(428,359,o),
(423,338,c),
(402,233,ls),
(393,184,o),
(372,144,o),
(337,109,cs),
(308,80,o),
(275,58,o),
(227,58,cs)
);
}
);
width = 583;
},
{
layerId = "76CB80E2-1BCF-4FA8-BCDD-2F5266FDBF6B";
shapes = (
{
closed = 1;
nodes = (
(491,0,l),
(495,19,l),
(410,19,l),
(507,506,l),
(486,506,l),
(468,413,l),
(465,413,l),
(456,444,o),
(439,470,o),
(413,489,cs),
(386,508,o),
(352,518,o),
(309,518,cs),
(224,518,o),
(158,474,o),
(116,402,cs),
(95,366,o),
(79,325,o),
(70,280,cs),
(63,247,o),
(60,212,o),
(60,176,cs),
(60,105,o),
(86,45,o),
(135,13,c),
(159,-4,o),
(188,-12,o),
(223,-12,cs),
(308,-12,o),
(363,38,o),
(404,111,c),
(407,111,l),
(392,35,ls),
(391,30,o),
(390,26,o),
(390,19,cs),
(390,6,o),
(398,0,o),
(413,0,cs)
);
},
{
closed = 1;
nodes = (
(158,7,o),
(116,40,o),
(96,92,cs),
(86,117,o),
(81,145,o),
(81,176,cs),
(81,204,o),
(83,226,o),
(87,247,cs),
(94,282,ls),
(121,414,o),
(194,499,o),
(309,499,cs),
(389,499,o),
(433,462,o),
(449,415,cs),
(457,392,o),
(459,369,o),
(454,346,cs),
(426,204,ls),
(413,135,o),
(372,79,o),
(333,47,cs),
(298,18,o),
(266,7,o),
(223,7,cs)
);
}
);
width = 567;
}
);
leftKerningGroup = ae;
rightKerningGroup = h;
},
{
glyphname = b;
layers = (
{
layerId = "2ED2F014-92B4-41A8-8CFE-CD21E2CD1218";
shapes = (
{
closed = 1;
nodes = (
(-1,0,l),
(181,0,l),
(200,96,l),
(206,96,l),
(206,69,o),
(218,45,o),
(241,22,c),
(262,-1,o),
(293,-12,o),
(334,-12,cs),
(393,-12,o),
(454,19,o),
(503,87,cs),
(527,122,o),
(545,167,o),
(557,222,cs),
(566,266,o),
(573,315,o),
(573,371,cs),
(573,435,o),
(559,489,o),
(522,521,c),
(503,535,o),
(478,543,o),
(444,543,cs),
(360,543,o),
(310,486,o),
(270,402,c),
(262,402,l),
(329,740,l),
(147,740,l)
);
},
{
closed = 1;
nodes = (
(258,133,o),
(235,140,o),
(225,161,c),
(219,170,o),
(218,184,o),
(221,198,cs),
(233,261,ls),
(239,292,o),
(257,329,o),
(270,352,cs),
(284,376,o),
(313,398,o),
(343,398,cs),
(358,398,o),
(371,393,o),
(380,379,cs),
(384,372,o),
(387,362,o),
(387,351,cs),
(387,336,o),
(383,304,o),
(380,290,cs),
(367,223,ls),
(354,158,o),
(331,133,o),
(282,133,cs)
);
}
);
width = 590;
},
{
layerId = "BE19BB09-F61D-48A8-8F95-1DC5A5769CFD";
shapes = (
{
closed = 1;
nodes = (
(14,0,l),
(154,0,l),
(172,91,l),
(177,91,l),
(180,62,o),
(194,38,o),
(218,18,cs),
(241,-2,o),
(271,-12,o),
(308,-12,cs),
(380,-12,o),
(443,28,o),
(489,100,cs),
(512,136,o),
(528,179,o),
(539,229,cs),
(547,268,o),
(552,310,o),
(552,355,cs),
(552,426,o),
(533,482,o),
(492,514,c),
(471,529,o),
(445,537,o),
(412,537,cs),
(331,537,o),
(282,488,o),
(241,403,c),
(235,403,l),
(302,740,l),
(162,740,l)
);
},
{
closed = 1;
nodes = (
(235,103,o),
(207,117,o),
(196,144,cs),
(190,157,o),
(189,173,o),
(192,190,cs),
(208,270,ls),
(216,309,o),
(235,347,o),
(256,374,cs),
(277,401,o),
(307,422,o),
(343,422,cs),
(371,422,o),
(390,410,o),
(401,388,cs),
(406,377,o),
(409,363,o),
(409,347,cs),
(409,331,o),
(406,305,o),
(403,290,cs),
(389,220,ls),
(373,141,o),
(337,103,o),
(274,103,cs)
);
}
);
width = 583;
},
{
layerId = "B488FFC1-C82B-453A-B801-8B96DD071204";
shapes = (
{
closed = 1;
nodes = (
(36,0,l),
(113,0,l),
(130,84,l),
(134,84,l),
(141,51,o),
(158,27,o),
(184,12,cs),
(210,-4,o),
(238,-12,o),
(269,-12,cs),
(361,-12,o),
(427,42,o),
(468,119,cs),
(489,157,o),
(503,197,o),
(512,240,cs),
(519,271,o),
(521,302,o),
(521,331,cs),
(521,412,o),
(494,472,o),
(447,504,cs),
(423,520,o),
(395,528,o),
(364,528,cs),
(288,528,o),
(240,491,o),
(197,404,c),
(194,404,l),
(262,740,l),
(185,740,l)
);
},
{
closed = 1;
nodes = (
(201,58,o),
(165,82,o),
(153,119,c),
(146,137,o),
(145,157,o),
(149,178,cs),
(170,283,ls),
(181,335,o),
(202,374,o),
(235,407,cs),
(266,438,o),
(298,458,o),
(343,458,cs),
(390,458,o),
(418,436,o),
(432,401,cs),
(439,384,o),
(442,364,o),
(442,341,cs),
(442,324,o),
(440,307,o),
(437,290,cs),
(422,215,ls),
(402,115,o),
(346,58,o),
(262,58,cs)
);
}
);
width = 572;
},
{
layerId = "76CB80E2-1BCF-4FA8-BCDD-2F5266FDBF6B";
shapes = (
{
closed = 1;
nodes = (
(53,0,l),
(74,0,l),
(92,93,l),
(95,93,l),
(104,62,o),
(122,37,o),
(148,18,cs),
(174,-2,o),
(208,-12,o),
(251,-12,cs),
(339,-12,o),
(405,35,o),
(447,111,cs),
(468,148,o),
(483,190,o),
(492,237,c),
(499,268,o),
(500,298,o),
(500,330,cs),
(500,402,o),
(474,461,o),
(426,494,cs),
(402,510,o),
(372,518,o),
(337,518,cs),
(252,518,o),
(199,470,o),
(156,395,c),
(153,395,l),
(222,740,l),
(201,740,l)
);
},
{
closed = 1;
nodes = (
(172,7,o),
(127,44,o),
(112,91,cs),
(104,114,o),
(102,137,o),
(106,160,cs),
(134,302,ls),
(149,373,o),
(188,427,o),
(227,459,cs),
(262,488,o),
(296,499,o),
(337,499,cs),
(402,499,o),
(444,466,o),
(464,415,cs),
(474,390,o),
(479,361,o),
(479,330,cs),
(479,302,o),
(477,282,o),
(473,259,cs),
(466,224,ls),
(441,92,o),
(366,7,o),
(251,7,cs)
);
}
);
width = 560;
}
);
leftKerningGroup = b2;
rightKerningGroup = b;
unicode = 98;
},
{
glyphname = c;
layers = (
{
anchors = (
{
name = b.uni0327;
position = "{234, 0}";
},
{
name = t.uni0303;
position = "{313, 540}";
}
);
layerId = "2ED2F014-92B4-41A8-8CFE-CD21E2CD1218";
shapes = (
{
closed = 1;
nodes = (
(345,-12,o),
(429,36,o),
(475,138,c),
(338,201,l),
(327,186,o),
(317,170,o),
(309,154,c),
(300,139,o),
(281,130,o),
(252,130,cs),
(227,130,o),
(213,140,o),
(206,156,cs),
(202,164,o),
(199,173,o),
(199,183,cs),
(199,200,o),
(202,211,o),
(205,223,cs),
(224,315,l),
(229,347,o),
(239,370,o),
(252,382,cs),
(264,394,o),
(282,401,o),
(303,401,cs),
(350,401,o),
(352,373,o),
(361,341,c),
(515,397,l),
(510,442,o),
(490,478,o),
(452,504,cs),
(413,530,o),
(369,543,o),
(315,543,cs),
(225,543,o),
(140,503,o),
(85,432,c),
(58,395,o),
(38,352,o),
(27,303,cs),
(22,280,o),
(19,252,o),
(19,226,cs),
(19,102,o),
(67,37,o),
(133,8,c),
(166,-5,o),
(200,-12,o),
(238,-12,cs)
);
}
);
width = 498;
},
{
anchors = (
{
name = b.uni0327;
position = "{234, 0}";
},
{
name = t.uni0303;
position = "{313, 540}";
}
);
layerId = "BE19BB09-F61D-48A8-8F95-1DC5A5769CFD";
shapes = (
{
closed = 1;
nodes = (
(337,-12,o),
(415,37,o),
(460,134,c),
(353,184,l),
(338,159,o),
(324,139,o),
(311,124,cs),
(297,109,o),
(276,101,o),
(249,101,cs),
(213,101,o),
(190,116,o),
(179,141,cs),
(173,153,o),
(170,167,o),
(170,183,cs),
(170,198,o),
(172,212,o),
(175,225,cs),
(193,314,ls),
(200,351,o),
(213,379,o),
(231,397,cs),
(249,415,o),
(273,424,o),
(302,424,cs),
(353,424,o),
(368,397,o),
(380,356,c),
(498,401,l),
(491,442,o),
(471,475,o),
(437,500,cs),
(402,525,o),
(360,537,o),
(310,537,cs),
(221,537,o),
(143,495,o),
(92,423,cs),
(67,386,o),
(49,344,o),
(39,296,cs),
(34,271,o),
(31,243,o),
(31,215,cs),
(31,107,o),
(72,42,o),
(134,11,cs),
(165,-4,o),
(199,-12,o),
(237,-12,cs)
);
}
);
width = 494;
},
{
anchors = (
{
name = b.uni0327;
position = "{234, 0}";
},
{
name = t.uni0303;
position = "{313, 540}";
}
);
layerId = "B488FFC1-C82B-453A-B801-8B96DD071204";
shapes = (
{
closed = 1;
nodes = (
(325,-12,o),
(394,39,o),
(437,128,c),
(376,158,l),
(355,119,o),
(335,93,o),
(314,79,cs),
(293,64,o),
(269,57,o),
(244,57,cs),
(192,57,o),
(156,80,o),
(139,118,cs),
(130,137,o),
(126,158,o),
(126,183,cs),
(126,195,o),
(127,213,o),
(130,228,cs),
(147,312,ls),
(156,357,o),
(174,393,o),
(200,420,cs),
(226,446,o),
(259,459,o),
(300,459,cs),
(357,459,o),
(392,433,o),
(409,378,c),
(473,407,l),
(463,442,o),
(443,471,o),
(414,494,cs),
(385,517,o),
(347,528,o),
(302,528,cs),
(215,528,o),
(147,483,o),
(103,410,cs),
(81,373,o),
(66,332,o),
(57,286,cs),
(52,258,o),
(49,230,o),
(49,199,cs),
(49,115,o),
(80,50,o),
(136,15,cs),
(164,-3,o),
(197,-12,o),
(236,-12,cs)
);
}
);
width = 488;
},
{
anchors = (
{
name = b.uni0327;
position = "{229, 0}";
},
{
name = t.uni0303;
position = "{313, 540}";
}
);
layerId = "76CB80E2-1BCF-4FA8-BCDD-2F5266FDBF6B";
shapes = (
{
closed = 1;
nodes = (
(310,-12,o),
(373,38,o),
(422,114,c),
(405,123,l),
(382,88,o),
(356,60,o),
(327,39,cs),
(297,18,o),
(262,7,o),
(223,7,cs),
(156,7,o),
(115,41,o),
(96,96,cs),
(86,123,o),
(81,153,o),
(81,186,cs),
(81,211,o),
(83,224,o),
(87,248,cs),
(96,297,ls),
(107,359,o),
(131,408,o),
(168,445,cs),
(205,481,o),
(248,499,o),
(299,499,cs),
(366,499,o),
(417,463,o),
(432,398,c),
(451,403,l),
(444,437,o),
(428,465,o),
(401,486,cs),
(374,507,o),
(340,518,o),
(301,518,cs),
(218,518,o),
(156,477,o),
(116,410,cs),
(95,376,o),
(80,337,o),
(71,292,cs),
(64,259,o),
(61,223,o),
(61,186,cs),
(61,110,o),
(85,49,o),
(133,14,cs),
(157,-3,o),
(187,-12,o),
(223,-12,cs)
);
}
);
width = 479;
}
);
leftKerningGroup = c2;
rightKerningGroup = c;
unicode = 99;
},
{
glyphname = d;
layers = (
{
layerId = "2ED2F014-92B4-41A8-8CFE-CD21E2CD1218";
shapes = (
{
closed = 1;
nodes = (
(534,0,l),
(562,141,l),
(513,141,l),
(633,740,l),
(451,740,l),
(390,435,l),
(385,435,l),
(384,462,o),
(372,486,o),
(351,508,cs),
(328,532,o),
(297,543,o),
(256,543,cs),
(199,543,o),
(136,511,o),
(88,442,cs),
(64,407,o),
(45,362,o),
(33,307,cs),
(24,266,o),
(18,214,o),
(18,160,cs),
(18,99,o),
(31,42,o),
(68,12,cs),
(87,-4,o),
(112,-12,o),
(146,-12,cs),
(234,-12,o),
(279,44,o),
(320,129,c),
(328,129,l),
(326,119,l),
(325,117,o),
(323,100,o),
(323,87,cs),
(323,30,o),
(374,0,o),
(425,0,cs)
);
},
{
closed = 1;
nodes = (
(232,133,o),
(218,138,o),
(209,153,c),
(206,160,o),
(203,170,o),
(203,180,cs),
(203,195,o),
(207,231,o),
(210,241,c),
(223,308,l),
(237,373,o),
(263,398,o),
(308,398,cs),
(333,398,o),
(355,391,o),
(367,371,cs),
(372,362,o),
(373,349,o),
(370,333,cs),
(357,270,ls),
(350,239,o),
(337,202,o),
(320,179,cs),
(305,157,o),
(277,133,o),
(247,133,cs)
);
}
);
width = 596;
},
{
layerId = "BE19BB09-F61D-48A8-8F95-1DC5A5769CFD";
shapes = (
{
closed = 1;
nodes = (
(523,0,l),
(545,112,l),
(486,112,l),
(612,740,l),
(472,740,l),
(411,434,l),
(406,434,l),
(403,463,o),
(389,487,o),
(366,507,cs),
(342,527,o),
(312,537,o),
(275,537,cs),
(204,537,o),
(140,497,o),
(95,425,cs),
(72,389,o),
(55,346,o),
(44,296,cs),
(36,259,o),
(31,215,o),
(31,170,cs),
(31,101,o),
(50,43,o),
(91,12,cs),
(112,-4,o),
(138,-12,o),
(171,-12,cs),
(254,-12,o),
(301,37,o),
(342,122,c),
(348,122,l),
(345,107,ls),
(344,102,o),
(342,88,o),
(342,77,cs),
(342,28,o),
(381,0,o),
(430,0,cs)
);
},
{
closed = 1;
nodes = (
(213,103,o),
(193,115,o),
(182,138,cs),
(177,149,o),
(174,163,o),
(174,178,cs),
(174,194,o),
(177,222,o),
(180,235,cs),
(194,305,ls),
(210,384,o),
(248,422,o),
(309,422,cs),
(348,422,o),
(376,408,o),
(388,382,cs),
(394,369,o),
(395,353,o),
(391,335,cs),
(375,255,ls),
(367,216,o),
(350,178,o),
(327,151,cs),
(306,126,o),
(276,103,o),
(240,103,cs)
);
}
);
width = 591;
},
{
layerId = "B488FFC1-C82B-453A-B801-8B96DD071204";
shapes = (
{
closed = 1;
nodes = (
(506,0,l),
(519,68,l),
(446,68,l),
(581,740,l),
(504,740,l),
(442,432,l),
(438,432,l),
(431,465,o),
(414,489,o),
(389,505,c),
(363,520,o),
(334,528,o),
(303,528,cs),
(212,528,o),
(146,476,o),
(105,400,cs),
(84,362,o),
(70,322,o),
(61,280,cs),
(54,248,o),
(51,216,o),
(51,185,cs),
(51,104,o),
(78,44,o),
(126,12,cs),
(149,-4,o),
(177,-12,o),
(208,-12,cs),
(284,-12,o),
(334,27,o),
(375,112,c),
(378,112,l),
(373,89,l),
(372,80,o),
(370,70,o),
(370,62,cs),
(370,25,o),
(392,0,o),
(437,0,cs)
);
},
{
closed = 1;
nodes = (
(184,58,o),
(155,80,o),
(141,116,cs),
(134,133,o),
(130,153,o),
(130,175,cs),
(130,192,o),
(132,209,o),
(135,226,cs),
(150,301,ls),
(170,401,o),
(226,458,o),
(310,458,cs),
(371,458,o),
(407,434,o),
(420,398,cs),
(427,379,o),
(428,359,o),
(423,338,c),
(402,233,l),
(393,181,o),
(370,142,o),
(337,109,cs),
(308,80,o),
(274,58,o),
(229,58,cs)
);
}
);
width = 583;
},
{
layerId = "76CB80E2-1BCF-4FA8-BCDD-2F5266FDBF6B";
shapes = (
{
closed = 1;
nodes = (
(491,0,l),
(495,19,l),
(410,19,l),
(554,740,l),
(533,740,l),
(468,413,l),
(465,413,l),
(456,444,o),
(439,470,o),
(413,489,cs),
(386,508,o),
(352,518,o),
(309,518,cs),
(222,518,o),
(157,472,o),
(115,399,cs),
(94,362,o),
(78,321,o),
(69,275,c),
(64,243,o),
(60,211,o),
(60,176,cs),
(60,105,o),
(86,45,o),
(135,13,c),
(159,-4,o),
(188,-12,o),
(223,-12,cs),
(308,-12,o),
(363,38,o),
(404,111,c),
(407,111,l),
(392,35,ls),
(391,30,o),
(390,26,o),
(390,19,cs),
(390,6,o),
(398,0,o),
(413,0,cs)
);
},
{
closed = 1;
nodes = (
(158,7,o),
(116,40,o),
(96,92,cs),
(86,117,o),
(81,145,o),
(81,176,cs),
(81,204,o),
(83,226,o),
(87,247,cs),
(94,282,ls),
(121,414,o),
(194,499,o),
(309,499,cs),
(389,499,o),
(433,462,o),
(449,415,cs),
(457,392,o),
(459,369,o),
(454,346,cs),
(426,204,ls),
(413,135,o),
(372,79,o),
(333,47,cs),
(298,18,o),
(266,7,o),
(223,7,cs)
);
}
);
width = 567;
}
);
leftKerningGroup = a2;
rightKerningGroup = d;
unicode = 100;
},
{
glyphname = e;
layers = (
{
anchors = (
{
name = b.uni0327;
position = "{234, 0}";
},
{
name = b.uni0328;
position = "{337, 0}";
},
{
name = t.uni0303;
position = "{323, 540}";
}
);
layerId = "2ED2F014-92B4-41A8-8CFE-CD21E2CD1218";
shapes = (
{
closed = 1;
nodes = (
(361,-12,o),
(425,24,o),
(490,114,c),
(380,197,l),
(355,166,o),
(334,145,o),
(320,140,c),
(306,133,o),
(289,130,o),
(272,130,cs),
(211,130,o),
(199,156,o),
(199,189,cs),
(199,190,o),
(200,188,o),
(201,199,c),
(295,204,o),
(363,219,o),
(413,242,cs),
(437,253,o),
(457,266,o),
(472,282,c),
(503,312,o),
(517,350,o),
(517,392,cs),
(517,455,o),
(486,494,o),
(443,516,cs),
(401,537,o),
(351,543,o),
(314,543,cs),
(210,543,o),
(130,492,o),
(79,416,cs),
(53,378,o),
(34,336,o),
(25,289,cs),
(20,266,o),
(19,244,o),
(19,221,cs),
(19,152,o),
(38,96,o),
(76,52,cs),
(115,9,o),
(175,-12,o),
(259,-12,cs)
);
},
{
closed = 1;
nodes = (
(311,409,o),
(318,407,o),
(329,404,c),
(338,399,o),
(343,388,o),
(343,368,cs),
(343,357,o),
(337,344,o),
(319,333,cs),
(301,322,o),
(270,312,o),
(219,308,c),
(222,327,l),
(226,361,o),
(243,386,o),
(267,400,cs),
(278,406,o),
(292,409,o),
(306,409,cs)
);
}
);
width = 518;
},
{
anchors = (
{
name = b.uni0327;
position = "{234, 0}";
},
{
name = b.uni0328;
position = "{337, 0}";
},
{
name = t.uni0303;
position = "{323, 540}";
}
);
layerId = "BE19BB09-F61D-48A8-8F95-1DC5A5769CFD";
shapes = (
{
closed = 1;
nodes = (
(344,-12,o),
(412,21,o),
(477,106,c),
(391,174,l),
(368,145,o),
(346,125,o),
(327,116,cs),
(308,106,o),
(286,101,o),
(263,101,cs),
(194,101,o),
(170,136,o),
(170,185,cs),
(170,190,o),
(171,196,o),
(172,208,c),
(267,211,o),
(338,224,o),
(391,245,cs),
(417,255,o),
(438,267,o),
(455,282,cs),
(488,311,o),
(504,348,o),
(504,391,cs),
(504,448,o),
(478,485,o),
(440,507,cs),
(402,529,o),
(356,537,o),
(316,537,cs),
(217,537,o),
(140,488,o),
(90,413,cs),
(65,375,o),
(47,333,o),
(38,287,cs),
(33,263,o),
(31,239,o),
(31,214,cs),
(31,145,o),
(49,90,o),
(86,49,cs),
(123,8,o),
(178,-12,o),
(253,-12,cs)
);
},
{
closed = 1;
nodes = (
(321,430,o),
(334,427,o),
(348,421,c),
(361,414,o),
(368,400,o),
(368,377,cs),
(368,356,o),
(360,339,o),
(334,325,cs),
(308,311,o),
(262,301,o),
(187,297,c),
(191,320,ls),
(199,365,o),
(222,399,o),
(255,417,cs),
(271,426,o),
(289,430,o),
(308,430,cs)
);
}
);
width = 515;
},
{
anchors = (
{
name = b.uni0327;
position = "{234, 0}";
},
{
name = b.uni0328;
position = "{337, 0}";
},
{
name = t.uni0303;
position = "{323, 540}";
}
);
layerId = "B488FFC1-C82B-453A-B801-8B96DD071204";
shapes = (
{
closed = 1;
nodes = (
(319,-12,o),
(393,17,o),
(457,94,c),
(407,139,l),
(387,114,o),
(364,95,o),
(338,80,cs),
(311,65,o),
(282,57,o),
(249,57,cs),
(169,57,o),
(126,106,o),
(126,179,cs),
(126,190,o),
(128,208,o),
(129,221,c),
(225,222,o),
(301,231,o),
(358,249,cs),
(387,258,o),
(410,269,o),
(429,282,cs),
(466,309,o),
(485,345,o),
(485,390,cs),
(485,437,o),
(466,471,o),
(435,494,cs),
(404,517,o),
(363,528,o),
(319,528,cs),
(228,528,o),
(155,482,o),
(107,408,cs),
(83,371,o),
(66,329,o),
(57,284,cs),
(52,259,o),
(49,231,o),
(49,204,cs),
(49,134,o),
(66,81,o),
(101,44,cs),
(135,7,o),
(183,-12,o),
(244,-12,cs)
);
},
{
closed = 1;
nodes = (
(336,462,o),
(358,457,o),
(377,447,cs),
(396,437,o),
(406,418,o),
(406,391,cs),
(406,355,o),
(394,331,o),
(356,313,cs),
(318,295,o),
(250,285,o),
(139,281,c),
(145,310,ls),
(158,371,o),
(191,418,o),
(237,443,cs),
(260,456,o),
(284,462,o),
(311,462,cs)
);
}
);
width = 511;
},
{
anchors = (
{
name = b.uni0327;
position = "{234, 0}";
},
{
name = b.uni0328;
position = "{322, 0}";
},
{
name = t.uni0303;
position = "{319, 540}";
}
);
layerId = "76CB80E2-1BCF-4FA8-BCDD-2F5266FDBF6B";
shapes = (
{
closed = 1;
nodes = (
(321,-12,o),
(394,31,o),
(445,124,c),
(426,132,l),
(405,93,o),
(379,63,o),
(347,41,cs),
(315,18,o),
(278,7,o),
(237,7,cs),
(134,7,o),
(82,61,o),
(82,189,cs),
(82,200,o),
(84,224,o),
(85,233,c),
(221,236,o),
(310,251,o),
(366,275,c),
(394,286,o),
(415,299,o),
(430,313,cs),
(458,340,o),
(466,370,o),
(466,395,cs),
(466,434,o),
(451,464,o),
(423,485,cs),
(395,506,o),
(356,518,o),
(308,518,cs),
(227,518,o),
(160,473,o),
(116,401,cs),
(94,364,o),
(78,322,o),
(69,275,cs),
(64,247,o),
(61,218,o),
(61,187,cs),
(61,119,o),
(76,69,o),
(107,37,c),
(137,4,o),
(180,-12,o),
(237,-12,cs)
);
},
{
closed = 1;
nodes = (
(355,499,o),
(390,489,o),
(412,470,cs),
(433,451,o),
(444,426,o),
(444,395,cs),
(444,362,o),
(429,328,o),
(378,301,cs),
(327,273,o),
(238,255,o),
(87,252,c),
(90,269,ls),
(106,358,o),
(146,429,o),
(206,469,cs),
(235,489,o),
(269,499,o),
(306,499,cs)
);
}
);
width = 505;
}
);
leftKerningGroup = c2;
rightKerningGroup = e;
unicode = 101;
},
{
glyphname = f;
layers = (
{
layerId = "2ED2F014-92B4-41A8-8CFE-CD21E2CD1218";
shapes = (
{
closed = 1;
nodes = (
(304,390,l),
(409,390,l),
(437,531,l),
(334,531,l),
(346,599,l),
(436,599,l),
(467,740,l),
(393,740,ls),
(265,740,o),
(181,684,o),
(157,566,cs),
(150,531,l),
(92,531,l),
(64,390,l),
(122,390,l),
(43,0,l),
(229,0,l)
);
}
);
width = 384;
},
{
layerId = "BE19BB09-F61D-48A8-8F95-1DC5A5769CFD";
shapes = (
{
closed = 1;
nodes = (
(273,413,l),
(376,413,l),
(398,525,l),
(296,525,l),
(316,628,l),
(412,628,l),
(436,740,l),
(360,740,ls),
(251,740,o),
(188,689,o),
(168,590,cs),
(155,525,l),
(86,525,l),
(64,413,l),
(133,413,l),
(48,0,l),
(192,0,l)
);
}
);
width = 353;
},
{
layerId = "B488FFC1-C82B-453A-B801-8B96DD071204";
shapes = (
{
closed = 1;
nodes = (
(226,448,l),
(327,448,l),
(340,516,l),
(239,516,l),
(271,672,l),
(376,672,l),
(389,740,l),
(310,740,ls),
(230,740,o),
(199,697,o),
(184,626,cs),
(162,516,l),
(77,516,l),
(64,448,l),
(149,448,l),
(55,0,l),
(137,0,l)
);
}
);
width = 307;
},
{
layerId = "76CB80E2-1BCF-4FA8-BCDD-2F5266FDBF6B";
shapes = (
{
closed = 1;
nodes = (
(190,487,l),
(294,487,l),
(298,506,l),
(194,506,l),
(236,721,l),
(341,721,l),
(345,740,l),
(251,740,ls),
(223,740,o),
(217,734,o),
(212,707,cs),
(173,506,l),
(73,506,l),
(69,487,l),
(169,487,l),
(73,0,l),
(94,0,l)
);
}
);
width = 282;
}
);
leftKerningGroup = f;
unicode = 102;
},
{
glyphname = g;
layers = (
{
anchors = (
{
name = t.uni0303;
position = "{298, 540}";
}
);
layerId = "2ED2F014-92B4-41A8-8CFE-CD21E2CD1218";
shapes = (
{
closed = 1;
nodes = (
(520,85,o),
(453,134,o),
(336,134,cs),
(198,134,ls),
(168,134,o),
(155,147,o),
(155,164,cs),
(155,186,o),
(162,206,o),
(180,227,c),
(152,211,l),
(183,196,o),
(229,191,o),
(272,191,cs),
(406,191,o),
(478,237,o),
(509,297,cs),
(525,327,o),
(532,356,o),
(532,383,cs),
(532,393,o),
(532,406,o),
(528,408,c),
(528,410,l),
(589,410,l),
(613,531,l),
(407,531,l),
(381,538,o),
(351,543,o),
(318,543,cs),
(183,543,o),
(112,497,o),
(80,438,cs),
(64,409,o),
(55,381,o),
(55,352,cs),
(55,291,o),
(86,246,o),
(135,220,c),
(134,213,l),
(109,208,o),
(82,195,o),
(55,178,cs),
(26,160,o),
(12,134,o),
(12,102,cs),
(12,60,o),
(40,22,o),
(82,17,c),
(84,11,l),
(51,6,o),
(23,-4,o),
(-2,-19,cs),
(-27,-33,o),
(-40,-58,o),
(-40,-95,cs),
(-40,-134,o),
(-24,-172,o),
(43,-196,c),
(76,-206,o),
(127,-212,o),
(198,-212,cs),
(327,-212,o),
(409,-186,o),
(457,-146,cs),
(503,-106,o),
(520,-58,o),
(520,-13,cs)
);
},
{
closed = 1;
nodes = (
(246,311,o),
(226,323,o),
(226,353,c),
(226,352,o),
(224,360,o),
(226,370,cs),
(233,408,o),
(259,424,o),
(303,424,cs),
(345,424,o),
(362,412,o),
(362,383,c),
(362,383,o),
(363,375,o),
(361,366,cs),
(354,331,o),
(328,311,o),
(285,311,cs)
);
},
{
closed = 1;
nodes = (
(340,-64,o),
(336,-79,o),
(311,-89,c),
(299,-92,o),
(279,-94,o),
(256,-94,cs),
(180,-94,ls),
(143,-94,o),
(122,-88,o),
(110,-78,c),
(105,-72,o),
(102,-66,o),
(102,-56,cs),
(102,-54,o),
(99,-33,o),
(108,-19,c),
(278,-19,ls),
(328,-19,o),
(340,-30,o),
(340,-51,cs)
);
}
);
width = 560;
},
{
anchors = (
{
name = t.uni0303;
position = "{298, 540}";
}
);
layerId = "BE19BB09-F61D-48A8-8F95-1DC5A5769CFD";
shapes = (
{
closed = 1;
nodes = (
(497,66,o),
(439,112,o),
(323,112,cs),
(194,112,ls),
(157,112,o),
(141,124,o),
(141,145,cs),
(141,171,o),
(167,194,o),
(194,199,c),
(166,198,l),
(193,188,o),
(226,184,o),
(260,184,cs),
(375,184,o),
(446,227,o),
(480,288,cs),
(497,318,o),
(505,349,o),
(505,381,cs),
(505,398,o),
(502,417,o),
(495,425,c),
(495,427,l),
(560,427,l),
(579,525,l),
(394,525,l),
(370,532,o),
(342,537,o),
(311,537,cs),
(196,537,o),
(126,494,o),
(92,434,cs),
(75,404,o),
(66,373,o),
(66,340,cs),
(66,279,o),
(93,234,o),
(142,209,c),
(141,202,l),
(112,196,o),
(85,184,o),
(62,167,cs),
(38,149,o),
(26,125,o),
(26,96,cs),
(26,59,o),
(48,28,o),
(85,20,c),
(85,13,l),
(52,6,o),
(25,-6,o),
(3,-23,cs),
(-19,-39,o),
(-30,-63,o),
(-30,-96,cs),
(-30,-139,o),
(-7,-176,o),
(57,-197,cs),
(89,-207,o),
(134,-212,o),
(193,-212,cs),
(314,-212,o),
(391,-188,o),
(436,-151,cs),
(480,-114,o),
(497,-67,o),
(497,-22,cs)
);
},
{
closed = 1;
nodes = (
(223,280,o),
(199,300,o),
(199,336,cs),
(199,341,o),
(199,349,o),
(203,369,cs),
(212,416,o),
(243,441,o),
(298,441,cs),
(349,441,o),
(371,421,o),
(371,385,cs),
(371,380,o),
(371,372,o),
(367,352,cs),
(358,307,o),
(327,280,o),
(272,280,cs)
);
},
{
closed = 1;
nodes = (
(357,-75,o),
(345,-96,o),
(311,-108,c),
(294,-113,o),
(270,-116,o),
(241,-116,cs),
(176,-116,ls),
(132,-116,o),
(107,-107,o),
(95,-92,cs),
(89,-84,o),
(86,-75,o),
(86,-64,cs),
(86,-47,o),
(93,-24,o),
(113,-9,c),
(286,-9,ls),
(341,-9,o),
(357,-24,o),
(357,-52,cs)
);
}
);
width = 540;
},
{
anchors = (
{
name = t.uni0303;
position = "{298, 540}";
}
);
layerId = "B488FFC1-C82B-453A-B801-8B96DD071204";
shapes = (
{
closed = 1;
nodes = (
(462,37,o),
(418,79,o),
(303,79,cs),
(188,79,ls),
(140,79,o),
(120,89,o),
(120,117,cs),
(120,157,o),
(169,172,o),
(220,179,c),
(182,177,l),
(211,177,o),
(220,173,o),
(242,173,cs),
(329,173,o),
(398,212,o),
(436,274,cs),
(455,305,o),
(464,339,o),
(464,378,cs),
(464,405,o),
(457,434,o),
(445,451,c),
(445,453,l),
(517,453,l),
(528,516,l),
(374,516,l),
(353,523,o),
(328,528,o),
(300,528,cs),
(215,528,o),
(147,490,o),
(110,428,cs),
(91,397,o),
(82,361,o),
(82,322,cs),
(82,261,o),
(103,216,o),
(152,192,c),
(151,185,l),
(116,178,o),
(90,167,o),
(73,150,cs),
(56,133,o),
(47,112,o),
(47,87,cs),
(47,58,o),
(60,37,o),
(89,24,c),
(87,16,l),
(53,6,o),
(28,-9,o),
(11,-29,c),
(-7,-48,o),
(-15,-71,o),
(-15,-98,cs),
(-15,-147,o),
(18,-182,o),
(78,-199,cs),
(108,-208,o),
(144,-212,o),
(186,-212,cs),
(294,-212,o),
(364,-191,o),
(405,-159,cs),
(446,-126,o),
(462,-81,o),
(462,-36,cs)
);
},
{
closed = 1;
nodes = (
(189,234,o),
(159,266,o),
(159,311,cs),
(159,324,o),
(161,332,o),
(168,368,cs),
(180,428,o),
(219,466,o),
(291,466,cs),
(355,466,o),
(385,435,o),
(385,388,cs),
(385,375,o),
(383,367,o),
(376,331,cs),
(364,271,o),
(325,234,o),
(253,234,cs)
);
},
{
closed = 1;
nodes = (
(382,-91,o),
(359,-121,o),
(311,-137,cs),
(287,-145,o),
(256,-149,o),
(218,-149,cs),
(170,-149,ls),
(115,-149,o),
(85,-136,o),
(72,-113,cs),
(65,-102,o),
(62,-89,o),
(62,-76,cs),
(62,-37,o),
(84,-11,o),
(121,6,c),
(298,6,ls),
(361,6,o),
(382,-15,o),
(382,-54,cs)
);
}
);
width = 510;
},
{
anchors = (
{
name = t.uni0303;
position = "{281, 540}";
}
);
layerId = "76CB80E2-1BCF-4FA8-BCDD-2F5266FDBF6B";
shapes = (
{
closed = 1;
nodes = (
(440,12,o),
(395,53,o),
(288,53,cs),
(149,53,ls),
(98,53,o),
(85,74,o),
(85,99,cs),
(85,142,o),
(121,172,o),
(217,192,c),
(177,190,l),
(198,183,o),
(216,180,o),
(238,180,cs),
(311,180,o),
(371,215,o),
(404,277,cs),
(421,308,o),
(429,344,o),
(429,386,cs),
(429,426,o),
(411,465,o),
(380,485,c),
(380,487,l),
(510,487,l),
(513,506,l),
(347,506,l),
(328,514,o),
(306,518,o),
(281,518,cs),
(208,518,o),
(148,483,o),
(115,422,cs),
(98,391,o),
(90,355,o),
(90,312,cs),
(90,263,o),
(116,219,o),
(164,196,c),
(163,192,l),
(137,185,o),
(114,174,o),
(95,159,cs),
(75,144,o),
(65,124,o),
(65,99,cs),
(65,72,o),
(80,47,o),
(104,40,c),
(104,37,l),
(71,26,o),
(45,10,o),
(26,-12,cs),
(6,-34,o),
(-4,-61,o),
(-4,-92,cs),
(-4,-140,o),
(25,-177,o),
(81,-197,cs),
(108,-207,o),
(142,-212,o),
(183,-212,cs),
(264,-212,o),
(329,-200,o),
(373,-174,cs),
(417,-148,o),
(440,-108,o),
(440,-55,cs)
);
},
{
closed = 1;
nodes = (
(157,199,o),
(111,247,o),
(111,312,cs),
(111,320,o),
(113,335,o),
(118,368,c),
(133,445,o),
(192,499,o),
(281,499,cs),
(364,499,o),
(408,451,o),
(408,386,cs),
(408,378,o),
(408,365,o),
(401,330,c),
(388,253,o),
(329,199,o),
(238,199,cs)
);
},
{
closed = 1;
nodes = (
(418,-119,o),
(379,-159,o),
(316,-179,c),
(284,-188,o),
(247,-193,o),
(206,-193,cs),
(174,-193,ls),
(114,-193,o),
(66,-180,o),
(39,-149,cs),
(25,-134,o),
(18,-114,o),
(18,-90,cs),
(18,-23,o),
(67,14,o),
(136,33,c),
(284,33,ls),
(383,33,o),
(418,1,o),
(418,-56,cs)
);
}
);
width = 485;
}
);
leftKerningGroup = g2;
rightKerningGroup = g;
unicode = 103;
},
{
glyphname = g.alt01;
layers = (
{
layerId = "2ED2F014-92B4-41A8-8CFE-CD21E2CD1218";
shapes = (
{
closed = 1;
nodes = (
(237,11,o),
(282,67,o),
(323,152,c),
(331,152,l),
(309,42,ls),
(296,-26,o),
(265,-71,o),
(206,-71,cs),
(162,-71,o),
(123,-44,o),
(100,-12,c),
(-12,-115,l),
(49,-195,o),
(128,-212,o),
(213,-212,cs),
(335,-212,o),
(405,-172,o),
(446,-97,cs),
(466,-60,o),
(482,-16,o),
(491,37,c),
(589,531,l),
(407,531,l),
(389,435,l),
(383,435,l),
(383,462,o),
(371,486,o),
(349,508,cs),
(326,532,o),
(296,543,o),
(255,543,cs),
(195,543,o),
(133,516,o),
(87,450,c),
(62,417,o),
(45,372,o),
(33,315,c),
(26,276,o),
(21,234,o),
(21,183,cs),
(21,122,o),
(35,66,o),
(71,35,cs),
(91,19,o),
(115,11,o),
(150,11,cs)
);
},
{
closed = 1;
nodes = (
(236,156,o),
(222,162,o),
(213,176,cs),
(209,183,o),
(207,193,o),
(207,203,cs),
(207,219,o),
(210,254,o),
(213,264,c),
(222,308,ls),
(235,373,o),
(262,398,o),
(305,398,cs),
(342,398,o),
(360,382,o),
(366,358,c),
(368,346,o),
(368,334,o),
(365,320,cs),
(360,293,l),
(353,261,o),
(339,224,o),
(324,202,cs),
(308,180,o),
(280,156,o),
(252,156,cs)
);
}
);
width = 589;
},
{
layerId = "BE19BB09-F61D-48A8-8F95-1DC5A5769CFD";
shapes = (
{
closed = 1;
nodes = (
(256,2,o),
(303,51,o),
(344,136,c),
(350,136,l),
(328,26,ls),
(312,-55,o),
(272,-100,o),
(203,-100,cs),
(152,-100,o),
(110,-74,o),
(85,-37,c),
(-4,-118,l),
(47,-187,o),
(119,-212,o),
(207,-212,cs),
(315,-212,o),
(382,-175,o),
(423,-106,cs),
(443,-71,o),
(458,-30,o),
(467,19,cs),
(568,525,l),
(428,525,l),
(410,434,l),
(405,434,l),
(402,463,o),
(388,487,o),
(365,507,cs),
(341,527,o),
(311,537,o),
(274,537,cs),
(202,537,o),
(138,500,o),
(94,430,cs),
(71,395,o),
(55,352,o),
(44,301,cs),
(37,265,o),
(33,227,o),
(33,184,cs),
(33,115,o),
(52,57,o),
(93,26,cs),
(114,10,o),
(140,2,o),
(173,2,cs)
);
},
{
closed = 1;
nodes = (
(215,117,o),
(195,129,o),
(184,152,cs),
(179,163,o),
(176,177,o),
(176,192,cs),
(176,208,o),
(179,236,o),
(182,249,cs),
(193,305,ls),
(209,384,o),
(247,422,o),
(308,422,cs),
(351,422,o),
(377,403,o),
(387,376,cs),
(392,363,o),
(393,349,o),
(390,335,cs),
(377,269,ls),
(369,230,o),
(352,192,o),
(329,165,cs),
(308,140,o),
(278,117,o),
(242,117,cs)
);
}
);
width = 582;
},
{
layerId = "B488FFC1-C82B-453A-B801-8B96DD071204";
shapes = (
{
closed = 1;
nodes = (
(284,-12,o),
(334,27,o),
(375,112,c),
(378,112,l),
(356,2,ls),
(336,-98,o),
(282,-144,o),
(198,-144,cs),
(137,-144,o),
(91,-119,o),
(63,-75,c),
(8,-123,l),
(44,-175,o),
(105,-212,o),
(198,-212,cs),
(285,-212,o),
(348,-179,o),
(388,-119,cs),
(408,-88,o),
(422,-51,o),
(431,-8,cs),
(536,516,l),
(459,516,l),
(442,432,l),
(438,432,l),
(431,465,o),
(414,489,o),
(389,505,c),
(363,520,o),
(334,528,o),
(303,528,cs),
(212,528,o),
(146,476,o),
(105,400,cs),
(84,362,o),
(70,322,o),
(61,280,cs),
(54,248,o),
(51,216,o),
(51,185,cs),
(51,104,o),
(78,44,o),
(126,12,cs),
(149,-4,o),
(177,-12,o),
(208,-12,cs)
);
},
{
closed = 1;
nodes = (
(183,58,o),
(155,80,o),
(141,116,cs),
(134,133,o),
(130,153,o),
(130,175,cs),
(130,191,o),
(132,209,o),
(135,226,cs),
(150,301,ls),
(170,401,o),
(225,458,o),
(312,458,cs),
(365,458,o),
(402,434,o),
(419,403,cs),
(428,388,o),
(430,372,o),
(427,357,cs),
(402,233,ls),
(393,184,o),
(372,144,o),
(337,109,cs),
(308,80,o),
(275,58,o),
(227,58,cs)
);
}
);
width = 572;
},
{
layerId = "76CB80E2-1BCF-4FA8-BCDD-2F5266FDBF6B";
shapes = (
{
closed = 1;
nodes = (
(308,-12,o),
(363,38,o),
(404,111,c),
(407,111,l),
(383,-13,ls),
(358,-140,o),
(285,-193,o),
(174,-193,cs),
(105,-193,o),
(62,-168,o),
(34,-131,c),
(18,-145,l),
(50,-186,o),
(99,-212,o),
(174,-212,cs),
(257,-212,o),
(319,-184,o),
(360,-127,cs),
(380,-98,o),
(394,-62,o),
(403,-18,cs),
(508,506,l),
(487,506,l),
(468,413,l),
(465,413,l),
(456,444,o),
(439,470,o),
(413,489,cs),
(386,508,o),
(352,518,o),
(309,518,cs),
(224,518,o),
(158,474,o),
(116,402,cs),
(95,366,o),
(79,325,o),
(70,280,cs),
(63,247,o),
(60,212,o),
(60,176,cs),
(60,105,o),
(86,45,o),
(135,13,c),
(159,-4,o),
(188,-12,o),
(223,-12,cs)
);
},
{
closed = 1;
nodes = (
(158,7,o),
(116,40,o),
(96,92,cs),
(86,117,o),
(81,145,o),
(81,176,cs),
(81,204,o),
(83,226,o),
(87,247,cs),
(94,282,ls),
(121,414,o),
(194,499,o),
(309,499,cs),
(389,499,o),
(433,462,o),
(449,415,cs),
(457,392,o),
(459,369,o),
(454,346,cs),
(426,204,ls),
(413,135,o),
(372,79,o),
(333,47,cs),
(298,18,o),
(266,7,o),
(223,7,cs)
);
}
);
width = 561;
}
);
leftKerningGroup = a2;
rightKerningGroup = q;
},
{
glyphname = h;
layers = (
{
layerId = "2ED2F014-92B4-41A8-8CFE-CD21E2CD1218";
shapes = (
{
closed = 1;
nodes = (
(-1,0,l),
(181,0,l),
(233,258,ls),
(241,297,o),
(253,317,o),
(271,342,cs),
(290,368,o),
(319,395,o),
(349,395,cs),
(377,395,o),
(385,378,o),
(385,366,cs),
(385,341,o),
(380,326,o),
(376,308,c),
(340,121,ls),
(339,118,o),
(336,103,o),
(336,88,cs),
(336,36,o),
(370,0,o),
(434,0,cs),
(537,0,l),
(565,141,l),
(525,141,l),
(563,333,ls),
(568,361,o),
(574,383,o),
(574,412,cs),
(574,497,o),
(528,543,o),
(452,543,cs),
(366,543,o),
(310,484,o),
(268,396,c),
(261,396,l),
(329,740,l),
(147,740,l)
);
}
);
width = 603;
},
{
layerId = "BE19BB09-F61D-48A8-8F95-1DC5A5769CFD";
shapes = (
{
closed = 1;
nodes = (
(14,0,l),
(154,0,l),
(208,270,ls),
(216,310,o),
(234,344,o),
(258,372,cs),
(281,399,o),
(310,420,o),
(343,420,cs),
(382,420,o),
(396,399,o),
(396,368,cs),
(396,348,o),
(393,331,o),
(389,312,cs),
(348,104,ls),
(347,99,o),
(345,88,o),
(345,76,cs),
(345,29,o),
(376,0,o),
(429,0,cs),
(520,0,l),
(542,112,l),
(489,112,l),
(532,327,ls),
(537,354,o),
(541,376,o),
(541,401,cs),
(541,488,o),
(496,537,o),
(415,537,cs),
(334,537,o),
(281,487,o),
(241,403,c),
(235,403,l),
(302,740,l),
(162,740,l)
);
}
);
width = 588;
},
{
layerId = "B488FFC1-C82B-453A-B801-8B96DD071204";
shapes = (
{
closed = 1;
nodes = (
(36,0,l),
(113,0,l),
(171,288,ls),
(179,329,o),
(206,384,o),
(239,417,cs),
(267,445,o),
(297,458,o),
(334,458,cs),
(389,458,o),
(413,430,o),
(413,371,cs),
(413,359,o),
(412,338,o),
(408,318,cs),
(360,79,l),
(359,70,o),
(358,65,o),
(358,58,cs),
(358,18,o),
(385,0,o),
(422,0,cs),
(495,0,l),
(508,68,l),
(435,68,l),
(485,318,ls),
(490,343,o),
(492,366,o),
(492,385,cs),
(492,474,o),
(448,528,o),
(359,528,cs),
(286,528,o),
(237,491,o),
(201,414,c),
(196,414,l),
(262,740,l),
(185,740,l)
);
}
);
width = 565;
},
{
layerId = "76CB80E2-1BCF-4FA8-BCDD-2F5266FDBF6B";
shapes = (
{
closed = 1;
nodes = (
(54,0,l),
(75,0,l),
(137,312,ls),
(149,372,o),
(179,412,o),
(200,437,cs),
(240,484,o),
(288,499,o),
(333,499,cs),
(408,499,o),
(447,460,o),
(447,383,cs),
(447,370,o),
(444,343,o),
(440,320,cs),
(383,35,ls),
(382,30,o),
(381,26,o),
(381,19,cs),
(381,6,o),
(389,0,o),
(404,0,cs),
(482,0,l),
(486,19,l),
(401,19,l),
(461,321,ls),
(465,341,o),
(468,366,o),
(468,386,cs),
(468,469,o),
(421,518,o),
(336,518,cs),
(253,518,o),
(198,477,o),
(158,401,c),
(155,401,l),
(222,740,l),
(201,740,l)
);
}
);
width = 549;
}
);
leftKerningGroup = b2;
rightKerningGroup = h;
unicode = 104;
},
{
glyphname = i;
layers = (
{
layerId = "2ED2F014-92B4-41A8-8CFE-CD21E2CD1218";
shapes = (
{
closed = 1;
nodes = (
(243,547,o),
(275,558,o),
(291,578,cs),
(307,598,o),
(317,621,o),
(323,640,cs),
(326,648,o),
(331,671,o),
(331,688,cs),
(331,729,o),
(300,752,o),
(239,752,cs),
(195,752,o),
(165,740,o),
(148,720,c),
(133,700,o),
(121,678,o),
(115,658,c),
(112,651,o),
(107,628,o),
(107,610,cs),
(107,570,o),
(138,547,o),
(199,547,cs)
);
},
{
closed = 1;
nodes = (
(230,0,l),
(258,141,l),
(209,141,l),
(287,531,l),
(105,531,l),
(22,117,l),
(21,108,o),
(19,100,o),
(19,91,cs),
(19,36,o),
(66,0,o),
(123,0,cs)
);
}
);
width = 292;
},
{
layerId = "BE19BB09-F61D-48A8-8F95-1DC5A5769CFD";
shapes = (
{
closed = 1;
nodes = (
(235,583,o),
(259,591,o),
(272,606,cs),
(285,621,o),
(293,638,o),
(298,655,cs),
(301,667,o),
(304,683,o),
(304,695,cs),
(304,727,o),
(281,747,o),
(232,747,cs),
(199,747,o),
(176,739,o),
(163,724,cs),
(150,709,o),
(141,692,o),
(136,675,cs),
(133,663,o),
(130,647,o),
(130,635,cs),
(130,603,o),
(153,583,o),
(202,583,cs)
);
},
{
closed = 1;
nodes = (
(213,0,l),
(235,112,l),
(176,112,l),
(259,525,l),
(119,525,l),
(35,105,l),
(34,96,o),
(32,88,o),
(32,80,cs),
(32,32,o),
(69,0,o),
(122,0,cs)
);
}
);
width = 281;
},
{
layerId = "B488FFC1-C82B-453A-B801-8B96DD071204";
shapes = (
{
closed = 1;
nodes = (
(223,637,o),
(235,641,o),
(244,648,cs),
(252,655,o),
(257,664,o),
(260,677,cs),
(264,696,o),
(264,701,o),
(264,705,cs),
(264,724,o),
(253,740,o),
(222,740,cs),
(205,740,o),
(193,737,o),
(185,730,cs),
(176,723,o),
(171,713,o),
(168,700,cs),
(164,681,o),
(164,676,o),
(164,672,cs),
(164,653,o),
(175,637,o),
(206,637,cs)
);
},
{
closed = 1;
nodes = (
(187,0,l),
(200,68,l),
(127,68,l),
(217,516,l),
(140,516,l),
(54,87,l),
(53,78,o),
(51,70,o),
(51,63,cs),
(51,26,o),
(74,0,o),
(121,0,cs)
);
}
);
width = 264;
},
{
layerId = "76CB80E2-1BCF-4FA8-BCDD-2F5266FDBF6B";
shapes = (
{
closed = 1;
nodes = (
(209,673,o),
(215,675,o),
(219,678,cs),
(223,681,o),
(226,686,o),
(227,692,cs),
(228,699,o),
(229,702,o),
(229,706,cs),
(229,714,o),
(224,722,o),
(209,722,cs),
(200,722,o),
(194,720,o),
(190,717,cs),
(186,714,o),
(183,709,o),
(182,703,cs),
(181,698,o),
(180,693,o),
(180,689,cs),
(180,681,o),
(185,673,o),
(200,673,cs)
);
},
{
closed = 1;
nodes = (
(159,0,l),
(163,19,l),
(78,19,l),
(176,506,l),
(155,506,l),
(60,35,ls),
(59,30,o),
(58,26,o),
(58,19,cs),
(58,6,o),
(66,0,o),
(81,0,cs)
);
}
);
width = 235;
}
);
leftKerningGroup = i2;
rightKerningGroup = i;
unicode = 105;
},
{
glyphname = j;
layers = (
{
layerId = "2ED2F014-92B4-41A8-8CFE-CD21E2CD1218";
shapes = (
{
closed = 1;
nodes = (
(-7,-59,l),
(-76,-59,l),
(-104,-200,l),
(-17,-200,ls),
(98,-200,o),
(158,-142,o),
(177,-36,c),
(294,531,l),
(112,531,l)
);
},
{
closed = 1;
nodes = (
(250,547,o),
(282,558,o),
(297,578,c),
(314,598,o),
(324,621,o),
(330,640,cs),
(332,648,o),
(337,671,o),
(337,688,cs),
(337,729,o),
(306,752,o),
(245,752,cs),
(202,752,o),
(171,740,o),
(155,720,cs),
(139,700,o),
(128,678,o),
(121,658,cs),
(119,651,o),
(114,628,o),
(114,610,cs),
(114,570,o),
(145,547,o),
(206,547,cs)
);
}
);
width = 291;
},
{
layerId = "BE19BB09-F61D-48A8-8F95-1DC5A5769CFD";
shapes = (
{
closed = 1;
nodes = (
(0,-88,l),
(-75,-88,l),
(-97,-200,l),
(-18,-200,ls),
(79,-200,o),
(127,-152,o),
(144,-61,cs),
(263,525,l),
(123,525,l)
);
},
{
closed = 1;
nodes = (
(239,583,o),
(263,591,o),
(276,606,cs),
(289,621,o),
(297,638,o),
(302,655,cs),
(305,667,o),
(308,683,o),
(308,695,cs),
(308,727,o),
(285,747,o),
(236,747,cs),
(203,747,o),
(180,739,o),
(167,724,cs),
(154,709,o),
(145,692,o),
(140,675,cs),
(137,663,o),
(134,647,o),
(134,635,cs),
(134,603,o),
(157,583,o),
(206,583,cs)
);
}
);
width = 276;
},
{
layerId = "B488FFC1-C82B-453A-B801-8B96DD071204";
shapes = (
{
closed = 1;
nodes = (
(10,-132,l),
(-73,-132,l),
(-87,-200,l),
(-20,-200,ls),
(51,-200,o),
(81,-167,o),
(94,-98,cs),
(217,516,l),
(140,516,l)
);
},
{
closed = 1;
nodes = (
(223,637,o),
(235,641,o),
(244,648,cs),
(252,655,o),
(257,664,o),
(260,677,cs),
(264,696,o),
(264,701,o),
(264,705,cs),
(264,724,o),
(253,740,o),
(222,740,cs),
(205,740,o),
(193,737,o),
(185,730,cs),
(176,723,o),
(171,713,o),
(168,700,cs),
(164,681,o),
(164,676,o),
(164,672,cs),
(164,653,o),
(175,637,o),
(206,637,cs)
);
}
);
width = 253;
},
{
layerId = "76CB80E2-1BCF-4FA8-BCDD-2F5266FDBF6B";
shapes = (
{
closed = 1;
nodes = (
(17,-181,l),
(-68,-181,l),
(-72,-200,l),
(0,-200,ls),
(28,-200,o),
(36,-192,o),
(41,-167,cs),
(175,506,l),
(154,506,l)
);
},
{
closed = 1;
nodes = (
(208,673,o),
(214,675,o),
(218,678,cs),
(222,681,o),
(225,686,o),
(226,692,cs),
(227,699,o),
(228,702,o),
(228,706,cs),
(228,714,o),
(223,722,o),
(208,722,cs),
(199,722,o),
(193,720,o),
(189,717,cs),
(185,714,o),
(182,709,o),
(181,703,cs),
(180,698,o),
(179,693,o),
(179,689,cs),
(179,681,o),
(184,673,o),
(199,673,cs)
);
}
);
width = 229;
}
);
leftKerningGroup = j2;
rightKerningGroup = j;
unicode = 106;
},
{
glyphname = k;
layers = (
{
layerId = "2ED2F014-92B4-41A8-8CFE-CD21E2CD1218";
shapes = (
{
closed = 1;
nodes = (
(-1,0,l),
(181,0,l),
(204,116,l),
(275,185,l),
(288,96,l),
(305,33,o),
(344,0,o),
(396,0,cs),
(492,0,l),
(523,141,l),
(465,141,l),
(415,315,l),
(617,531,l),
(407,531,l),
(313,416,l),
(255,325,l),
(246,325,l),
(263,409,l),
(329,740,l),
(147,740,l)
);
}
);
width = 571;
},
{
layerId = "BE19BB09-F61D-48A8-8F95-1DC5A5769CFD";
shapes = (
{
closed = 1;
nodes = (
(14,0,l),
(154,0,l),
(182,142,l),
(261,216,l),
(305,79,ls),
(322,26,o),
(355,0,o),
(404,0,cs),
(479,0,l),
(503,112,l),
(442,112,l),
(370,312,l),
(583,525,l),
(420,525,l),
(294,395,l),
(222,305,l),
(215,305,l),
(233,395,l),
(302,740,l),
(162,740,l)
);
}
);
width = 550;
},
{
layerId = "B488FFC1-C82B-453A-B801-8B96DD071204";
shapes = (
{
closed = 1;
nodes = (
(36,0,l),
(113,0,l),
(149,181,l),
(240,263,l),
(331,54,ls),
(348,15,o),
(371,0,o),
(416,0,cs),
(460,0,l),
(473,68,l),
(407,68,l),
(302,308,l),
(532,516,l),
(439,516,l),
(265,363,l),
(173,275,l),
(168,275,l),
(188,374,l),
(262,740,l),
(185,740,l)
);
}
);
width = 519;
},
{
layerId = "76CB80E2-1BCF-4FA8-BCDD-2F5266FDBF6B";
shapes = (
{
closed = 1;
nodes = (
(53,0,l),
(74,0,l),
(112,189,l),
(221,280,l),
(354,21,ls),
(362,6,o),
(368,0,o),
(383,0,cs),
(431,0,l),
(435,19,l),
(378,19,l),
(237,292,l),
(480,506,l),
(453,506,l),
(234,315,l),
(122,221,l),
(118,221,l),
(141,335,l),
(222,740,l),
(201,740,l)
);
}
);
width = 479;
}
);
leftKerningGroup = b2;
rightKerningGroup = k;
unicode = 107;
},
{
glyphname = l;
layers = (
{
layerId = "2ED2F014-92B4-41A8-8CFE-CD21E2CD1218";
shapes = (
{
closed = 1;
nodes = (
(232,0,l),
(260,141,l),
(209,141,l),
(329,740,l),
(147,740,l),
(22,117,l),
(21,108,o),
(19,100,o),
(19,91,cs),
(19,36,o),
(66,0,o),
(123,0,cs)
);
}
);
width = 292;
},
{
layerId = "BE19BB09-F61D-48A8-8F95-1DC5A5769CFD";
shapes = (
{
closed = 1;
nodes = (
(216,0,l),
(238,112,l),
(176,112,l),
(302,740,l),
(162,740,l),
(35,105,l),
(34,96,o),
(32,88,o),
(32,80,cs),
(32,32,o),
(69,0,o),
(122,0,cs)
);
}
);
width = 281;
},
{
layerId = "B488FFC1-C82B-453A-B801-8B96DD071204";
shapes = (
{
closed = 1;
nodes = (
(192,0,l),
(205,68,l),
(127,68,l),
(262,740,l),
(185,740,l),
(54,87,l),
(53,78,o),
(51,70,o),
(51,63,cs),
(51,26,o),
(74,0,o),
(121,0,cs)
);
}
);
width = 264;
},
{
layerId = "76CB80E2-1BCF-4FA8-BCDD-2F5266FDBF6B";
shapes = (
{
closed = 1;
nodes = (
(159,0,l),
(163,19,l),
(78,19,l),
(222,740,l),
(201,740,l),
(60,35,ls),
(59,30,o),
(58,26,o),
(58,19,cs),
(58,6,o),
(66,0,o),
(81,0,cs)
);
}
);
width = 235;
}
);
leftKerningGroup = l;
rightKerningGroup = d;
unicode = 108;
},
{
glyphname = m;
layers = (
{
anchors = (
{
name = b.uni0327;
position = "{389, 0}";
},
{
name = t.uni0303;
position = "{513, 540}";
}
);
layerId = "2ED2F014-92B4-41A8-8CFE-CD21E2CD1218";
shapes = (
{
closed = 1;
nodes = (
(181,0,l),
(233,258,ls),
(241,298,o),
(252,319,o),
(266,341,c),
(289,372,o),
(315,395,o),
(347,395,cs),
(372,395,o),
(377,379,o),
(377,359,cs),
(377,344,o),
(373,326,o),
(369,308,cs),
(309,0,l),
(491,0,l),
(542,258,ls),
(548,289,o),
(566,321,o),
(579,344,c),
(600,370,o),
(628,395,o),
(658,395,cs),
(673,395,o),
(679,379,o),
(679,362,cs),
(679,345,o),
(673,326,o),
(669,307,cs),
(633,120,l),
(632,118,o),
(630,104,o),
(630,89,cs),
(630,36,o),
(664,0,o),
(726,0,cs),
(830,0,l),
(858,141,l),
(818,141,l),
(851,309,l),
(860,344,o),
(867,378,o),
(867,416,cs),
(867,494,o),
(825,543,o),
(755,543,cs),
(710,543,o),
(673,529,o),
(646,500,cs),
(618,471,o),
(593,435,o),
(572,396,c),
(568,396,l),
(572,488,o),
(528,543,o),
(445,543,cs),
(361,543,o),
(309,483,o),
(268,396,c),
(261,396,l),
(287,531,l),
(105,531,l),
(-1,0,l)
);
}
);
width = 896;
},
{
anchors = (
{
name = b.uni0327;
position = "{389, 0}";
},
{
name = t.uni0303;
position = "{513, 540}";
}
);
layerId = "BE19BB09-F61D-48A8-8F95-1DC5A5769CFD";
shapes = (
{
closed = 1;
nodes = (
(154,0,l),
(208,270,ls),
(216,310,o),
(233,344,o),
(256,372,cs),
(279,400,o),
(307,420,o),
(340,420,cs),
(375,420,o),
(387,399,o),
(387,366,cs),
(387,350,o),
(384,331,o),
(380,312,cs),
(318,0,l),
(458,0,l),
(512,270,ls),
(519,306,o),
(539,346,o),
(560,373,c),
(583,400,o),
(611,420,o),
(642,420,cs),
(673,420,o),
(686,399,o),
(686,367,cs),
(686,350,o),
(682,331,o),
(678,312,cs),
(637,104,ls),
(636,99,o),
(634,88,o),
(634,76,cs),
(634,29,o),
(665,0,o),
(718,0,cs),
(809,0,l),
(831,112,l),
(778,112,l),
(818,313,l),
(825,344,o),
(830,373,o),
(830,404,cs),
(830,487,o),
(788,537,o),
(711,537,cs),
(669,537,o),
(634,525,o),
(607,500,cs),
(580,475,o),
(556,442,o),
(537,403,c),
(532,403,l),
(531,487,o),
(489,537,o),
(410,537,cs),
(330,537,o),
(280,486,o),
(241,403,c),
(235,403,l),
(259,525,l),
(119,525,l),
(14,0,l)
);
}
);
width = 877;
},
{
anchors = (
{
name = b.uni0327;
position = "{389, 0}";
},
{
name = t.uni0303;
position = "{513, 540}";
}
);
layerId = "B488FFC1-C82B-453A-B801-8B96DD071204";
shapes = (
{
closed = 1;
nodes = (
(113,0,l),
(171,288,ls),
(179,328,o),
(204,381,o),
(241,418,cs),
(264,442,o),
(295,458,o),
(330,458,cs),
(379,458,o),
(402,429,o),
(402,376,cs),
(402,359,o),
(400,338,o),
(396,318,cs),
(332,0,l),
(409,0,l),
(467,288,ls),
(475,331,o),
(498,384,o),
(531,417,cs),
(558,445,o),
(586,458,o),
(618,458,cs),
(673,458,o),
(697,429,o),
(697,374,cs),
(697,358,o),
(695,339,o),
(691,319,cs),
(643,80,l),
(642,71,o),
(640,64,o),
(640,57,cs),
(640,18,o),
(666,0,o),
(706,0,cs),
(778,0,l),
(791,68,l),
(718,68,l),
(768,319,ls),
(773,344,o),
(775,366,o),
(775,386,cs),
(775,477,o),
(732,528,o),
(645,528,cs),
(607,528,o),
(575,519,o),
(549,500,cs),
(523,481,o),
(501,453,o),
(484,414,c),
(478,414,l),
(470,485,o),
(430,528,o),
(358,528,cs),
(283,528,o),
(237,491,o),
(201,414,c),
(196,414,l),
(217,516,l),
(140,516,l),
(36,0,l)
);
}
);
width = 848;
},
{
anchors = (
{
name = b.uni0327;
position = "{372, 0}";
},
{
name = t.uni0303;
position = "{491, 540}";
}
);
layerId = "76CB80E2-1BCF-4FA8-BCDD-2F5266FDBF6B";
shapes = (
{
closed = 1;
nodes = (
(74,0,l),
(136,312,ls),
(147,367,o),
(175,410,o),
(199,437,cs),
(238,481,o),
(281,499,o),
(324,499,cs),
(395,499,o),
(432,460,o),
(432,383,cs),
(432,370,o),
(429,343,o),
(425,320,cs),
(361,0,l),
(382,0,l),
(446,319,ls),
(457,375,o),
(479,408,o),
(504,437,cs),
(541,481,o),
(589,499,o),
(633,499,cs),
(704,499,o),
(741,460,o),
(741,383,cs),
(741,370,o),
(738,343,o),
(734,320,cs),
(677,35,ls),
(676,30,o),
(675,26,o),
(675,19,cs),
(675,6,o),
(683,0,o),
(698,0,cs),
(776,0,l),
(780,19,l),
(695,19,l),
(755,321,ls),
(759,341,o),
(762,366,o),
(762,386,cs),
(762,469,o),
(717,518,o),
(636,518,cs),
(595,518,o),
(559,507,o),
(528,484,cs),
(497,461,o),
(473,431,o),
(456,394,c),
(453,394,l),
(452,463,o),
(410,518,o),
(327,518,cs),
(248,518,o),
(193,472,o),
(157,401,c),
(154,401,l),
(175,506,l),
(154,506,l),
(53,0,l)
);
}
);
width = 843;
}
);
leftKerningGroup = m;
rightKerningGroup = h;
unicode = 109;
},
{
glyphname = n;
layers = (
{
layerId = "2ED2F014-92B4-41A8-8CFE-CD21E2CD1218";
shapes = (
{
closed = 1;
nodes = (
(181,0,l),
(233,258,ls),
(241,297,o),
(253,317,o),
(271,342,cs),
(290,368,o),
(319,395,o),
(349,395,cs),
(377,395,o),
(385,378,o),
(385,366,cs),
(385,341,o),
(380,326,o),
(376,308,c),
(340,121,ls),
(339,118,o),
(336,103,o),
(336,88,cs),
(336,36,o),
(370,0,o),
(434,0,cs),
(537,0,l),
(565,141,l),
(525,141,l),
(563,333,ls),
(568,361,o),
(574,383,o),
(574,412,cs),
(574,497,o),
(528,543,o),
(452,543,cs),
(366,543,o),
(310,484,o),
(268,396,c),
(261,396,l),
(287,531,l),
(105,531,l),
(-1,0,l)
);
}
);
width = 603;
},
{
layerId = "BE19BB09-F61D-48A8-8F95-1DC5A5769CFD";
shapes = (
{
closed = 1;
nodes = (
(154,0,l),
(208,270,ls),
(216,310,o),
(234,344,o),
(258,372,cs),
(281,399,o),
(310,420,o),
(343,420,cs),
(382,420,o),
(396,399,o),
(396,368,cs),
(396,348,o),
(393,331,o),
(389,312,cs),
(348,104,ls),
(347,99,o),
(345,88,o),
(345,76,cs),
(345,29,o),
(376,0,o),
(429,0,cs),
(520,0,l),
(542,112,l),
(489,112,l),
(532,327,ls),
(537,354,o),
(541,376,o),
(541,401,cs),
(541,488,o),
(496,537,o),
(415,537,cs),
(334,537,o),
(281,487,o),
(241,403,c),
(235,403,l),
(259,525,l),
(119,525,l),
(14,0,l)
);
}
);
width = 588;
},
{
layerId = "B488FFC1-C82B-453A-B801-8B96DD071204";
shapes = (
{
closed = 1;
nodes = (
(113,0,l),
(171,288,ls),
(179,329,o),
(206,384,o),
(239,417,cs),
(267,445,o),
(297,458,o),
(334,458,cs),
(389,458,o),
(413,430,o),
(413,371,cs),
(413,359,o),
(412,338,o),
(408,318,cs),
(360,79,l),
(359,70,o),
(358,65,o),
(358,58,cs),
(358,18,o),
(385,0,o),
(422,0,cs),
(495,0,l),
(508,68,l),
(435,68,l),
(485,318,ls),
(490,343,o),
(492,366,o),
(492,385,cs),
(492,474,o),
(448,528,o),
(359,528,cs),
(286,528,o),
(237,491,o),
(201,414,c),
(196,414,l),
(217,516,l),
(140,516,l),
(36,0,l)
);
}
);
width = 565;
},
{
layerId = "76CB80E2-1BCF-4FA8-BCDD-2F5266FDBF6B";
shapes = (
{
closed = 1;
nodes = (
(74,0,l),
(136,312,ls),
(148,372,o),
(178,412,o),
(199,437,cs),
(239,484,o),
(287,499,o),
(332,499,cs),
(407,499,o),
(446,460,o),
(446,383,cs),
(446,370,o),
(443,343,o),
(439,320,cs),
(382,35,ls),
(381,30,o),
(380,26,o),
(380,19,cs),
(380,6,o),
(388,0,o),
(403,0,cs),
(481,0,l),
(485,19,l),
(400,19,l),
(460,321,ls),
(464,341,o),
(467,366,o),
(467,386,cs),
(467,469,o),
(420,518,o),
(335,518,cs),
(252,518,o),
(197,477,o),
(157,401,c),
(154,401,l),
(175,506,l),
(154,506,l),
(53,0,l)
);
}
);
width = 548;
}
);
leftKerningGroup = m;
rightKerningGroup = h;
unicode = 110;
},
{
glyphname = o;
layers = (
{
anchors = (
{
name = b.uni0327;
position = "{228, 0}";
},
{
name = t.uni0303;
position = "{317, 540}";
}
);
layerId = "2ED2F014-92B4-41A8-8CFE-CD21E2CD1218";
shapes = (
{
closed = 1;
nodes = (
(331,-12,o),
(407,30,o),
(459,105,cs),
(484,142,o),
(501,185,o),
(510,235,cs),
(514,261,o),
(518,290,o),
(518,319,cs),
(518,411,o),
(482,479,o),
(414,516,cs),
(381,533,o),
(341,543,o),
(293,543,cs),
(205,543,o),
(129,501,o),
(79,427,cs),
(53,390,o),
(36,348,o),
(26,296,cs),
(21,270,o),
(19,244,o),
(19,212,cs),
(19,120,o),
(55,52,o),
(122,15,c),
(155,-2,o),
(196,-12,o),
(243,-12,cs)
);
},
{
closed = 1;
nodes = (
(226,130,o),
(211,141,o),
(206,158,c),
(202,166,o),
(200,176,o),
(200,188,cs),
(200,200,o),
(202,211,o),
(202,210,c),
(223,316,ls),
(234,371,o),
(252,401,o),
(292,401,cs),
(312,401,o),
(324,390,o),
(332,374,c),
(334,365,o),
(337,355,o),
(337,343,cs),
(337,331,o),
(335,323,o),
(335,321,c),
(313,215,ls),
(302,160,o),
(283,130,o),
(245,130,cs)
);
}
);
width = 537;
},
{
anchors = (
{
name = b.uni0327;
position = "{228, 0}";
},
{
name = t.uni0303;
position = "{317, 540}";
}
);
layerId = "BE19BB09-F61D-48A8-8F95-1DC5A5769CFD";
shapes = (
{
closed = 1;
nodes = (
(328,-12,o),
(402,32,o),
(452,106,cs),
(477,143,o),
(494,185,o),
(503,233,cs),
(508,260,o),
(511,289,o),
(511,318,cs),
(511,410,o),
(476,476,o),
(413,511,cs),
(382,528,o),
(345,537,o),
(302,537,cs),
(214,537,o),
(140,493,o),
(91,420,cs),
(66,383,o),
(49,341,o),
(39,292,cs),
(34,265,o),
(31,238,o),
(31,207,cs),
(31,115,o),
(66,49,o),
(129,14,cs),
(160,-3,o),
(197,-12,o),
(240,-12,cs)
);
},
{
closed = 1;
nodes = (
(213,101,o),
(190,116,o),
(179,141,cs),
(173,153,o),
(170,167,o),
(170,184,cs),
(170,197,o),
(172,210,o),
(173,215,cs),
(192,309,ls),
(207,384,o),
(244,424,o),
(297,424,cs),
(330,424,o),
(352,409,o),
(364,385,c),
(369,372,o),
(372,358,o),
(372,341,cs),
(372,328,o),
(370,317,o),
(369,310,cs),
(350,216,ls),
(335,141,o),
(298,101,o),
(245,101,cs)
);
}
);
width = 542;
},
{
anchors = (
{
name = b.uni0327;
position = "{228, 0}";
},
{
name = t.uni0303;
position = "{317, 540}";
}
);
layerId = "B488FFC1-C82B-453A-B801-8B96DD071204";
shapes = (
{
closed = 1;
nodes = (
(323,-12,o),
(394,35,o),
(442,108,cs),
(466,145,o),
(483,185,o),
(492,230,c),
(499,258,o),
(501,287,o),
(501,316,cs),
(501,409,o),
(467,472,o),
(411,504,cs),
(383,520,o),
(351,528,o),
(315,528,cs),
(227,528,o),
(156,481,o),
(109,409,cs),
(85,372,o),
(68,331,o),
(58,286,c),
(53,258,o),
(49,229,o),
(49,200,cs),
(49,107,o),
(83,44,o),
(139,12,cs),
(167,-4,o),
(199,-12,o),
(235,-12,cs)
);
},
{
closed = 1;
nodes = (
(193,57,o),
(158,79,o),
(139,115,cs),
(130,133,o),
(125,154,o),
(125,178,cs),
(125,193,o),
(127,208,o),
(130,223,cs),
(145,298,ls),
(166,403,o),
(232,459,o),
(305,459,cs),
(357,459,o),
(394,438,o),
(412,402,cs),
(421,383,o),
(425,362,o),
(425,338,cs),
(425,323,o),
(423,308,o),
(420,293,cs),
(405,218,ls),
(384,113,o),
(320,57,o),
(245,57,cs)
);
}
);
width = 550;
},
{
anchors = (
{
name = b.uni0327;
position = "{216, 0}";
},
{
name = t.uni0303;
position = "{313, 540}";
}
);
layerId = "76CB80E2-1BCF-4FA8-BCDD-2F5266FDBF6B";
shapes = (
{
closed = 1;
nodes = (
(313,-12,o),
(377,32,o),
(419,104,cs),
(440,140,o),
(455,180,o),
(464,225,cs),
(471,260,o),
(475,298,o),
(475,337,cs),
(475,404,o),
(449,461,o),
(400,494,cs),
(375,510,o),
(345,518,o),
(309,518,cs),
(221,518,o),
(158,474,o),
(116,403,cs),
(95,367,o),
(79,326,o),
(70,281,cs),
(63,246,o),
(59,208,o),
(59,169,cs),
(59,102,o),
(85,45,o),
(135,13,cs),
(160,-4,o),
(190,-12,o),
(225,-12,cs)
);
},
{
closed = 1;
nodes = (
(159,7,o),
(116,39,o),
(96,88,cs),
(85,113,o),
(80,140,o),
(80,169,cs),
(80,196,o),
(81,220,o),
(85,241,cs),
(93,281,ls),
(120,416,o),
(195,499,o),
(307,499,cs),
(375,499,o),
(418,467,o),
(439,418,cs),
(449,393,o),
(454,366,o),
(454,337,cs),
(454,312,o),
(453,288,o),
(449,265,cs),
(441,225,ls),
(414,90,o),
(339,7,o),
(227,7,cs)
);
}
);
width = 534;
}
);
leftKerningGroup = c2;
rightKerningGroup = o;
unicode = 111;
},
{
glyphname = p;
layers = (
{
anchors = (
{
name = t.uni0303;
position = "{371, 540}";
}
);
layerId = "2ED2F014-92B4-41A8-8CFE-CD21E2CD1218";
shapes = (
{
closed = 1;
nodes = (
(-41,-200,l),
(141,-200,l),
(200,96,l),
(206,96,l),
(206,69,o),
(218,45,o),
(241,22,c),
(262,-1,o),
(293,-12,o),
(334,-12,cs),
(394,-12,o),
(457,20,o),
(507,94,cs),
(531,129,o),
(548,176,o),
(560,233,cs),
(568,273,o),
(573,321,o),
(573,371,cs),
(573,435,o),
(559,489,o),
(522,521,c),
(503,535,o),
(478,543,o),
(444,543,cs),
(360,543,o),
(310,486,o),
(270,402,c),
(262,402,l),
(287,531,l),
(105,531,l)
);
},
{
closed = 1;
nodes = (
(258,133,o),
(235,140,o),
(225,161,c),
(219,170,o),
(218,184,o),
(221,198,cs),
(233,261,ls),
(239,292,o),
(257,329,o),
(270,352,cs),
(284,376,o),
(313,398,o),
(343,398,cs),
(358,398,o),
(371,393,o),
(380,379,cs),
(384,372,o),
(387,362,o),
(387,351,cs),
(387,336,o),
(383,304,o),
(380,290,cs),
(367,223,ls),
(354,158,o),
(331,133,o),
(282,133,cs)
);
}
);
width = 590;
},
{
anchors = (
{
name = t.uni0303;
position = "{371, 540}";
}
);
layerId = "BE19BB09-F61D-48A8-8F95-1DC5A5769CFD";
shapes = (
{
closed = 1;
nodes = (
(-26,-200,l),
(114,-200,l),
(172,91,l),
(177,91,l),
(180,62,o),
(194,38,o),
(218,18,cs),
(241,-2,o),
(271,-12,o),
(308,-12,cs),
(381,-12,o),
(446,29,o),
(492,105,cs),
(515,142,o),
(531,187,o),
(541,238,cs),
(548,274,o),
(552,314,o),
(552,355,cs),
(552,426,o),
(533,482,o),
(492,514,c),
(471,529,o),
(445,537,o),
(412,537,cs),
(331,537,o),
(282,488,o),
(241,403,c),
(235,403,l),
(259,525,l),
(119,525,l)
);
},
{
closed = 1;
nodes = (
(235,103,o),
(207,117,o),
(196,144,cs),
(190,157,o),
(189,173,o),
(192,190,cs),
(208,270,ls),
(216,309,o),
(235,347,o),
(256,374,cs),
(277,401,o),
(307,422,o),
(343,422,cs),
(371,422,o),
(390,410,o),
(401,388,cs),
(406,377,o),
(409,363,o),
(409,347,cs),
(409,331,o),
(406,305,o),
(403,290,cs),
(389,220,ls),
(373,141,o),
(337,103,o),
(274,103,cs)
);
}
);
width = 583;
},
{
anchors = (
{
name = t.uni0303;
position = "{371, 540}";
}
);
layerId = "B488FFC1-C82B-453A-B801-8B96DD071204";
shapes = (
{
closed = 1;
nodes = (
(-4,-200,l),
(73,-200,l),
(130,84,l),
(134,84,l),
(141,51,o),
(158,27,o),
(184,12,cs),
(210,-4,o),
(238,-12,o),
(269,-12,cs),
(362,-12,o),
(429,43,o),
(470,122,cs),
(491,161,o),
(505,203,o),
(513,246,cs),
(518,275,o),
(521,304,o),
(521,331,cs),
(521,412,o),
(494,472,o),
(447,504,cs),
(423,520,o),
(395,528,o),
(364,528,cs),
(288,528,o),
(240,491,o),
(197,404,c),
(194,404,l),
(217,516,l),
(140,516,l)
);
},
{
closed = 1;
nodes = (
(201,58,o),
(165,82,o),
(153,119,c),
(146,137,o),
(145,157,o),
(149,178,cs),
(170,283,ls),
(181,335,o),
(202,374,o),
(235,407,cs),
(266,438,o),
(298,458,o),
(343,458,cs),
(390,458,o),
(418,436,o),
(432,401,cs),
(439,384,o),
(442,364,o),
(442,341,cs),
(442,324,o),
(440,307,o),
(437,290,cs),
(422,215,ls),
(402,115,o),
(346,58,o),
(262,58,cs)
);
}
);
width = 572;
},
{
anchors = (
{
name = t.uni0303;
position = "{362, 540}";
}
);
layerId = "76CB80E2-1BCF-4FA8-BCDD-2F5266FDBF6B";
shapes = (
{
closed = 1;
nodes = (
(14,-200,l),
(35,-200,l),
(93,93,l),
(96,93,l),
(105,62,o),
(123,37,o),
(149,18,cs),
(175,-2,o),
(209,-12,o),
(252,-12,cs),
(339,-12,o),
(403,32,o),
(446,104,cs),
(467,140,o),
(482,181,o),
(491,226,cs),
(498,259,o),
(501,294,o),
(501,330,cs),
(501,402,o),
(475,461,o),
(427,494,cs),
(403,510,o),
(373,518,o),
(338,518,cs),
(253,518,o),
(200,470,o),
(157,395,c),
(154,395,l),
(176,506,l),
(155,506,l)
);
},
{
closed = 1;
nodes = (
(173,7,o),
(128,44,o),
(113,91,cs),
(105,114,o),
(103,137,o),
(107,160,cs),
(135,302,ls),
(150,373,o),
(189,427,o),
(228,459,cs),
(263,488,o),
(297,499,o),
(338,499,cs),
(403,499,o),
(445,466,o),
(465,415,cs),
(475,390,o),
(480,361,o),
(480,330,cs),
(480,302,o),
(478,282,o),
(474,259,cs),
(467,224,ls),
(442,92,o),
(367,7,o),
(252,7,cs)
);
}
);
width = 561;
}
);
rightKerningGroup = b;
unicode = 112;
},
{
glyphname = q;
layers = (
{
anchors = (
{
name = t.uni0303;
position = "{319, 540}";
}
);
layerId = "2ED2F014-92B4-41A8-8CFE-CD21E2CD1218";
shapes = (
{
closed = 1;
nodes = (
(263,-200,l),
(445,-200,l),
(591,531,l),
(409,531,l),
(390,435,l),
(385,435,l),
(384,462,o),
(372,486,o),
(351,508,cs),
(328,532,o),
(297,543,o),
(256,543,cs),
(198,543,o),
(132,511,o),
(84,437,cs),
(60,401,o),
(42,353,o),
(30,295,cs),
(22,254,o),
(18,212,o),
(18,160,cs),
(18,99,o),
(31,42,o),
(68,12,cs),
(87,-4,o),
(112,-12,o),
(146,-12,cs),
(234,-12,o),
(279,44,o),
(320,129,c),
(328,129,l)
);
},
{
closed = 1;
nodes = (
(232,133,o),
(218,138,o),
(209,153,c),
(206,160,o),
(203,170,o),
(203,180,cs),
(203,195,o),
(207,231,o),
(210,241,c),
(223,308,l),
(237,373,o),
(263,398,o),
(308,398,cs),
(333,398,o),
(355,391,o),
(367,371,cs),
(372,362,o),
(373,349,o),
(370,333,cs),
(357,270,ls),
(350,239,o),
(337,202,o),
(320,179,cs),
(305,157,o),
(277,133,o),
(247,133,cs)
);
}
);
width = 590;
},
{
anchors = (
{
name = t.uni0303;
position = "{319, 540}";
}
);
layerId = "BE19BB09-F61D-48A8-8F95-1DC5A5769CFD";
shapes = (
{
closed = 1;
nodes = (
(284,-200,l),
(424,-200,l),
(569,525,l),
(429,525,l),
(411,434,l),
(406,434,l),
(403,463,o),
(389,487,o),
(366,507,cs),
(342,527,o),
(312,537,o),
(275,537,cs),
(203,537,o),
(137,496,o),
(92,421,cs),
(69,384,o),
(53,339,o),
(42,287,cs),
(35,251,o),
(31,213,o),
(31,170,cs),
(31,101,o),
(50,43,o),
(91,12,cs),
(112,-4,o),
(138,-12,o),
(171,-12,cs),
(254,-12,o),
(301,37,o),
(342,122,c),
(348,122,l)
);
},
{
closed = 1;
nodes = (
(213,103,o),
(193,115,o),
(182,138,cs),
(177,149,o),
(174,163,o),
(174,178,cs),
(174,194,o),
(177,222,o),
(180,235,cs),
(194,305,ls),
(210,384,o),
(248,422,o),
(309,422,cs),
(348,422,o),
(376,408,o),
(388,382,cs),
(394,369,o),
(395,353,o),
(391,335,cs),
(375,255,ls),
(367,216,o),
(350,178,o),
(327,151,cs),
(306,126,o),
(276,103,o),
(240,103,cs)
);
}
);
width = 583;
},
{
anchors = (
{
name = t.uni0303;
position = "{319, 540}";
}
);
layerId = "B488FFC1-C82B-453A-B801-8B96DD071204";
shapes = (
{
closed = 1;
nodes = (
(315,-200,l),
(392,-200,l),
(536,516,l),
(459,516,l),
(442,432,l),
(438,432,l),
(431,465,o),
(414,489,o),
(389,505,c),
(363,520,o),
(334,528,o),
(303,528,cs),
(211,528,o),
(144,474,o),
(104,397,cs),
(83,358,o),
(69,318,o),
(60,275,c),
(55,246,o),
(51,214,o),
(51,185,cs),
(51,104,o),
(78,44,o),
(126,12,cs),
(149,-4,o),
(177,-12,o),
(208,-12,cs),
(284,-12,o),
(334,27,o),
(375,112,c),
(378,112,l)
);
},
{
closed = 1;
nodes = (
(184,58,o),
(155,80,o),
(141,116,cs),
(134,133,o),
(130,153,o),
(130,175,cs),
(130,192,o),
(132,209,o),
(135,226,cs),
(150,301,ls),
(170,401,o),
(226,458,o),
(310,458,cs),
(371,458,o),
(407,434,o),
(420,398,cs),
(427,379,o),
(428,359,o),
(423,338,c),
(402,233,l),
(393,181,o),
(370,142,o),
(337,109,cs),
(308,80,o),
(274,58,o),
(229,58,cs)
);
}
);
width = 572;
},
{
anchors = (
{
name = t.uni0303;
position = "{319, 540}";
}
);
layerId = "76CB80E2-1BCF-4FA8-BCDD-2F5266FDBF6B";
shapes = (
{
closed = 1;
nodes = (
(345,-200,l),
(366,-200,l),
(507,506,l),
(486,506,l),
(468,413,l),
(465,413,l),
(456,444,o),
(439,470,o),
(413,489,cs),
(386,508,o),
(352,518,o),
(309,518,cs),
(224,518,o),
(158,474,o),
(116,402,cs),
(95,366,o),
(79,325,o),
(70,280,cs),
(63,247,o),
(60,212,o),
(60,176,cs),
(60,105,o),
(86,45,o),
(135,13,c),
(159,-4,o),
(188,-12,o),
(223,-12,cs),
(308,-12,o),
(363,38,o),
(404,111,c),
(407,111,l)
);
},
{
closed = 1;
nodes = (
(158,7,o),
(116,40,o),
(96,92,cs),
(86,117,o),
(81,145,o),
(81,176,cs),
(81,204,o),
(83,226,o),
(87,247,cs),
(94,282,ls),
(121,414,o),
(194,499,o),
(309,499,cs),
(389,499,o),
(433,462,o),
(449,415,cs),
(457,392,o),
(459,369,o),
(454,346,cs),
(426,204,ls),
(413,135,o),
(372,79,o),
(333,47,cs),
(298,18,o),
(266,7,o),
(223,7,cs)
);
}
);
width = 560;
}
);
leftKerningGroup = c2;
rightKerningGroup = q;
unicode = 113;
},
{
glyphname = r;
layers = (
{
layerId = "2ED2F014-92B4-41A8-8CFE-CD21E2CD1218";
shapes = (
{
closed = 1;
nodes = (
(181,0,l),
(232,255,l),
(246,319,o),
(266,345,o),
(304,352,cs),
(323,356,o),
(347,357,o),
(374,357,cs),
(409,357,l),
(445,531,l),
(425,531,ls),
(374,531,o),
(328,492,o),
(299,446,c),
(283,424,o),
(272,402,o),
(267,381,c),
(258,381,l),
(287,531,l),
(105,531,l),
(-1,0,l)
);
}
);
width = 414;
},
{
layerId = "BE19BB09-F61D-48A8-8F95-1DC5A5769CFD";
shapes = (
{
closed = 1;
nodes = (
(154,0,l),
(209,276,ls),
(221,333,o),
(244,365,o),
(285,379,cs),
(305,386,o),
(330,389,o),
(359,389,cs),
(394,389,l),
(422,525,l),
(397,525,ls),
(344,525,o),
(301,493,o),
(273,453,cs),
(258,433,o),
(247,413,o),
(240,394,c),
(233,394,l),
(259,525,l),
(119,525,l),
(14,0,l)
);
}
);
width = 394;
},
{
layerId = "B488FFC1-C82B-453A-B801-8B96DD071204";
shapes = (
{
closed = 1;
nodes = (
(113,0,l),
(175,307,ls),
(184,354,o),
(211,395,o),
(256,419,cs),
(278,431,o),
(305,437,o),
(336,437,cs),
(372,437,l),
(387,516,l),
(355,516,ls),
(299,516,o),
(261,494,o),
(234,463,cs),
(221,447,o),
(209,430,o),
(200,413,c),
(195,413,l),
(217,516,l),
(140,516,l),
(36,0,l)
);
}
);
width = 364;
},
{
layerId = "76CB80E2-1BCF-4FA8-BCDD-2F5266FDBF6B";
shapes = (
{
closed = 1;
nodes = (
(74,0,l),
(132,293,ls),
(147,365,o),
(183,426,o),
(236,461,cs),
(263,478,o),
(292,487,o),
(325,487,cs),
(354,487,l),
(358,506,l),
(328,506,ls),
(267,506,o),
(225,486,o),
(195,451,cs),
(180,434,o),
(166,414,o),
(155,392,c),
(152,392,l),
(175,506,l),
(154,506,l),
(53,0,l)
);
}
);
width = 338;
}
);
leftKerningGroup = m;
rightKerningGroup = r;
unicode = 114;
},
{
glyphname = s;
layers = (
{
layerId = "2ED2F014-92B4-41A8-8CFE-CD21E2CD1218";
shapes = (
{
closed = 1;
nodes = (
(374,-12,o),
(478,68,o),
(474,171,cs),
(471,239,o),
(425,285,o),
(301,331,c),
(258,348,ls),
(241,355,o),
(232,361,o),
(232,377,cs),
(232,397,o),
(249,403,o),
(283,403,cs),
(318,403,o),
(355,387,o),
(398,354,c),
(499,460,l),
(439,513,o),
(392,541,o),
(269,541,cs),
(129,541,o),
(55,462,o),
(56,360,cs),
(56,293,o),
(92,243,o),
(205,204,cs),
(266,183,l),
(298,174,o),
(297,159,o),
(297,150,cs),
(297,121,o),
(237,124,o),
(236,126,c),
(189,126,o),
(144,147,o),
(105,187,c),
(3,79,l),
(62,15,o),
(137,-12,o),
(232,-12,cs)
);
}
);
width = 512;
},
{
layerId = "BE19BB09-F61D-48A8-8F95-1DC5A5769CFD";
shapes = (
{
closed = 1;
nodes = (
(359,-12,o),
(450,61,o),
(448,161,cs),
(446,234,o),
(394,277,o),
(292,314,cs),
(251,329,ls),
(218,341,o),
(202,356,o),
(202,378,cs),
(202,410,o),
(226,426,o),
(273,426,cs),
(318,426,o),
(358,408,o),
(395,371,c),
(477,454,l),
(423,508,o),
(371,536,o),
(267,536,cs),
(144,536,o),
(65,471,o),
(65,367,cs),
(65,296,o),
(116,248,o),
(210,215,cs),
(262,197,ls),
(297,185,o),
(310,168,o),
(310,144,cs),
(310,107,o),
(260,98,o),
(231,98,cs),
(178,98,o),
(131,121,o),
(91,166,c),
(7,83,l),
(63,18,o),
(135,-12,o),
(226,-12,cs)
);
}
);
width = 502;
},
{
layerId = "B488FFC1-C82B-453A-B801-8B96DD071204";
shapes = (
{
closed = 1;
nodes = (
(336,-12,o),
(408,50,o),
(409,146,cs),
(409,227,o),
(348,265,o),
(279,288,cs),
(241,301,ls),
(184,320,o),
(157,348,o),
(157,380,cs),
(157,429,o),
(191,460,o),
(258,460,cs),
(318,460,o),
(362,439,o),
(391,397,c),
(444,445,l),
(399,500,o),
(339,528,o),
(264,528,cs),
(167,528,o),
(80,484,o),
(79,377,cs),
(78,300,o),
(152,255,o),
(217,232,cs),
(256,218,l),
(295,202,o),
(330,181,o),
(330,135,cs),
(330,86,o),
(294,59,o),
(223,56,c),
(162,56,o),
(111,82,o),
(70,135,c),
(13,89,l),
(64,22,o),
(132,-12,o),
(217,-12,cs)
);
}
);
width = 487;
},
{
layerId = "76CB80E2-1BCF-4FA8-BCDD-2F5266FDBF6B";
shapes = (
{
closed = 1;
nodes = (
(314,-12,o),
(378,35,o),
(378,131,cs),
(378,190,o),
(338,233,o),
(259,260,c),
(217,276,ls),
(148,301,o),
(113,337,o),
(113,383,cs),
(113,464,o),
(169,499,o),
(253,499,cs),
(333,499,o),
(372,467,o),
(403,431,c),
(419,445,l),
(380,494,o),
(325,518,o),
(252,518,cs),
(166,518,o),
(91,480,o),
(91,385,cs),
(91,327,o),
(130,284,o),
(209,257,c),
(251,241,ls),
(321,216,o),
(356,180,o),
(356,131,cs),
(356,39,o),
(298,9,o),
(210,7,c),
(135,7,o),
(79,36,o),
(41,93,c),
(23,81,l),
(70,14,o),
(129,-12,o),
(210,-12,cs)
);
}
);
width = 462;
}
);
leftKerningGroup = s2;
rightKerningGroup = s;
unicode = 115;
},
{
glyphname = t;
layers = (
{
layerId = "2ED2F014-92B4-41A8-8CFE-CD21E2CD1218";
shapes = (
{
closed = 1;
nodes = (
(297,0,l),
(325,141,l),
(234,141,l),
(282,390,l),
(385,390,l),
(414,531,l),
(312,531,l),
(340,672,l),
(171,672,l),
(153,587,ls),
(146,551,o),
(137,531,o),
(90,531,cs),
(56,531,l),
(28,390,l),
(100,390,l),
(59,179,ls),
(55,160,o),
(54,137,o),
(54,123,cs),
(54,39,o),
(111,0,o),
(212,0,cs)
);
}
);
width = 377;
},
{
layerId = "BE19BB09-F61D-48A8-8F95-1DC5A5769CFD";
shapes = (
{
closed = 1;
nodes = (
(270,0,l),
(292,112,l),
(197,112,l),
(257,413,l),
(362,413,l),
(385,525,l),
(280,525,l),
(308,667,l),
(178,667,l),
(160,578,ls),
(153,542,o),
(144,525,o),
(101,525,cs),
(65,525,l),
(43,413,l),
(117,413,l),
(63,142,ls),
(60,127,o),
(59,110,o),
(59,99,cs),
(59,34,o),
(101,0,o),
(182,0,cs)
);
}
);
width = 354;
},
{
layerId = "B488FFC1-C82B-453A-B801-8B96DD071204";
shapes = (
{
closed = 1;
nodes = (
(230,0,l),
(243,68,l),
(142,68,l),
(219,448,l),
(328,448,l),
(341,516,l),
(232,516,l),
(260,659,l),
(189,659,l),
(170,565,ls),
(163,529,o),
(155,516,o),
(118,516,cs),
(79,516,l),
(66,448,l),
(142,448,l),
(69,87,l),
(68,78,o),
(66,70,o),
(66,63,cs),
(66,26,o),
(86,0,o),
(137,0,cs)
);
}
);
width = 320;
},
{
layerId = "76CB80E2-1BCF-4FA8-BCDD-2F5266FDBF6B";
shapes = (
{
closed = 1;
nodes = (
(206,0,l),
(210,19,l),
(97,19,l),
(190,487,l),
(311,487,l),
(315,506,l),
(194,506,l),
(223,650,l),
(202,650,l),
(178,531,ls),
(175,514,o),
(169,506,o),
(150,506,cs),
(78,506,l),
(74,487,l),
(169,487,l),
(79,35,ls),
(78,30,o),
(77,26,o),
(77,19,cs),
(77,6,o),
(85,0,o),
(100,0,cs)
);
}
);
width = 302;
}
);
leftKerningGroup = t2;
rightKerningGroup = t;
unicode = 116;
},
{
glyphname = u;
layers = (
{
layerId = "2ED2F014-92B4-41A8-8CFE-CD21E2CD1218";
shapes = (
{
closed = 1;
nodes = (
(101,531,l),
(35,201,ls),
(30,173,o),
(25,152,o),
(25,119,cs),
(25,37,o),
(70,-12,o),
(143,-12,cs),
(229,-12,o),
(281,52,o),
(322,135,c),
(328,135,l),
(325,117,l),
(325,117,o),
(322,100,o),
(322,86,cs),
(322,29,o),
(373,0,o),
(425,0,cs),
(533,0,l),
(561,141,l),
(512,141,l),
(590,531,l),
(408,531,l),
(357,273,ls),
(349,232,o),
(336,210,o),
(322,189,cs),
(302,161,o),
(278,136,o),
(244,136,cs),
(226,136,o),
(214,153,o),
(214,170,cs),
(214,187,o),
(218,205,o),
(222,223,cs),
(283,531,l)
);
}
);
width = 595;
},
{
layerId = "BE19BB09-F61D-48A8-8F95-1DC5A5769CFD";
shapes = (
{
closed = 1;
nodes = (
(114,525,l),
(49,200,ls),
(44,173,o),
(40,151,o),
(40,124,cs),
(40,39,o),
(85,-12,o),
(164,-12,cs),
(244,-12,o),
(294,41,o),
(333,122,c),
(339,122,l),
(336,107,ls),
(335,102,o),
(333,88,o),
(333,77,cs),
(333,28,o),
(372,0,o),
(421,0,cs),
(514,0,l),
(536,112,l),
(477,112,l),
(560,525,l),
(420,525,l),
(366,255,ls),
(358,215,o),
(341,181,o),
(318,153,cs),
(295,125,o),
(269,105,o),
(234,105,cs),
(201,105,o),
(185,127,o),
(185,160,cs),
(185,175,o),
(188,194,o),
(192,213,cs),
(254,525,l)
);
}
);
width = 582;
},
{
layerId = "B488FFC1-C82B-453A-B801-8B96DD071204";
shapes = (
{
closed = 1;
nodes = (
(134,516,l),
(70,198,ls),
(65,173,o),
(63,150,o),
(63,131,cs),
(63,42,o),
(107,-12,o),
(195,-12,cs),
(266,-12,o),
(314,25,o),
(350,102,c),
(355,102,l),
(353,92,ls),
(350,79,o),
(349,70,o),
(349,63,cs),
(349,26,o),
(371,0,o),
(415,0,cs),
(485,0,l),
(498,68,l),
(425,68,l),
(515,516,l),
(438,516,l),
(380,228,ls),
(372,189,o),
(349,138,o),
(312,99,cs),
(285,71,o),
(255,58,o),
(219,58,cs),
(164,58,o),
(142,88,o),
(142,145,cs),
(142,157,o),
(143,178,o),
(147,198,cs),
(211,516,l)
);
}
);
width = 562;
},
{
layerId = "76CB80E2-1BCF-4FA8-BCDD-2F5266FDBF6B";
shapes = (
{
closed = 1;
nodes = (
(145,506,l),
(81,185,ls),
(77,165,o),
(74,140,o),
(74,120,cs),
(74,37,o),
(121,-12,o),
(206,-12,cs),
(289,-12,o),
(344,29,o),
(384,105,c),
(387,105,l),
(373,35,ls),
(372,30,o),
(371,26,o),
(371,19,cs),
(371,6,o),
(379,0,o),
(394,0,cs),
(472,0,l),
(476,19,l),
(391,19,l),
(488,506,l),
(467,506,l),
(405,194,ls),
(393,134,o),
(365,96,o),
(342,69,cs),
(302,22,o),
(254,7,o),
(209,7,cs),
(134,7,o),
(95,46,o),
(95,123,cs),
(95,136,o),
(98,165,o),
(102,186,cs),
(166,506,l)
);
}
);
width = 548;
}
);
leftKerningGroup = u;
rightKerningGroup = a;
unicode = 117;
},
{
glyphname = v;
layers = (
{
anchors = (
{
name = b.uni0327;
position = "{195, 0}";
},
{
name = t.uni0303;
position = "{302, 540}";
}
);
layerId = "2ED2F014-92B4-41A8-8CFE-CD21E2CD1218";
shapes = (
{
closed = 1;
nodes = (
(310,0,l),
(577,531,l),
(384,531,l),
(321,371,l),
(236,160,l),
(228,160,l),
(217,371,l),
(214,531,l),
(32,531,l),
(88,0,l)
);
}
);
width = 531;
},
{
anchors = (
{
name = b.uni0327;
position = "{195, 0}";
},
{
name = t.uni0303;
position = "{302, 540}";
}
);
layerId = "BE19BB09-F61D-48A8-8F95-1DC5A5769CFD";
shapes = (
{
closed = 1;
nodes = (
(281,0,l),
(554,525,l),
(405,525,l),
(312,327,l),
(224,125,l),
(217,125,l),
(202,327,l),
(185,525,l),
(46,525,l),
(111,0,l)
);
}
);
width = 512;
},
{
anchors = (
{
name = b.uni0327;
position = "{195, 0}";
},
{
name = t.uni0303;
position = "{302, 540}";
}
);
layerId = "B488FFC1-C82B-453A-B801-8B96DD071204";
shapes = (
{
closed = 1;
nodes = (
(237,0,l),
(519,516,l),
(437,516,l),
(299,261,l),
(206,73,l),
(201,73,l),
(180,261,l),
(142,516,l),
(67,516,l),
(146,0,l)
);
}
);
width = 484;
},
{
anchors = (
{
name = b.uni0327;
position = "{181, 0}";
},
{
name = t.uni0303;
position = "{291, 540}";
}
);
layerId = "76CB80E2-1BCF-4FA8-BCDD-2F5266FDBF6B";
shapes = (
{
closed = 1;
nodes = (
(189,0,l),
(477,506,l),
(454,506,l),
(306,243,l),
(181,24,l),
(178,24,l),
(139,243,l),
(93,506,l),
(73,506,l),
(163,0,l)
);
}
);
width = 460;
}
);
unicode = 118;
},
{
glyphname = w;
layers = (
{
anchors = (
{
name = b.uni0327;
position = "{339, 0}";
},
{
name = t.uni0303;
position = "{440, 540}";
}
);
layerId = "2ED2F014-92B4-41A8-8CFE-CD21E2CD1218";
shapes = (
{
closed = 1;
nodes = (
(87,0,l),
(270,0,l),
(333,144,l),
(407,308,l),
(413,308,l),
(430,106,l),
(439,0,l),
(622,0,l),
(865,531,l),
(685,531,l),
(613,347,l),
(560,198,l),
(554,198,l),
(543,388,l),
(535,531,l),
(368,531,l),
(290,353,l),
(234,212,l),
(228,212,l),
(227,382,l),
(221,531,l),
(39,531,l)
);
}
);
width = 825;
},
{
anchors = (
{
name = b.uni0327;
position = "{339, 0}";
},
{
name = t.uni0303;
position = "{440, 540}";
}
);
layerId = "BE19BB09-F61D-48A8-8F95-1DC5A5769CFD";
shapes = (
{
closed = 1;
nodes = (
(94,0,l),
(243,0,l),
(334,198,l),
(402,349,l),
(408,349,l),
(421,175,l),
(436,0,l),
(583,0,l),
(823,525,l),
(685,525,l),
(595,309,l),
(533,150,l),
(527,150,l),
(516,335,l),
(502,525,l),
(372,525,l),
(274,309,l),
(209,157,l),
(203,157,l),
(200,335,l),
(193,525,l),
(54,525,l)
);
}
);
width = 791;
},
{
anchors = (
{
name = b.uni0327;
position = "{339, 0}";
},
{
name = t.uni0303;
position = "{440, 540}";
}
);
layerId = "B488FFC1-C82B-453A-B801-8B96DD071204";
shapes = (
{
closed = 1;
nodes = (
(105,0,l),
(203,0,l),
(336,279,l),
(395,411,l),
(400,411,l),
(407,279,l),
(432,0,l),
(525,0,l),
(760,516,l),
(685,516,l),
(568,252,l),
(492,78,l),
(487,78,l),
(475,256,l),
(453,516,l),
(378,516,l),
(250,243,l),
(171,74,l),
(166,74,l),
(160,265,l),
(151,516,l),
(77,516,l)
);
}
);
width = 740;
},
{
anchors = (
{
name = b.uni0327;
position = "{326, 0}";
},
{
name = t.uni0303;
position = "{435, 540}";
}
);
layerId = "76CB80E2-1BCF-4FA8-BCDD-2F5266FDBF6B";
shapes = (
{
closed = 1;
nodes = (
(130,0,l),
(156,0,l),
(291,263,l),
(398,472,l),
(401,472,l),
(423,263,l),
(450,0,l),
(476,0,l),
(732,506,l),
(710,506,l),
(551,189,l),
(469,27,l),
(467,27,l),
(450,189,l),
(416,506,l),
(394,506,l),
(232,189,l),
(149,27,l),
(146,27,l),
(130,189,l),
(98,506,l),
(78,506,l)
);
}
);
width = 718;
}
);
leftKerningGroup = w2;
rightKerningGroup = w;
unicode = 119;
},
{
glyphname = x;
layers = (
{
anchors = (
{
name = b.uni0327;
position = "{205, 0}";
},
{
name = t.uni0303;
position = "{318, 540}";
}
);
layerId = "2ED2F014-92B4-41A8-8CFE-CD21E2CD1218";
shapes = (
{
closed = 1;
nodes = (
(130,0,l),
(228,147,l),
(235,147,l),
(273,0,l),
(468,0,l),
(367,247,l),
(600,531,l),
(403,531,l),
(299,371,l),
(292,371,l),
(251,531,l),
(55,531,l),
(158,279,l),
(-66,0,l)
);
}
);
width = 534;
},
{
anchors = (
{
name = b.uni0327;
position = "{205, 0}";
},
{
name = t.uni0303;
position = "{318, 540}";
}
);
layerId = "BE19BB09-F61D-48A8-8F95-1DC5A5769CFD";
shapes = (
{
closed = 1;
nodes = (
(102,0,l),
(232,172,l),
(238,172,l),
(302,0,l),
(453,0,l),
(338,252,l),
(567,525,l),
(414,525,l),
(284,350,l),
(278,350,l),
(216,525,l),
(65,525,l),
(177,274,l),
(-51,0,l)
);
}
);
width = 518;
},
{
anchors = (
{
name = b.uni0327;
position = "{205, 0}";
},
{
name = t.uni0303;
position = "{318, 540}";
}
);
layerId = "B488FFC1-C82B-453A-B801-8B96DD071204";
shapes = (
{
closed = 1;
nodes = (
(60,0,l),
(238,210,l),
(243,210,l),
(346,0,l),
(430,0,l),
(294,260,l),
(518,516,l),
(430,516,l),
(262,318,l),
(257,318,l),
(164,516,l),
(80,516,l),
(206,267,l),
(-28,0,l)
);
}
);
width = 494;
},
{
anchors = (
{
name = b.uni0327;
position = "{197, 0}";
},
{
name = t.uni0303;
position = "{307, 540}";
}
);
layerId = "76CB80E2-1BCF-4FA8-BCDD-2F5266FDBF6B";
shapes = (
{
closed = 1;
nodes = (
(23,0,l),
(230,239,l),
(233,239,l),
(359,0,l),
(381,0,l),
(249,253,l),
(473,506,l),
(446,506,l),
(240,271,l),
(237,271,l),
(110,506,l),
(88,506,l),
(221,257,l),
(-4,0,l)
);
}
);
width = 473;
}
);
unicode = 120;
},
{
glyphname = y;
layers = (
{
anchors = (
{
name = b.uni0327;
position = "{358, 0}";
},
{
name = t.uni0303;
position = "{286, 540}";
}
);
layerId = "2ED2F014-92B4-41A8-8CFE-CD21E2CD1218";
shapes = (
{
closed = 1;
nodes = (
(323,371,l),
(239,170,l),
(232,170,l),
(219,371,l),
(211,531,l),
(30,531,l),
(98,-39,l),
(12,-200,l),
(208,-200,l),
(582,531,l),
(388,531,l)
);
}
);
width = 526;
},
{
anchors = (
{
name = b.uni0327;
position = "{358, 0}";
},
{
name = t.uni0303;
position = "{286, 540}";
}
);
layerId = "BE19BB09-F61D-48A8-8F95-1DC5A5769CFD";
shapes = (
{
closed = 1;
nodes = (
(314,327,l),
(226,131,l),
(220,131,l),
(204,327,l),
(184,525,l),
(45,525,l),
(119,-30,l),
(23,-200,l),
(175,-200,l),
(557,525,l),
(408,525,l)
);
}
);
width = 509;
},
{
anchors = (
{
name = b.uni0327;
position = "{358, 0}";
},
{
name = t.uni0303;
position = "{286, 540}";
}
);
layerId = "B488FFC1-C82B-453A-B801-8B96DD071204";
shapes = (
{
closed = 1;
nodes = (
(300,261,l),
(207,73,l),
(202,73,l),
(181,261,l),
(143,516,l),
(68,516,l),
(150,-16,l),
(40,-200,l),
(126,-200,l),
(520,516,l),
(438,516,l)
);
}
);
width = 484;
},
{
anchors = (
{
name = b.uni0327;
position = "{333, 0}";
},
{
name = t.uni0303;
position = "{267, 540}";
}
);
layerId = "76CB80E2-1BCF-4FA8-BCDD-2F5266FDBF6B";
shapes = (
{
closed = 1;
nodes = (
(305,243,l),
(181,24,l),
(178,24,l),
(139,243,l),
(93,506,l),
(73,506,l),
(164,-3,l),
(48,-200,l),
(75,-200,l),
(477,506,l),
(454,506,l)
);
}
);
width = 460;
}
);
leftKerningGroup = y2;
rightKerningGroup = y;
unicode = 121;
},
{
glyphname = z;
layers = (
{
layerId = "2ED2F014-92B4-41A8-8CFE-CD21E2CD1218";
shapes = (
{
closed = 1;
nodes = (
(445,0,l),
(473,141,l),
(229,141,l),
(512,388,l),
(540,531,l),
(98,531,l),
(70,390,l),
(294,390,l),
(13,143,l),
(-15,0,l)
);
}
);
width = 521;
},
{
layerId = "BE19BB09-F61D-48A8-8F95-1DC5A5769CFD";
shapes = (
{
closed = 1;
nodes = (
(414,0,l),
(436,112,l),
(178,112,l),
(485,413,l),
(507,525,l),
(98,525,l),
(76,413,l),
(317,413,l),
(11,112,l),
(-11,0,l)
);
}
);
width = 492;
},
{
layerId = "B488FFC1-C82B-453A-B801-8B96DD071204";
shapes = (
{
closed = 1;
nodes = (
(368,0,l),
(381,68,l),
(101,68,l),
(444,450,l),
(457,516,l),
(98,516,l),
(85,448,l),
(351,448,l),
(8,66,l),
(-5,0,l)
);
}
);
width = 448;
},
{
layerId = "76CB80E2-1BCF-4FA8-BCDD-2F5266FDBF6B";
shapes = (
{
closed = 1;
nodes = (
(346,0,l),
(350,19,l),
(28,19,l),
(426,486,l),
(430,506,l),
(96,506,l),
(92,487,l),
(402,487,l),
(3,20,l),
(-1,0,l)
);
}
);
width = 430;
}
);
leftKerningGroup = z2;
rightKerningGroup = z;
unicode = 122;
},
{
glyphname = A;
layers = (
{
anchors = (
{
name = b.uni0327;
position = "{283, 0}";
},
{
name = b.uni0328;
position = "{588, 0}";
},
{
name = t.uni0303;
position = "{411, 698}";
}
);
layerId = "2ED2F014-92B4-41A8-8CFE-CD21E2CD1218";
shapes = (
{
closed = 1;
nodes = (
(615,0,l),
(546,698,l),
(309,698,l),
(-40,0,l),
(161,0,l),
(225,146,l),
(416,146,l),
(426,0,l)
);
},
{
closed = 1;
nodes = (
(405,300,l),
(296,300,l),
(330,396,l),
(389,531,l),
(399,531,l),
(406,394,l)
);
}
);
width = 681;
},
{
anchors = (
{
name = b.uni0327;
position = "{283, 0}";
},
{
name = b.uni0328;
position = "{588, 0}";
},
{
name = t.uni0303;
position = "{411, 698}";
}
);
layerId = "BE19BB09-F61D-48A8-8F95-1DC5A5769CFD";
shapes = (
{
closed = 1;
nodes = (
(588,0,l),
(509,698,l),
(324,698,l),
(-35,0,l),
(120,0,l),
(202,170,l),
(425,170,l),
(441,0,l)
);
},
{
closed = 1;
nodes = (
(415,291,l),
(259,291,l),
(333,451,l),
(386,567,l),
(394,567,l),
(403,451,l)
);
}
);
width = 658;
},
{
anchors = (
{
name = b.uni0327;
position = "{283, 0}";
},
{
name = b.uni0328;
position = "{588, 0}";
},
{
name = t.uni0303;
position = "{411, 698}";
}
);
layerId = "B488FFC1-C82B-453A-B801-8B96DD071204";
shapes = (
{
closed = 1;
nodes = (
(547,0,l),
(453,698,l),
(346,698,l),
(-27,0,l),
(59,0,l),
(167,206,l),
(438,206,l),
(464,0,l)
);
},
{
closed = 1;
nodes = (
(430,278,l),
(204,278,l),
(337,534,l),
(382,621,l),
(387,621,l),
(398,536,l)
);
}
);
width = 623;
},
{
anchors = (
{
name = b.uni0327;
position = "{273, 0}";
},
{
name = b.uni0328;
position = "{560, 0}";
},
{
name = t.uni0303;
position = "{385, 698}";
}
);
layerId = "76CB80E2-1BCF-4FA8-BCDD-2F5266FDBF6B";
shapes = (
{
closed = 1;
nodes = (
(519,0,l),
(384,698,l),
(354,698,l),
(-12,0,l),
(12,0,l),
(134,234,l),
(452,234,l),
(497,0,l)
);
},
{
closed = 1;
nodes = (
(448,253,l),
(144,253,l),
(291,534,l),
(364,673,l),
(367,673,l),
(394,534,l)
);
}
);
width = 594;
}
);
leftKerningGroup = A2;
rightKerningGroup = A;
unicode = 65;
},
{
glyphname = B;
layers = (
{
layerId = "2ED2F014-92B4-41A8-8CFE-CD21E2CD1218";
shapes = (
{
closed = 1;
nodes = (
(11,0,l),
(378,0,ls),
(498,0,o),
(569,34,o),
(603,97,cs),
(619,128,o),
(628,167,o),
(628,211,cs),
(628,272,o),
(601,330,o),
(522,354,c),
(523,359,l),
(584,377,o),
(622,417,o),
(640,471,c),
(650,497,o),
(655,527,o),
(655,559,cs),
(655,611,o),
(637,646,o),
(602,666,cs),
(566,687,o),
(526,698,o),
(476,698,cs),
(151,698,l)
);
},
{
closed = 1;
nodes = (
(232,159,l),
(254,269,l),
(412,269,ls),
(422,269,o),
(428,267,o),
(432,263,c),
(435,258,o),
(436,253,o),
(436,249,cs),
(436,240,o),
(434,227,o),
(427,192,cs),
(422,167,o),
(411,159,o),
(379,159,cs)
);
},
{
closed = 1;
nodes = (
(285,421,l),
(309,539,l),
(432,539,ls),
(454,539,o),
(462,527,o),
(462,512,cs),
(462,503,o),
(459,495,o),
(452,457,cs),
(446,428,o),
(435,421,o),
(407,421,cs)
);
}
);
width = 667;
},
{
layerId = "BE19BB09-F61D-48A8-8F95-1DC5A5769CFD";
shapes = (
{
closed = 1;
nodes = (
(22,0,l),
(360,0,ls),
(467,0,o),
(538,39,o),
(574,106,cs),
(592,139,o),
(601,178,o),
(601,222,cs),
(601,287,o),
(570,337,o),
(497,357,c),
(498,362,l),
(559,379,o),
(599,418,o),
(619,470,cs),
(629,496,o),
(634,524,o),
(634,555,cs),
(634,604,o),
(618,640,o),
(585,663,cs),
(552,686,o),
(511,698,o),
(460,698,cs),
(162,698,l)
);
},
{
closed = 1;
nodes = (
(193,124,l),
(226,291,l),
(397,291,ls),
(416,291,o),
(430,287,o),
(439,279,cs),
(448,270,o),
(452,259,o),
(452,246,cs),
(452,237,o),
(450,224,o),
(443,189,cs),
(434,144,o),
(407,124,o),
(360,124,cs)
);
},
{
closed = 1;
nodes = (
(250,410,l),
(283,574,l),
(429,574,ls),
(466,574,o),
(483,555,o),
(483,527,cs),
(483,518,o),
(481,507,o),
(474,472,cs),
(465,427,o),
(438,410,o),
(391,410,cs)
);
}
);
width = 651;
},
{
layerId = "B488FFC1-C82B-453A-B801-8B96DD071204";
shapes = (
{
closed = 1;
nodes = (
(39,0,l),
(333,0,ls),
(420,0,o),
(491,47,o),
(531,119,cs),
(551,155,o),
(561,195,o),
(561,238,cs),
(561,310,o),
(523,347,o),
(460,362,c),
(461,367,l),
(522,382,o),
(565,419,o),
(587,469,cs),
(598,494,o),
(603,520,o),
(603,549,cs),
(603,594,o),
(589,631,o),
(560,658,cs),
(531,685,o),
(489,698,o),
(436,698,cs),
(179,698,l)
);
},
{
closed = 1;
nodes = (
(134,72,l),
(184,324,l),
(374,324,ls),
(407,324,o),
(433,317,o),
(450,303,cs),
(467,288,o),
(476,268,o),
(476,242,cs),
(476,233,o),
(474,219,o),
(467,184,cs),
(452,109,o),
(401,72,o),
(332,72,cs)
);
},
{
closed = 1;
nodes = (
(198,394,l),
(244,626,l),
(425,626,ls),
(484,626,o),
(514,597,o),
(514,549,cs),
(514,540,o),
(514,525,o),
(507,494,c),
(494,425,o),
(442,394,o),
(367,394,cs)
);
}
);
width = 627;
},
{
layerId = "76CB80E2-1BCF-4FA8-BCDD-2F5266FDBF6B";
shapes = (
{
closed = 1;
nodes = (
(55,0,l),
(321,0,ls),
(408,0,o),
(472,37,o),
(506,105,cs),
(523,139,o),
(531,180,o),
(531,228,cs),
(531,295,o),
(496,352,o),
(429,367,c),
(429,370,l),
(500,385,o),
(537,427,o),
(553,480,c),
(560,507,o),
(564,534,o),
(564,561,cs),
(564,605,o),
(551,639,o),
(525,663,cs),
(499,686,o),
(462,698,o),
(414,698,cs),
(193,698,l)
);
},
{
closed = 1;
nodes = (
(81,20,l),
(148,358,l),
(377,358,ls),
(423,358,o),
(457,345,o),
(478,320,cs),
(499,294,o),
(509,263,o),
(509,228,cs),
(509,217,o),
(508,198,o),
(500,159,cs),
(484,79,o),
(426,20,o),
(323,20,cs)
);
},
{
closed = 1;
nodes = (
(152,378,l),
(211,678,l),
(413,678,ls),
(505,678,o),
(542,633,o),
(542,562,cs),
(542,551,o),
(541,538,o),
(533,495,cs),
(520,422,o),
(462,378,o),
(367,378,cs)
);
}
);
width = 606;
}
);
unicode = 66;
},
{
glyphname = C;
layers = (
{
anchors = (
{
name = b.uni0327;
position = "{290, 0}";
},
{
name = t.uni0303;
position = "{419, 698}";
}
);
layerId = "2ED2F014-92B4-41A8-8CFE-CD21E2CD1218";
shapes = (
{
closed = 1;
nodes = (
(436,-12,o),
(557,48,o),
(618,172,c),
(462,241,l),
(452,217,o),
(436,196,o),
(416,179,c),
(395,163,o),
(367,154,o),
(335,154,cs),
(303,154,o),
(283,161,o),
(270,175,c),
(257,187,o),
(249,211,o),
(249,246,cs),
(249,254,o),
(250,269,o),
(254,285,c),
(275,392,l),
(289,454,o),
(310,499,o),
(348,524,c),
(367,538,o),
(390,544,o),
(418,544,cs),
(451,544,o),
(473,535,o),
(484,519,cs),
(496,500,o),
(504,484,o),
(509,465,c),
(675,533,l),
(642,639,o),
(562,710,o),
(431,710,cs),
(340,710,o),
(258,675,o),
(193,613,cs),
(129,550,o),
(83,463,o),
(65,361,c),
(59,335,o),
(58,306,o),
(58,276,cs),
(58,148,o),
(103,63,o),
(181,20,cs),
(219,-1,o),
(265,-12,o),
(317,-12,cs)
);
}
);
width = 657;
},
{
anchors = (
{
name = b.uni0327;
position = "{290, 0}";
},
{
name = t.uni0303;
position = "{419, 698}";
}
);
layerId = "BE19BB09-F61D-48A8-8F95-1DC5A5769CFD";
shapes = (
{
closed = 1;
nodes = (
(427,-12,o),
(532,45,o),
(593,166,c),
(472,221,l),
(457,190,o),
(437,165,o),
(414,146,cs),
(390,127,o),
(358,117,o),
(319,117,cs),
(280,117,o),
(252,128,o),
(233,150,cs),
(214,171,o),
(204,203,o),
(204,246,cs),
(204,259,o),
(205,276,o),
(209,296,cs),
(231,406,ls),
(246,477,o),
(276,530,o),
(323,559,cs),
(346,574,o),
(373,581,o),
(404,581,cs),
(441,581,o),
(468,572,o),
(485,554,cs),
(502,535,o),
(514,513,o),
(522,486,c),
(651,540,l),
(618,647,o),
(539,710,o),
(415,710,cs),
(328,710,o),
(251,676,o),
(190,617,cs),
(129,557,o),
(86,474,o),
(67,378,cs),
(60,345,o),
(57,309,o),
(57,272,cs),
(57,147,o),
(101,63,o),
(176,20,cs),
(213,-1,o),
(257,-12,o),
(306,-12,cs)
);
}
);
width = 635;
},
{
anchors = (
{
name = b.uni0327;
position = "{290, 0}";
},
{
name = t.uni0303;
position = "{419, 698}";
}
);
layerId = "B488FFC1-C82B-453A-B801-8B96DD071204";
shapes = (
{
closed = 1;
nodes = (
(414,-12,o),
(494,41,o),
(555,157,c),
(487,191,l),
(464,150,o),
(439,119,o),
(411,96,cs),
(382,73,o),
(344,61,o),
(295,61,cs),
(245,61,o),
(206,78,o),
(178,113,cs),
(150,147,o),
(136,191,o),
(136,246,cs),
(136,266,o),
(137,287,o),
(142,312,cs),
(165,427,ls),
(182,512,o),
(225,576,o),
(285,611,cs),
(315,628,o),
(348,637,o),
(383,637,cs),
(426,637,o),
(461,627,o),
(486,607,cs),
(511,587,o),
(529,557,o),
(542,518,c),
(615,551,l),
(582,659,o),
(504,710,o),
(391,710,cs),
(310,710,o),
(240,678,o),
(185,623,cs),
(129,567,o),
(90,491,o),
(70,403,cs),
(61,360,o),
(55,314,o),
(55,266,cs),
(55,146,o),
(98,63,o),
(169,20,cs),
(204,-1,o),
(245,-12,o),
(290,-12,cs)
);
}
);
width = 602;
},
{
anchors = (
{
name = b.uni0327;
position = "{301, 0}";
},
{
name = t.uni0303;
position = "{425, 698}";
}
);
layerId = "76CB80E2-1BCF-4FA8-BCDD-2F5266FDBF6B";
shapes = (
{
closed = 1;
nodes = (
(388,-12,o),
(458,32,o),
(519,141,c),
(500,151,l),
(473,103,o),
(444,67,o),
(411,44,cs),
(378,20,o),
(338,8,o),
(291,8,cs),
(226,8,o),
(177,27,o),
(143,66,c),
(108,104,o),
(91,155,o),
(91,220,cs),
(91,248,o),
(93,288,o),
(101,329,cs),
(112,384,ls),
(137,508,o),
(192,603,o),
(269,653,cs),
(307,678,o),
(350,690,o),
(397,690,cs),
(449,690,o),
(488,679,o),
(514,656,cs),
(539,633,o),
(557,602,o),
(568,564,c),
(589,569,l),
(568,656,o),
(510,710,o),
(398,710,cs),
(305,710,o),
(233,667,o),
(182,599,cs),
(131,531,o),
(98,445,o),
(82,358,cs),
(73,310,o),
(69,263,o),
(69,220,cs),
(69,120,o),
(108,50,o),
(175,15,cs),
(208,-3,o),
(247,-12,o),
(291,-12,cs)
);
}
);
width = 595;
}
);
leftKerningGroup = C2;
rightKerningGroup = C;
unicode = 67;
},
{
glyphname = D;
layers = (
{
layerId = "2ED2F014-92B4-41A8-8CFE-CD21E2CD1218";
shapes = (
{
closed = 1;
nodes = (
(11,0,l),
(297,0,ls),
(397,0,o),
(478,28,o),
(540,82,cs),
(603,136,o),
(642,212,o),
(662,309,cs),
(671,350,o),
(675,395,o),
(675,444,cs),
(675,555,o),
(626,630,o),
(540,670,c),
(497,688,o),
(446,698,o),
(387,698,cs),
(151,698,l)
);
},
{
closed = 1;
nodes = (
(232,165,l),
(307,533,l),
(405,533,ls),
(454,533,o),
(486,516,o),
(486,450,cs),
(486,443,o),
(484,416,o),
(478,387,cs),
(460,301,l),
(448,236,o),
(418,198,o),
(380,180,cs),
(360,170,o),
(339,165,o),
(315,165,cs)
);
}
);
width = 702;
},
{
layerId = "BE19BB09-F61D-48A8-8F95-1DC5A5769CFD";
shapes = (
{
closed = 1;
nodes = (
(22,0,l),
(288,0,ls),
(385,0,o),
(464,31,o),
(524,87,cs),
(584,143,o),
(623,220,o),
(642,312,cs),
(650,351,o),
(654,393,o),
(654,437,cs),
(654,552,o),
(609,629,o),
(529,669,cs),
(489,688,o),
(441,698,o),
(386,698,cs),
(162,698,l)
);
},
{
closed = 1;
nodes = (
(193,128,l),
(282,570,l),
(395,570,ls),
(463,570,o),
(507,536,o),
(507,452,cs),
(507,440,o),
(505,415,o),
(500,390,cs),
(481,296,ls),
(466,220,o),
(430,171,o),
(382,147,cs),
(357,134,o),
(330,128,o),
(300,128,cs)
);
}
);
width = 682;
},
{
layerId = "B488FFC1-C82B-453A-B801-8B96DD071204";
shapes = (
{
closed = 1;
nodes = (
(39,0,l),
(275,0,ls),
(367,0,o),
(443,35,o),
(500,94,cs),
(556,153,o),
(595,232,o),
(612,317,cs),
(619,353,o),
(623,390,o),
(623,427,cs),
(623,547,o),
(584,627,o),
(513,668,cs),
(477,688,o),
(434,698,o),
(384,698,cs),
(179,698,l)
);
},
{
closed = 1;
nodes = (
(135,72,l),
(245,626,l),
(380,626,ls),
(477,626,o),
(539,566,o),
(539,455,cs),
(539,436,o),
(537,414,o),
(533,394,cs),
(512,289,ls),
(493,196,o),
(448,130,o),
(385,97,cs),
(353,80,o),
(317,72,o),
(277,72,cs)
);
}
);
width = 652;
},
{
layerId = "76CB80E2-1BCF-4FA8-BCDD-2F5266FDBF6B";
shapes = (
{
closed = 1;
nodes = (
(55,0,l),
(282,0,ls),
(373,0,o),
(443,37,o),
(495,98,cs),
(546,159,o),
(580,240,o),
(597,328,cs),
(606,375,o),
(610,421,o),
(610,468,cs),
(610,564,o),
(574,634,o),
(506,671,cs),
(471,689,o),
(429,698,o),
(378,698,cs),
(193,698,l)
);
},
{
closed = 1;
nodes = (
(81,20,l),
(211,678,l),
(375,678,ls),
(519,678,o),
(588,599,o),
(588,468,cs),
(588,440,o),
(586,401,o),
(578,358,cs),
(567,303,ls),
(547,202,o),
(496,111,o),
(419,59,cs),
(380,33,o),
(335,20,o),
(282,20,cs)
);
}
);
width = 648;
}
);
rightKerningGroup = D;
unicode = 68;
},
{
glyphname = E;
layers = (
{
anchors = (
{
name = b.uni0327;
position = "{263, 0}";
},
{
name = b.uni0328;
position = "{481, 0}";
},
{
name = t.uni0303;
position = "{386, 698}";
}
);
layerId = "2ED2F014-92B4-41A8-8CFE-CD21E2CD1218";
shapes = (
{
closed = 1;
nodes = (
(490,0,l),
(524,165,l),
(232,165,l),
(252,270,l),
(501,270,l),
(535,435,l),
(286,435,l),
(306,533,l),
(592,533,l),
(625,698,l),
(151,698,l),
(11,0,l)
);
}
);
width = 587;
},
{
anchors = (
{
name = b.uni0327;
position = "{263, 0}";
},
{
name = b.uni0328;
position = "{481, 0}";
},
{
name = t.uni0303;
position = "{386, 698}";
}
);
layerId = "BE19BB09-F61D-48A8-8F95-1DC5A5769CFD";
shapes = (
{
closed = 1;
nodes = (
(481,0,l),
(507,128,l),
(193,128,l),
(225,289,l),
(493,289,l),
(519,417,l),
(251,417,l),
(282,570,l),
(585,570,l),
(611,698,l),
(162,698,l),
(22,0,l)
);
}
);
width = 578;
},
{
anchors = (
{
name = b.uni0327;
position = "{263, 0}";
},
{
name = b.uni0328;
position = "{481, 0}";
},
{
name = t.uni0303;
position = "{386, 698}";
}
);
layerId = "B488FFC1-C82B-453A-B801-8B96DD071204";
shapes = (
{
closed = 1;
nodes = (
(467,0,l),
(481,72,l),
(135,72,l),
(184,318,l),
(481,318,l),
(495,390,l),
(199,390,l),
(246,626,l),
(575,626,l),
(590,698,l),
(179,698,l),
(39,0,l)
);
}
);
width = 565;
},
{
anchors = (
{
name = b.uni0327;
position = "{258, 0}";
},
{
name = b.uni0328;
position = "{446, 0}";
},
{
name = t.uni0303;
position = "{390, 698}";
}
);
layerId = "76CB80E2-1BCF-4FA8-BCDD-2F5266FDBF6B";
shapes = (
{
closed = 1;
nodes = (
(432,0,l),
(436,20,l),
(80,20,l),
(145,344,l),
(489,344,l),
(493,364,l),
(149,364,l),
(212,678,l),
(568,678,l),
(572,698,l),
(194,698,l),
(54,0,l)
);
}
);
width = 553;
}
);
rightKerningGroup = E;
unicode = 69;
},
{
glyphname = F;
layers = (
{
layerId = "2ED2F014-92B4-41A8-8CFE-CD21E2CD1218";
shapes = (
{
closed = 1;
nodes = (
(198,0,l),
(251,270,l),
(484,270,l),
(518,435,l),
(284,435,l),
(304,533,l),
(579,533,l),
(612,698,l),
(151,698,l),
(11,0,l)
);
}
);
width = 567;
},
{
layerId = "BE19BB09-F61D-48A8-8F95-1DC5A5769CFD";
shapes = (
{
closed = 1;
nodes = (
(167,0,l),
(224,289,l),
(481,289,l),
(507,417,l),
(250,417,l),
(281,570,l),
(573,570,l),
(599,698,l),
(162,698,l),
(22,0,l)
);
}
);
width = 557;
},
{
layerId = "B488FFC1-C82B-453A-B801-8B96DD071204";
shapes = (
{
closed = 1;
nodes = (
(120,0,l),
(184,318,l),
(477,318,l),
(491,390,l),
(199,390,l),
(246,626,l),
(564,626,l),
(579,698,l),
(179,698,l),
(39,0,l)
);
}
);
width = 542;
},
{
layerId = "76CB80E2-1BCF-4FA8-BCDD-2F5266FDBF6B";
shapes = (
{
closed = 1;
nodes = (
(76,0,l),
(145,344,l),
(479,344,l),
(483,364,l),
(149,364,l),
(212,678,l),
(560,678,l),
(564,698,l),
(194,698,l),
(54,0,l)
);
}
);
width = 528;
}
);
unicode = 70;
},
{
glyphname = G;
layers = (
{
anchors = (
{
name = b.uni0327;
position = "{-110, 0}";
},
{
name = t.uni0303;
position = "{19, 698}";
}
);
layerId = "2ED2F014-92B4-41A8-8CFE-CD21E2CD1218";
shapes = (
{
closed = 1;
nodes = (
(516,-12,o),
(606,125,o),
(636,281,cs),
(659,402,l),
(357,402,l),
(328,261,l),
(458,261,l),
(455,244,ls),
(441,167,o),
(379,129,o),
(317,129,cs),
(255,129,o),
(216,165,o),
(216,222,cs),
(216,230,o),
(217,244,o),
(220,261,cs),
(241,368,ls),
(265,492,o),
(322,568,o),
(392,568,cs),
(492,568,o),
(510,508,o),
(513,487,c),
(660,548,l),
(652,600,o),
(572,710,o),
(400,710,cs),
(201,710,o),
(68,546,o),
(34,361,cs),
(29,335,o),
(27,306,o),
(27,276,cs),
(27,105,o),
(112,-12,o),
(286,-12,cs)
);
}
);
width = 675;
},
{
anchors = (
{
name = b.uni0327;
position = "{290, 0}";
},
{
name = t.uni0303;
position = "{419, 698}";
}
);
layerId = "BE19BB09-F61D-48A8-8F95-1DC5A5769CFD";
shapes = (
{
closed = 1;
nodes = (
(471,-12,o),
(582,88,o),
(616,266,cs),
(639,385,l),
(349,385,l),
(326,270,l),
(480,270,l),
(473,235,ls),
(455,146,o),
(387,102,o),
(310,102,cs),
(228,102,o),
(195,154,o),
(195,231,cs),
(195,244,o),
(196,261,o),
(200,281,cs),
(222,391,ls),
(247,518,o),
(309,595,o),
(387,595,cs),
(483,595,o),
(516,539,o),
(524,496,c),
(642,549,l),
(624,623,o),
(543,710,o),
(397,710,cs),
(207,710,o),
(83,552,o),
(49,378,cs),
(42,345,o),
(39,309,o),
(39,272,cs),
(39,109,o),
(120,-12,o),
(288,-12,cs)
);
}
);
width = 654;
},
{
anchors = (
{
name = b.uni0327;
position = "{890, 0}";
},
{
name = t.uni0303;
position = "{1019, 698}";
}
);
layerId = "B488FFC1-C82B-453A-B801-8B96DD071204";
shapes = (
{
closed = 1;
nodes = (
(404,-12,o),
(542,32,o),
(587,243,cs),
(610,359,l),
(338,359,l),
(323,283,l),
(514,283,l),
(501,221,ls),
(480,114,o),
(400,62,o),
(300,62,cs),
(187,62,o),
(133,139,o),
(133,245,cs),
(133,265,o),
(134,286,o),
(139,311,cs),
(162,426,ls),
(184,536,o),
(260,636,o),
(380,636,cs),
(470,636,o),
(525,586,o),
(541,510,c),
(615,551,l),
(582,658,o),
(500,710,o),
(393,710,cs),
(217,710,o),
(108,561,o),
(72,403,c),
(63,360,o),
(57,314,o),
(57,266,cs),
(57,115,o),
(132,-12,o),
(292,-12,cs)
);
}
);
width = 622;
},
{
anchors = (
{
name = b.uni0327;
position = "{301, 0}";
},
{
name = t.uni0303;
position = "{425, 698}";
}
);
layerId = "76CB80E2-1BCF-4FA8-BCDD-2F5266FDBF6B";
shapes = (
{
closed = 1;
nodes = (
(438,-12,o),
(533,67,o),
(560,200,cs),
(587,332,l),
(337,332,l),
(333,311,l),
(560,311,l),
(537,201,l),
(514,80,o),
(430,9,o),
(306,9,cs),
(174,9,o),
(105,93,o),
(105,219,cs),
(105,247,o),
(107,287,o),
(115,328,cs),
(126,383,ls),
(156,530,o),
(243,689,o),
(411,689,cs),
(526,689,o),
(581,640,o),
(601,559,c),
(622,565,l),
(600,653,o),
(536,710,o),
(413,710,cs),
(221,710,o),
(127,522,o),
(97,358,cs),
(88,310,o),
(84,263,o),
(84,220,cs),
(84,78,o),
(166,-12,o),
(306,-12,cs)
);
}
);
width = 629;
}
);
leftKerningGroup = C2;
rightKerningGroup = G;
unicode = 71;
},
{
glyphname = H;
layers = (
{
anchors = (
{
name = b.uni0327;
position = "{297, 0}";
},
{
name = t.uni0303;
position = "{425, 698}";
}
);
layerId = "2ED2F014-92B4-41A8-8CFE-CD21E2CD1218";
shapes = (
{
closed = 1;
nodes = (
(405,0,l),
(593,0,l),
(733,698,l),
(545,698,l),
(493,435,l),
(286,435,l),
(338,698,l),
(151,698,l),
(11,0,l),
(198,0,l),
(252,270,l),
(460,270,l)
);
}
);
width = 711;
},
{
anchors = (
{
name = b.uni0327;
position = "{297, 0}";
},
{
name = t.uni0303;
position = "{425, 698}";
}
);
layerId = "BE19BB09-F61D-48A8-8F95-1DC5A5769CFD";
shapes = (
{
closed = 1;
nodes = (
(427,0,l),
(572,0,l),
(712,698,l),
(567,698,l),
(511,417,l),
(251,417,l),
(307,698,l),
(162,698,l),
(22,0,l),
(167,0,l),
(225,289,l),
(485,289,l)
);
}
);
width = 700;
},
{
anchors = (
{
name = b.uni0327;
position = "{297, 0}";
},
{
name = t.uni0303;
position = "{425, 698}";
}
);
layerId = "B488FFC1-C82B-453A-B801-8B96DD071204";
shapes = (
{
closed = 1;
nodes = (
(460,0,l),
(541,0,l),
(681,698,l),
(600,698,l),
(538,390,l),
(199,390,l),
(260,698,l),
(179,698,l),
(39,0,l),
(120,0,l),
(184,318,l),
(523,318,l)
);
}
);
width = 684;
},
{
anchors = (
{
name = b.uni0327;
position = "{296, 0}";
},
{
name = t.uni0303;
position = "{424, 698}";
}
);
layerId = "76CB80E2-1BCF-4FA8-BCDD-2F5266FDBF6B";
shapes = (
{
closed = 1;
nodes = (
(502,0,l),
(524,0,l),
(664,698,l),
(642,698,l),
(575,364,l),
(149,364,l),
(216,698,l),
(194,698,l),
(54,0,l),
(76,0,l),
(145,344,l),
(571,344,l)
);
}
);
width = 680;
}
);
unicode = 72;
},
{
glyphname = I;
layers = (
{
layerId = "2ED2F014-92B4-41A8-8CFE-CD21E2CD1218";
shapes = (
{
closed = 1;
nodes = (
(190,0,l),
(333,698,l),
(155,698,l),
(14,0,l)
);
}
);
width = 313;
},
{
layerId = "BE19BB09-F61D-48A8-8F95-1DC5A5769CFD";
shapes = (
{
closed = 1;
nodes = (
(162,0,l),
(303,698,l),
(164,698,l),
(24,0,l)
);
}
);
width = 292;
},
{
layerId = "B488FFC1-C82B-453A-B801-8B96DD071204";
shapes = (
{
closed = 1;
nodes = (
(120,0,l),
(258,698,l),
(177,698,l),
(39,0,l)
);
}
);
width = 261;
},
{
layerId = "76CB80E2-1BCF-4FA8-BCDD-2F5266FDBF6B";
shapes = (
{
closed = 1;
nodes = (
(54,0,l),
(76,0,l),
(216,698,l),
(194,698,l)
);
}
);
width = 232;
}
);
leftKerningGroup = I2;
rightKerningGroup = I;
unicode = 73;
},
{
glyphname = J;
layers = (
{
layerId = "2ED2F014-92B4-41A8-8CFE-CD21E2CD1218";
shapes = (
{
closed = 1;
nodes = (
(398,698,l),
(300,210,l),
(289,162,o),
(259,151,o),
(242,151,cs),
(203,151,o),
(195,182,o),
(189,235,c),
(6,198,l),
(16,127,o),
(48,60,o),
(114,20,cs),
(148,-1,o),
(191,-10,o),
(244,-10,cs),
(383,-10,o),
(460,74,o),
(484,193,cs),
(585,698,l)
);
}
);
width = 561;
},
{
layerId = "BE19BB09-F61D-48A8-8F95-1DC5A5769CFD";
shapes = (
{
closed = 1;
nodes = (
(404,698,l),
(305,205,ls),
(292,141,o),
(256,115,o),
(215,115,cs),
(166,115,o),
(149,152,o),
(144,208,c),
(5,180,l),
(12,109,o),
(43,49,o),
(103,15,cs),
(133,-3,o),
(170,-11,o),
(215,-11,cs),
(346,-11,o),
(423,69,o),
(447,190,cs),
(549,698,l)
);
}
);
width = 536;
},
{
layerId = "B488FFC1-C82B-453A-B801-8B96DD071204";
shapes = (
{
closed = 1;
nodes = (
(413,698,l),
(313,198,ls),
(296,109,o),
(252,61,o),
(175,61,cs),
(111,61,o),
(80,107,o),
(77,168,c),
(3,153,l),
(6,82,o),
(36,32,o),
(86,7,cs),
(111,-6,o),
(139,-12,o),
(171,-12,cs),
(290,-12,o),
(367,61,o),
(392,186,cs),
(495,698,l)
);
}
);
width = 498;
},
{
layerId = "76CB80E2-1BCF-4FA8-BCDD-2F5266FDBF6B";
shapes = (
{
closed = 1;
nodes = (
(424,698,l),
(322,184,ls),
(301,72,o),
(237,8,o),
(142,8,cs),
(65,8,o),
(14,46,o),
(6,123,c),
(-14,118,l),
(-10,69,o),
(15,28,o),
(60,5,cs),
(83,-6,o),
(110,-12,o),
(142,-12,cs),
(246,-12,o),
(319,57,o),
(343,178,cs),
(446,698,l)
);
}
);
width = 455;
}
);
leftKerningGroup = J2;
rightKerningGroup = J;
unicode = 74;
},
{
glyphname = K;
layers = (
{
anchors = (
{
name = b.uni0327;
position = "{297, 0}";
},
{
name = t.uni0303;
position = "{421, 698}";
}
);
layerId = "2ED2F014-92B4-41A8-8CFE-CD21E2CD1218";
shapes = (
{
closed = 1;
nodes = (
(419,0,l),
(627,0,l),
(487,400,l),
(758,698,l),
(534,698,l),
(386,520,l),
(282,379,l),
(274,379,l),
(301,512,l),
(338,698,l),
(151,698,l),
(11,0,l),
(198,0,l),
(228,148,l),
(338,270,l)
);
}
);
width = 685;
},
{
anchors = (
{
name = b.uni0327;
position = "{297, 0}";
},
{
name = t.uni0303;
position = "{421, 698}";
}
);
layerId = "BE19BB09-F61D-48A8-8F95-1DC5A5769CFD";
shapes = (
{
closed = 1;
nodes = (
(436,0,l),
(596,0,l),
(433,398,l),
(721,698,l),
(545,698,l),
(357,495,l),
(247,364,l),
(240,364,l),
(266,494,l),
(307,698,l),
(162,698,l),
(22,0,l),
(167,0,l),
(203,179,l),
(319,299,l)
);
}
);
width = 657;
},
{
anchors = (
{
name = b.uni0327;
position = "{297, 0}";
},
{
name = t.uni0303;
position = "{421, 698}";
}
);
layerId = "B488FFC1-C82B-453A-B801-8B96DD071204";
shapes = (
{
closed = 1;
nodes = (
(461,0,l),
(549,0,l),
(352,395,l),
(665,698,l),
(562,698,l),
(313,457,l),
(194,342,l),
(189,342,l),
(214,467,l),
(260,698,l),
(179,698,l),
(39,0,l),
(120,0,l),
(165,226,l),
(290,343,l)
);
}
);
width = 615;
},
{
anchors = (
{
name = b.uni0327;
position = "{301, 0}";
},
{
name = t.uni0303;
position = "{394, 698}";
}
);
layerId = "76CB80E2-1BCF-4FA8-BCDD-2F5266FDBF6B";
shapes = (
{
closed = 1;
nodes = (
(474,0,l),
(497,0,l),
(307,402,l),
(633,698,l),
(604,698,l),
(300,423,l),
(134,271,l),
(131,271,l),
(164,437,l),
(216,698,l),
(194,698,l),
(54,0,l),
(76,0,l),
(125,237,l),
(290,388,l)
);
}
);
width = 564;
}
);
rightKerningGroup = K;
unicode = 75;
},
{
glyphname = L;
layers = (
{
anchors = (
{
name = b.uni0327;
position = "{222, 0}";
},
{
name = t.uni0303;
position = "{234, 698}";
},
{
name = t.uni0315;
position = "{379, 740}";
}
);
layerId = "2ED2F014-92B4-41A8-8CFE-CD21E2CD1218";
shapes = (
{
closed = 1;
nodes = (
(433,0,l),
(467,165,l),
(232,165,l),
(338,698,l),
(151,698,l),
(11,0,l)
);
}
);
width = 524;
},
{
anchors = (
{
name = b.uni0327;
position = "{222, 0}";
},
{
name = t.uni0303;
position = "{234, 698}";
},
{
name = t.uni0315;
position = "{379, 740}";
}
);
layerId = "BE19BB09-F61D-48A8-8F95-1DC5A5769CFD";
shapes = (
{
closed = 1;
nodes = (
(423,0,l),
(449,128,l),
(193,128,l),
(307,698,l),
(162,698,l),
(22,0,l)
);
}
);
width = 510;
},
{
anchors = (
{
name = b.uni0327;
position = "{222, 0}";
},
{
name = t.uni0303;
position = "{234, 698}";
},
{
name = t.uni0315;
position = "{379, 740}";
}
);
layerId = "B488FFC1-C82B-453A-B801-8B96DD071204";
shapes = (
{
closed = 1;
nodes = (
(408,0,l),
(422,72,l),
(135,72,l),
(260,698,l),
(179,698,l),
(39,0,l)
);
}
);
width = 489;
},
{
anchors = (
{
name = b.uni0327;
position = "{231, 0}";
},
{
name = t.uni0303;
position = "{228, 698}";
},
{
name = t.uni0315;
position = "{357, 740}";
}
);
layerId = "76CB80E2-1BCF-4FA8-BCDD-2F5266FDBF6B";
shapes = (
{
closed = 1;
nodes = (
(401,0,l),
(405,20,l),
(80,20,l),
(216,698,l),
(194,698,l),
(54,0,l)
);
}
);
width = 468;
}
);
rightKerningGroup = L;
unicode = 76;
},
{
glyphname = M;
layers = (
{
layerId = "2ED2F014-92B4-41A8-8CFE-CD21E2CD1218";
shapes = (
{
closed = 1;
nodes = (
(518,0,l),
(694,0,l),
(834,698,l),
(641,698,l),
(517,522,l),
(428,397,l),
(424,397,l),
(386,522,l),
(334,698,l),
(151,698,l),
(11,0,l),
(187,0,l),
(240,257,l),
(264,382,l),
(269,382,l),
(310,257,l),
(367,81,l),
(481,232,l),
(587,378,l),
(593,378,l),
(564,232,l)
);
}
);
width = 812;
},
{
layerId = "BE19BB09-F61D-48A8-8F95-1DC5A5769CFD";
shapes = (
{
closed = 1;
nodes = (
(535,0,l),
(673,0,l),
(813,698,l),
(652,698,l),
(504,487,l),
(419,366,l),
(415,366,l),
(378,487,l),
(314,698,l),
(162,698,l),
(22,0,l),
(160,0,l),
(229,342,l),
(253,463,l),
(258,463,l),
(297,342,l),
(371,115,l),
(526,327,l),
(622,461,l),
(628,461,l),
(601,327,l)
);
}
);
width = 801;
},
{
layerId = "B488FFC1-C82B-453A-B801-8B96DD071204";
shapes = (
{
closed = 1;
nodes = (
(561,0,l),
(641,0,l),
(781,698,l),
(668,698,l),
(485,435,l),
(405,319,l),
(402,319,l),
(366,435,l),
(284,698,l),
(179,698,l),
(39,0,l),
(119,0,l),
(213,469,l),
(236,585,l),
(241,585,l),
(278,469,l),
(377,166,l),
(594,469,l),
(675,586,l),
(680,586,l),
(656,469,l)
);
}
);
width = 784;
},
{
layerId = "76CB80E2-1BCF-4FA8-BCDD-2F5266FDBF6B";
shapes = (
{
closed = 1;
nodes = (
(603,0,l),
(624,0,l),
(764,698,l),
(729,698,l),
(481,386,l),
(395,278,l),
(392,278,l),
(348,390,l),
(226,698,l),
(194,698,l),
(54,0,l),
(75,0,l),
(186,553,l),
(210,673,l),
(213,673,l),
(265,541,l),
(386,236,l),
(629,541,l),
(735,673,l),
(738,673,l),
(714,553,l)
);
}
);
width = 780;
}
);
unicode = 77;
},
{
glyphname = N;
layers = (
{
layerId = "2ED2F014-92B4-41A8-8CFE-CD21E2CD1218";
shapes = (
{
closed = 1;
nodes = (
(394,0,l),
(593,0,l),
(733,698,l),
(557,698,l),
(501,418,l),
(477,298,l),
(470,298,l),
(437,418,l),
(350,698,l),
(151,698,l),
(11,0,l),
(186,0,l),
(242,280,l),
(267,400,l),
(273,400,l),
(307,280,l)
);
}
);
width = 711;
},
{
layerId = "BE19BB09-F61D-48A8-8F95-1DC5A5769CFD";
shapes = (
{
closed = 1;
nodes = (
(415,0,l),
(572,0,l),
(712,698,l),
(575,698,l),
(508,362,l),
(480,223,l),
(474,223,l),
(432,362,l),
(319,698,l),
(162,698,l),
(22,0,l),
(159,0,l),
(226,336,l),
(254,475,l),
(260,475,l),
(302,336,l)
);
}
);
width = 700;
},
{
layerId = "B488FFC1-C82B-453A-B801-8B96DD071204";
shapes = (
{
closed = 1;
nodes = (
(447,0,l),
(541,0,l),
(681,698,l),
(602,698,l),
(518,278,l),
(485,111,l),
(480,111,l),
(425,278,l),
(273,698,l),
(179,698,l),
(39,0,l),
(118,0,l),
(202,420,l),
(235,587,l),
(240,587,l),
(295,420,l)
);
}
);
width = 684;
},
{
layerId = "76CB80E2-1BCF-4FA8-BCDD-2F5266FDBF6B";
shapes = (
{
closed = 1;
nodes = (
(494,0,l),
(524,0,l),
(664,698,l),
(643,698,l),
(531,138,l),
(509,27,l),
(506,27,l),
(456,146,l),
(224,698,l),
(194,698,l),
(54,0,l),
(75,0,l),
(187,560,l),
(209,671,l),
(212,671,l),
(262,552,l)
);
}
);
width = 680;
}
);
unicode = 78;
},
{
glyphname = O;
layers = (
{
anchors = (
{
name = b.uni0327;
position = "{300, 0}";
},
{
name = t.uni0303;
position = "{439, 698}";
}
);
layerId = "2ED2F014-92B4-41A8-8CFE-CD21E2CD1218";
shapes = (
{
closed = 1;
nodes = (
(401,-12,o),
(480,21,o),
(543,81,cs),
(604,140,o),
(650,222,o),
(669,317,cs),
(675,351,o),
(679,385,o),
(679,420,cs),
(679,562,o),
(624,644,o),
(546,682,cs),
(507,700,o),
(466,710,o),
(422,710,cs),
(336,710,o),
(256,677,o),
(195,618,cs),
(132,558,o),
(87,478,o),
(68,381,cs),
(62,347,o),
(58,315,o),
(58,278,cs),
(58,136,o),
(113,54,o),
(191,17,cs),
(229,-2,o),
(270,-12,o),
(315,-12,cs)
);
},
{
closed = 1;
nodes = (
(271,154,o),
(250,181,o),
(250,251,cs),
(250,263,o),
(250,275,o),
(254,292,c),
(275,400,l),
(289,462,o),
(311,505,o),
(348,527,cs),
(366,538,o),
(387,544,o),
(411,544,cs),
(466,544,o),
(487,516,o),
(487,447,cs),
(487,439,o),
(487,423,o),
(483,406,c),
(462,298,ls),
(449,235,o),
(426,193,o),
(390,171,cs),
(372,160,o),
(350,154,o),
(326,154,cs)
);
}
);
width = 706;
},
{
anchors = (
{
name = b.uni0327;
position = "{300, 0}";
},
{
name = t.uni0303;
position = "{439, 698}";
}
);
layerId = "BE19BB09-F61D-48A8-8F95-1DC5A5769CFD";
shapes = (
{
closed = 1;
nodes = (
(396,-12,o),
(474,22,o),
(535,82,cs),
(595,141,o),
(638,223,o),
(657,316,cs),
(664,352,o),
(668,390,o),
(668,427,cs),
(668,559,o),
(617,641,o),
(541,681,cs),
(503,700,o),
(462,710,o),
(417,710,cs),
(329,710,o),
(251,676,o),
(191,617,cs),
(130,557,o),
(87,477,o),
(68,382,cs),
(61,346,o),
(57,310,o),
(57,271,cs),
(57,139,o),
(108,57,o),
(184,18,cs),
(222,-2,o),
(263,-12,o),
(308,-12,cs)
);
},
{
closed = 1;
nodes = (
(242,117,o),
(204,161,o),
(204,245,cs),
(204,260,o),
(205,277,o),
(209,297,cs),
(230,402,ls),
(246,478,o),
(277,532,o),
(325,560,cs),
(349,574,o),
(376,581,o),
(407,581,cs),
(483,581,o),
(521,537,o),
(521,453,cs),
(521,440,o),
(520,421,o),
(516,401,cs),
(495,296,ls),
(480,220,o),
(448,166,o),
(401,138,cs),
(377,124,o),
(349,117,o),
(318,117,cs)
);
}
);
width = 695;
},
{
anchors = (
{
name = b.uni0327;
position = "{300, 0}";
},
{
name = t.uni0303;
position = "{439, 698}";
}
);
layerId = "B488FFC1-C82B-453A-B801-8B96DD071204";
shapes = (
{
closed = 1;
nodes = (
(389,-12,o),
(465,24,o),
(523,84,cs),
(581,143,o),
(620,225,o),
(639,314,cs),
(648,354,o),
(652,397,o),
(652,438,cs),
(652,555,o),
(606,637,o),
(534,679,cs),
(497,700,o),
(456,710,o),
(409,710,cs),
(318,710,o),
(243,674,o),
(185,615,cs),
(127,555,o),
(87,475,o),
(68,384,cs),
(59,344,o),
(55,303,o),
(55,260,cs),
(55,143,o),
(101,62,o),
(174,20,cs),
(211,-2,o),
(252,-12,o),
(298,-12,cs)
);
},
{
closed = 1;
nodes = (
(198,61,o),
(135,131,o),
(135,236,cs),
(135,256,o),
(137,280,o),
(142,305,cs),
(162,405,ls),
(182,502,o),
(226,572,o),
(291,609,cs),
(324,628,o),
(360,637,o),
(401,637,cs),
(509,637,o),
(572,569,o),
(572,462,cs),
(572,442,o),
(570,418,o),
(565,393,cs),
(545,293,ls),
(526,197,o),
(481,126,o),
(417,89,cs),
(384,70,o),
(347,61,o),
(306,61,cs)
);
}
);
width = 679;
},
{
anchors = (
{
name = b.uni0327;
position = "{282, 0}";
},
{
name = t.uni0303;
position = "{455, 698}";
}
);
layerId = "76CB80E2-1BCF-4FA8-BCDD-2F5266FDBF6B";
shapes = (
{
closed = 1;
nodes = (
(384,-12,o),
(454,29,o),
(506,94,cs),
(557,158,o),
(590,241,o),
(607,325,cs),
(618,378,o),
(623,431,o),
(623,478,cs),
(623,579,o),
(584,648,o),
(517,684,cs),
(484,701,o),
(445,710,o),
(401,710,cs),
(308,710,o),
(238,669,o),
(187,605,cs),
(135,540,o),
(102,457,o),
(85,373,cs),
(74,320,o),
(69,267,o),
(69,220,cs),
(69,120,o),
(108,50,o),
(175,15,cs),
(208,-3,o),
(247,-12,o),
(291,-12,cs)
);
},
{
closed = 1;
nodes = (
(162,8,o),
(91,91,o),
(91,220,cs),
(91,248,o),
(93,288,o),
(101,329,cs),
(112,384,ls),
(137,508,o),
(193,603,o),
(271,653,cs),
(310,678,o),
(353,690,o),
(401,690,cs),
(530,690,o),
(601,609,o),
(601,478,cs),
(601,450,o),
(599,412,o),
(591,369,cs),
(580,314,ls),
(556,190,o),
(501,97,o),
(423,46,cs),
(384,21,o),
(340,8,o),
(291,8,cs)
);
}
);
width = 658;
}
);
leftKerningGroup = C2;
rightKerningGroup = O;
unicode = 79;
},
{
glyphname = P;
layers = (
{
layerId = "2ED2F014-92B4-41A8-8CFE-CD21E2CD1218";
shapes = (
{
closed = 1;
nodes = (
(198,0,l),
(243,226,l),
(379,226,ls),
(490,226,o),
(582,272,o),
(635,353,c),
(660,395,o),
(674,441,o),
(674,498,cs),
(674,564,o),
(651,614,o),
(604,648,cs),
(557,682,o),
(497,698,o),
(423,698,cs),
(151,698,l),
(11,0,l)
);
},
{
closed = 1;
nodes = (
(305,533,l),
(437,533,ls),
(450,533,o),
(460,529,o),
(469,522,c),
(477,514,o),
(480,505,o),
(480,497,cs),
(480,492,o),
(478,481,o),
(475,467,cs),
(473,460,o),
(471,453,o),
(470,446,cs),
(464,408,o),
(433,392,o),
(402,392,cs),
(277,392,l)
);
}
);
width = 670;
},
{
layerId = "BE19BB09-F61D-48A8-8F95-1DC5A5769CFD";
shapes = (
{
closed = 1;
nodes = (
(167,0,l),
(218,255,l),
(374,255,ls),
(479,255,o),
(563,300,o),
(610,377,cs),
(633,416,o),
(645,460,o),
(645,511,cs),
(645,570,o),
(626,616,o),
(587,649,cs),
(548,682,o),
(494,698,o),
(425,698,cs),
(162,698,l),
(22,0,l)
);
},
{
closed = 1;
nodes = (
(281,570,l),
(431,570,ls),
(453,570,o),
(469,565,o),
(480,555,c),
(490,544,o),
(495,531,o),
(495,516,cs),
(495,509,o),
(493,498,o),
(490,483,cs),
(488,475,o),
(486,466,o),
(484,456,cs),
(475,407,o),
(438,383,o),
(393,383,cs),
(244,383,l)
);
}
);
width = 637;
},
{
layerId = "B488FFC1-C82B-453A-B801-8B96DD071204";
shapes = (
{
closed = 1;
nodes = (
(120,0,l),
(180,298,l),
(367,298,ls),
(463,298,o),
(535,342,o),
(573,413,cs),
(592,448,o),
(601,488,o),
(601,531,cs),
(601,579,o),
(588,619,o),
(561,651,cs),
(534,682,o),
(489,698,o),
(428,698,cs),
(179,698,l),
(39,0,l)
);
},
{
closed = 1;
nodes = (
(245,626,l),
(422,626,ls),
(457,626,o),
(482,619,o),
(496,604,cs),
(510,589,o),
(517,570,o),
(517,545,cs),
(517,534,o),
(516,524,o),
(513,507,cs),
(511,498,o),
(508,486,o),
(505,471,cs),
(492,406,o),
(446,370,o),
(379,370,cs),
(195,370,l)
);
}
);
width = 588;
},
{
layerId = "76CB80E2-1BCF-4FA8-BCDD-2F5266FDBF6B";
shapes = (
{
closed = 1;
nodes = (
(76,0,l),
(141,322,l),
(386,322,ls),
(473,322,o),
(537,359,o),
(571,427,cs),
(588,461,o),
(596,502,o),
(596,550,cs),
(596,593,o),
(583,628,o),
(557,656,cs),
(531,684,o),
(494,698,o),
(445,698,cs),
(194,698,l),
(54,0,l)
);
},
{
closed = 1;
nodes = (
(211,678,l),
(443,678,ls),
(489,678,o),
(522,666,o),
(543,641,cs),
(564,616,o),
(574,585,o),
(574,550,cs),
(574,543,o),
(574,531,o),
(571,514,cs),
(570,505,o),
(568,494,o),
(565,481,cs),
(549,401,o),
(491,342,o),
(388,342,cs),
(145,342,l)
);
}
);
width = 582;
}
);
unicode = 80;
},
{
glyphname = Q;
leftMetricsKey = O;
widthMetricsKey = O;
layers = (
{
layerId = "2ED2F014-92B4-41A8-8CFE-CD21E2CD1218";
shapes = (
{
closed = 1;
nodes = (
(57,140,o),
(95,54,o),
(223,2,cs),
(597,-151,l),
(641,45,l),
(462,66,l),
(466,54,l),
(609,113,o),
(677,231,o),
(677,420,cs),
(677,586,o),
(591,710,o),
(421,710,cs),
(190,710,o),
(57,487,o),
(57,278,cs)
);
},
{
closed = 1;
nodes = (
(270,154,o),
(248,181,o),
(248,251,cs),
(248,263,o),
(249,275,o),
(252,292,cs),
(274,400,ls),
(290,475,o),
(324,544,o),
(409,544,cs),
(464,544,o),
(485,516,o),
(485,447,cs),
(485,439,o),
(485,423,o),
(482,406,cs),
(460,298,ls),
(445,221,o),
(410,154,o),
(324,154,cs)
);
}
);
width = 705;
},
{
layerId = "BE19BB09-F61D-48A8-8F95-1DC5A5769CFD";
shapes = (
{
closed = 1;
nodes = (
(56,141,o),
(100,48,o),
(222,1,cs),
(584,-140,l),
(618,12,l),
(433,44,l),
(435,33,l),
(594,90,o),
(667,244,o),
(667,427,cs),
(667,589,o),
(582,710,o),
(416,710,cs),
(182,710,o),
(56,479,o),
(56,271,cs)
);
},
{
closed = 1;
nodes = (
(241,117,o),
(203,161,o),
(203,245,cs),
(203,260,o),
(204,277,o),
(208,297,cs),
(229,402,ls),
(249,498,o),
(300,581,o),
(406,581,cs),
(482,581,o),
(520,537,o),
(520,453,cs),
(520,440,o),
(519,421,o),
(515,401,cs),
(494,296,ls),
(475,199,o),
(423,117,o),
(317,117,cs)
);
}
);
width = 695;
},
{
layerId = "B488FFC1-C82B-453A-B801-8B96DD071204";
shapes = (
{
closed = 1;
nodes = (
(55,143,o),
(107,40,o),
(221,-1,cs),
(564,-124,l),
(583,-38,l),
(389,10,l),
(389,1,l),
(571,56,o),
(652,264,o),
(652,438,cs),
(652,593,o),
(568,710,o),
(409,710,cs),
(170,710,o),
(55,467,o),
(55,260,cs)
);
},
{
closed = 1;
nodes = (
(198,61,o),
(135,131,o),
(135,236,cs),
(135,256,o),
(137,280,o),
(142,305,cs),
(162,405,ls),
(188,532,o),
(264,637,o),
(401,637,cs),
(509,637,o),
(572,569,o),
(572,462,cs),
(572,442,o),
(570,418,o),
(565,393,cs),
(545,293,ls),
(520,166,o),
(443,61,o),
(306,61,cs)
);
}
);
width = 679;
},
{
layerId = "76CB80E2-1BCF-4FA8-BCDD-2F5266FDBF6B";
shapes = (
{
closed = 1;
nodes = (
(69,111,o),
(112,33,o),
(216,-2,c),
(563,-108,l),
(567,-88,l),
(290,-8,l),
(287,-12,l),
(534,-15,o),
(623,277,o),
(623,478,cs),
(623,622,o),
(542,710,o),
(401,710,cs),
(158,710,o),
(69,421,o),
(69,220,cs)
);
},
{
closed = 1;
nodes = (
(162,8,o),
(91,91,o),
(91,220,cs),
(91,248,o),
(93,288,o),
(101,329,cs),
(112,384,ls),
(142,534,o),
(231,690,o),
(401,690,cs),
(530,690,o),
(601,609,o),
(601,478,cs),
(601,450,o),
(599,412,o),
(591,369,cs),
(580,314,ls),
(551,164,o),
(461,8,o),
(291,8,cs)
);
}
);
width = 658;
}
);
leftKerningGroup = C2;
rightKerningGroup = O;
unicode = 81;
},
{
glyphname = R;
layers = (
{
layerId = "2ED2F014-92B4-41A8-8CFE-CD21E2CD1218";
shapes = (
{
closed = 1;
nodes = (
(245,232,l),
(331,232,l),
(383,0,l),
(583,0,l),
(511,255,l),
(586,286,o),
(634,343,o),
(657,409,cs),
(669,442,o),
(674,474,o),
(674,509,cs),
(674,572,o),
(653,621,o),
(609,651,c),
(566,682,o),
(509,698,o),
(438,698,cs),
(151,698,l),
(11,0,l),
(198,0,l)
);
},
{
closed = 1;
nodes = (
(277,391,l),
(305,533,l),
(437,533,ls),
(450,533,o),
(460,529,o),
(469,522,c),
(477,514,o),
(480,506,o),
(480,497,cs),
(480,492,o),
(478,481,o),
(475,467,cs),
(473,460,o),
(471,453,o),
(470,446,cs),
(464,408,o),
(433,391,o),
(402,391,cs)
);
}
);
width = 675;
},
{
layerId = "BE19BB09-F61D-48A8-8F95-1DC5A5769CFD";
shapes = (
{
closed = 1;
nodes = (
(219,259,l),
(334,259,l),
(403,0,l),
(558,0,l),
(474,276,l),
(549,301,o),
(600,353,o),
(626,418,cs),
(639,450,o),
(645,483,o),
(645,518,cs),
(645,575,o),
(627,620,o),
(590,651,cs),
(553,682,o),
(501,698,o),
(434,698,cs),
(162,698,l),
(22,0,l),
(167,0,l)
);
},
{
closed = 1;
nodes = (
(244,383,l),
(281,570,l),
(431,570,ls),
(453,570,o),
(469,565,o),
(480,555,c),
(490,544,o),
(495,531,o),
(495,516,cs),
(495,509,o),
(493,498,o),
(490,483,cs),
(488,475,o),
(486,466,o),
(484,456,cs),
(475,407,o),
(438,383,o),
(393,383,cs)
);
}
);
width = 655;
},
{
layerId = "B488FFC1-C82B-453A-B801-8B96DD071204";
shapes = (
{
closed = 1;
nodes = (
(180,300,l),
(338,300,l),
(433,0,l),
(520,0,l),
(418,308,l),
(493,323,o),
(549,368,o),
(579,431,cs),
(594,462,o),
(601,496,o),
(601,531,cs),
(601,579,o),
(588,619,o),
(561,651,cs),
(534,682,o),
(489,698,o),
(428,698,cs),
(179,698,l),
(39,0,l),
(120,0,l)
);
},
{
closed = 1;
nodes = (
(195,371,l),
(245,626,l),
(422,626,ls),
(457,626,o),
(482,619,o),
(496,604,cs),
(510,589,o),
(517,569,o),
(517,545,cs),
(517,534,o),
(516,524,o),
(513,507,cs),
(511,498,o),
(508,486,o),
(505,471,cs),
(492,406,o),
(446,371,o),
(379,371,cs)
);
}
);
width = 625;
},
{
layerId = "76CB80E2-1BCF-4FA8-BCDD-2F5266FDBF6B";
shapes = (
{
closed = 1;
nodes = (
(141,322,l),
(359,322,l),
(484,0,l),
(507,0,l),
(382,322,l),
(473,322,o),
(537,359,o),
(571,427,cs),
(588,461,o),
(596,502,o),
(596,550,cs),
(596,593,o),
(583,628,o),
(557,656,cs),
(531,684,o),
(494,698,o),
(445,698,cs),
(194,698,l),
(54,0,l),
(76,0,l)
);
},
{
closed = 1;
nodes = (
(145,342,l),
(211,678,l),
(443,678,ls),
(489,678,o),
(522,666,o),
(543,641,cs),
(564,616,o),
(574,585,o),
(574,550,cs),
(574,543,o),
(574,531,o),
(571,514,cs),
(570,505,o),
(568,494,o),
(565,481,cs),
(549,401,o),
(491,342,o),
(388,342,cs)
);
}
);
width = 630;
}
);
rightKerningGroup = R;
unicode = 82;
},
{
glyphname = S;
layers = (
{
layerId = "2ED2F014-92B4-41A8-8CFE-CD21E2CD1218";
shapes = (
{
closed = 1;
nodes = (
(8,97,l),
(75,24,o),
(170,-12,o),
(281,-12,cs),
(462,-12,o),
(566,85,o),
(571,225,c),
(571,297,o),
(548,371,o),
(391,425,cs),
(320,449,l),
(294,456,o),
(272,470,o),
(272,501,c),
(274,525,o),
(284,546,o),
(350,546,cs),
(404,546,o),
(454,530,o),
(488,490,c),
(608,619,l),
(551,680,o),
(469,710,o),
(362,710,cs),
(232,710,o),
(87,651,o),
(87,502,cs),
(87,371,o),
(153,318,o),
(254,287,cs),
(336,261,ls),
(387,245,o),
(382,229,o),
(382,214,cs),
(382,176,o),
(366,152,o),
(296,152,cs),
(232,152,o),
(173,174,o),
(126,222,c)
);
}
);
width = 622;
},
{
layerId = "BE19BB09-F61D-48A8-8F95-1DC5A5769CFD";
shapes = (
{
closed = 1;
nodes = (
(11,102,l),
(75,26,o),
(165,-12,o),
(274,-12,cs),
(435,-12,o),
(541,73,o),
(544,214,c),
(544,290,o),
(509,358,o),
(373,409,cs),
(309,433,ls),
(274,446,o),
(237,467,o),
(237,510,c),
(238,558,o),
(272,582,o),
(341,582,cs),
(406,582,o),
(457,559,o),
(493,514,c),
(590,610,l),
(535,677,o),
(455,710,o),
(350,710,cs),
(224,710,o),
(92,652,o),
(92,509,cs),
(92,392,o),
(165,339,o),
(257,306,cs),
(327,281,ls),
(379,262,o),
(397,240,o),
(397,205,cs),
(397,146,o),
(359,116,o),
(284,116,cs),
(213,116,o),
(154,143,o),
(107,198,c)
);
}
);
width = 601;
},
{
layerId = "B488FFC1-C82B-453A-B801-8B96DD071204";
shapes = (
{
closed = 1;
nodes = (
(16,110,l),
(75,29,o),
(157,-12,o),
(263,-12,cs),
(395,-12,o),
(504,55,o),
(504,198,cs),
(504,279,o),
(450,338,o),
(346,385,cs),
(293,409,ls),
(244,431,o),
(184,462,o),
(184,524,cs),
(184,608,o),
(254,636,o),
(328,636,cs),
(409,636,o),
(461,603,o),
(500,550,c),
(563,596,l),
(511,672,o),
(434,710,o),
(332,710,cs),
(212,710,o),
(100,653,o),
(100,519,cs),
(100,423,o),
(183,371,o),
(261,335,cs),
(314,311,ls),
(367,288,o),
(420,256,o),
(420,192,cs),
(420,101,o),
(349,62,o),
(266,62,cs),
(185,62,o),
(126,97,o),
(78,162,c)
);
}
);
width = 573;
},
{
layerId = "76CB80E2-1BCF-4FA8-BCDD-2F5266FDBF6B";
shapes = (
{
closed = 1;
nodes = (
(19,102,l),
(74,26,o),
(152,-12,o),
(253,-12,cs),
(384,-12,o),
(468,52,o),
(468,184,cs),
(468,275,o),
(405,322,o),
(326,354,cs),
(260,381,ls),
(174,416,o),
(129,463,o),
(129,532,c),
(132,640,o),
(199,690,o),
(318,690,cs),
(405,690,o),
(468,661,o),
(508,602,c),
(526,615,l),
(483,678,o),
(415,710,o),
(320,710,cs),
(191,710,o),
(106,652,o),
(106,532,cs),
(106,441,o),
(171,392,o),
(250,361,cs),
(316,335,ls),
(385,308,o),
(445,266,o),
(445,186,c),
(436,61,o),
(381,8,o),
(253,8,cs),
(160,8,o),
(88,44,o),
(37,115,c)
);
}
);
width = 535;
}
);
leftKerningGroup = S2;
rightKerningGroup = S;
unicode = 83;
},
{
glyphname = T;
layers = (
{
layerId = "2ED2F014-92B4-41A8-8CFE-CD21E2CD1218";
shapes = (
{
closed = 1;
nodes = (
(600,533,l),
(634,698,l),
(117,698,l),
(83,533,l),
(248,533,l),
(141,0,l),
(329,0,l),
(435,533,l)
);
}
);
width = 577;
},
{
layerId = "BE19BB09-F61D-48A8-8F95-1DC5A5769CFD";
shapes = (
{
closed = 1;
nodes = (
(602,570,l),
(628,698,l),
(115,698,l),
(89,570,l),
(273,570,l),
(159,0,l),
(304,0,l),
(418,570,l)
);
}
);
width = 569;
},
{
layerId = "B488FFC1-C82B-453A-B801-8B96DD071204";
shapes = (
{
closed = 1;
nodes = (
(605,626,l),
(619,698,l),
(112,698,l),
(98,626,l),
(311,626,l),
(186,0,l),
(267,0,l),
(392,626,l)
);
}
);
width = 557;
},
{
layerId = "76CB80E2-1BCF-4FA8-BCDD-2F5266FDBF6B";
shapes = (
{
closed = 1;
nodes = (
(619,678,l),
(623,698,l),
(103,698,l),
(99,678,l),
(348,678,l),
(212,0,l),
(234,0,l),
(370,678,l)
);
}
);
width = 548;
}
);
leftKerningGroup = T2;
rightKerningGroup = T;
unicode = 84;
},
{
glyphname = U;
layers = (
{
anchors = (
{
name = b.uni0327;
position = "{284, 0}";
},
{
name = b.uni0328;
position = "{402, 0}";
},
{
name = t.uni0303;
position = "{421, 698}";
}
);
layerId = "2ED2F014-92B4-41A8-8CFE-CD21E2CD1218";
shapes = (
{
closed = 1;
nodes = (
(151,698,l),
(73,309,ls),
(67,281,o),
(65,255,o),
(65,231,cs),
(65,122,o),
(107,51,o),
(184,15,cs),
(223,-4,o),
(269,-12,o),
(327,-12,cs),
(446,-12,o),
(523,33,o),
(572,118,cs),
(597,160,o),
(614,212,o),
(626,273,cs),
(712,698,l),
(528,698,l),
(438,256,ls),
(430,214,o),
(412,182,o),
(382,166,cs),
(368,158,o),
(351,154,o),
(331,154,cs),
(272,154,o),
(246,179,o),
(246,230,cs),
(246,247,o),
(249,278,o),
(252,287,c),
(335,698,l)
);
}
);
width = 693;
},
{
anchors = (
{
name = b.uni0327;
position = "{284, 0}";
},
{
name = b.uni0328;
position = "{402, 0}";
},
{
name = t.uni0303;
position = "{421, 698}";
}
);
layerId = "BE19BB09-F61D-48A8-8F95-1DC5A5769CFD";
shapes = (
{
closed = 1;
nodes = (
(160,698,l),
(81,303,ls),
(74,270,o),
(72,241,o),
(72,214,cs),
(72,115,o),
(110,48,o),
(180,14,cs),
(215,-4,o),
(257,-12,o),
(308,-12,cs),
(424,-12,o),
(500,29,o),
(549,114,cs),
(574,156,o),
(592,210,o),
(605,275,cs),
(690,698,l),
(547,698,l),
(460,267,ls),
(447,199,o),
(422,154,o),
(383,133,cs),
(364,122,o),
(341,117,o),
(314,117,cs),
(247,117,o),
(212,152,o),
(212,217,cs),
(212,236,o),
(215,263,o),
(219,280,c),
(303,698,l)
);
}
);
width = 678;
},
{
anchors = (
{
name = b.uni0327;
position = "{284, 0}";
},
{
name = b.uni0328;
position = "{402, 0}";
},
{
name = t.uni0303;
position = "{421, 698}";
}
);
layerId = "B488FFC1-C82B-453A-B801-8B96DD071204";
shapes = (
{
closed = 1;
nodes = (
(174,698,l),
(93,294,ls),
(85,254,o),
(82,220,o),
(82,189,cs),
(82,104,o),
(114,44,o),
(174,12,cs),
(203,-4,o),
(239,-12,o),
(280,-12,cs),
(391,-12,o),
(466,23,o),
(515,108,cs),
(540,150,o),
(559,207,o),
(573,278,cs),
(657,698,l),
(576,698,l),
(493,284,ls),
(472,176,o),
(437,112,o),
(385,83,cs),
(358,68,o),
(326,61,o),
(289,61,cs),
(210,61,o),
(161,112,o),
(161,197,cs),
(161,220,o),
(164,240,o),
(169,269,c),
(255,698,l)
);
}
);
width = 656;
},
{
anchors = (
{
name = b.uni0327;
position = "{278, 0}";
},
{
name = b.uni0328;
position = "{365, 0}";
},
{
name = t.uni0303;
position = "{421, 698}";
}
);
layerId = "76CB80E2-1BCF-4FA8-BCDD-2F5266FDBF6B";
shapes = (
{
closed = 1;
nodes = (
(185,698,l),
(101,276,ls),
(90,220,o),
(82,185,o),
(82,148,cs),
(82,77,o),
(114,30,o),
(171,6,cs),
(199,-6,o),
(233,-12,o),
(273,-12,cs),
(384,-12,o),
(449,20,o),
(492,102,cs),
(513,143,o),
(531,199,o),
(545,270,cs),
(631,698,l),
(609,698,l),
(523,271,ls),
(496,139,o),
(461,65,o),
(397,33,cs),
(365,16,o),
(324,8,o),
(273,8,cs),
(157,8,o),
(104,60,o),
(104,148,cs),
(104,179,o),
(110,212,o),
(122,271,cs),
(207,698,l)
);
}
);
width = 639;
}
);
leftKerningGroup = U2;
rightKerningGroup = U;
unicode = 85;
},
{
glyphname = V;
layers = (
{
anchors = (
{
name = b.uni0327;
position = "{264, 0}";
},
{
name = t.uni0303;
position = "{402, 698}";
}
);
layerId = "2ED2F014-92B4-41A8-8CFE-CD21E2CD1218";
shapes = (
{
closed = 1;
nodes = (
(377,0,l),
(734,698,l),
(535,698,l),
(428,463,l),
(318,201,l),
(309,201,l),
(298,463,l),
(280,698,l),
(91,698,l),
(172,0,l)
);
}
);
width = 656;
},
{
anchors = (
{
name = b.uni0327;
position = "{264, 0}";
},
{
name = t.uni0303;
position = "{402, 698}";
}
);
layerId = "BE19BB09-F61D-48A8-8F95-1DC5A5769CFD";
shapes = (
{
closed = 1;
nodes = (
(344,0,l),
(705,698,l),
(551,698,l),
(414,417,l),
(295,154,l),
(288,154,l),
(271,417,l),
(245,698,l),
(99,698,l),
(181,0,l)
);
}
);
width = 631;
},
{
anchors = (
{
name = b.uni0327;
position = "{264, 0}";
},
{
name = t.uni0303;
position = "{402, 698}";
}
);
layerId = "B488FFC1-C82B-453A-B801-8B96DD071204";
shapes = (
{
closed = 1;
nodes = (
(295,0,l),
(661,698,l),
(575,698,l),
(393,348,l),
(260,84,l),
(257,84,l),
(230,348,l),
(192,698,l),
(111,698,l),
(194,0,l)
);
}
);
width = 593;
},
{
anchors = (
{
name = b.uni0327;
position = "{250, 0}";
},
{
name = t.uni0303;
position = "{397, 698}";
}
);
layerId = "76CB80E2-1BCF-4FA8-BCDD-2F5266FDBF6B";
shapes = (
{
closed = 1;
nodes = (
(247,0,l),
(627,698,l),
(603,698,l),
(349,230,l),
(238,25,l),
(235,25,l),
(206,230,l),
(139,698,l),
(117,698,l),
(217,0,l)
);
}
);
width = 566;
}
);
unicode = 86;
},
{
glyphname = W;
layers = (
{
layerId = "2ED2F014-92B4-41A8-8CFE-CD21E2CD1218";
shapes = (
{
closed = 1;
nodes = (
(353,0,l),
(462,279,l),
(538,489,l),
(549,489,l),
(543,240,l),
(544,0,l),
(762,0,l),
(1038,698,l),
(851,698,l),
(754,407,l),
(680,155,l),
(666,155,l),
(687,425,l),
(685,698,l),
(484,698,l),
(358,391,l),
(288,173,l),
(274,173,l),
(296,469,l),
(309,698,l),
(125,698,l),
(129,0,l)
);
}
);
width = 994;
},
{
layerId = "BE19BB09-F61D-48A8-8F95-1DC5A5769CFD";
shapes = (
{
closed = 1;
nodes = (
(302,0,l),
(432,312,l),
(521,536,l),
(530,536,l),
(530,291,l),
(538,0,l),
(706,0,l),
(997,698,l),
(851,698,l),
(733,384,l),
(646,134,l),
(636,134,l),
(643,416,l),
(636,698,l),
(477,698,l),
(351,401,l),
(254,144,l),
(244,144,l),
(255,419,l),
(259,698,l),
(116,698,l),
(130,0,l)
);
}
);
width = 941;
},
{
layerId = "B488FFC1-C82B-453A-B801-8B96DD071204";
shapes = (
{
closed = 1;
nodes = (
(226,0,l),
(387,362,l),
(496,606,l),
(501,606,l),
(511,367,l),
(529,0,l),
(622,0,l),
(935,698,l),
(851,698,l),
(701,349,l),
(595,102,l),
(591,102,l),
(577,403,l),
(562,698,l),
(466,698,l),
(340,416,l),
(203,101,l),
(199,101,l),
(193,344,l),
(184,698,l),
(103,698,l),
(132,0,l)
);
}
);
width = 862;
},
{
layerId = "76CB80E2-1BCF-4FA8-BCDD-2F5266FDBF6B";
shapes = (
{
closed = 1;
nodes = (
(192,0,l),
(437,506,l),
(516,668,l),
(519,668,l),
(531,506,l),
(569,0,l),
(600,0,l),
(929,698,l),
(905,698,l),
(698,256,l),
(592,31,l),
(589,31,l),
(572,256,l),
(538,698,l),
(507,698,l),
(293,256,l),
(184,31,l),
(181,31,l),
(168,256,l),
(143,698,l),
(121,698,l),
(161,0,l)
);
}
);
width = 864;
}
);
leftKerningGroup = W2;
rightKerningGroup = W;
unicode = 87;
},
{
glyphname = X;
layers = (
{
layerId = "2ED2F014-92B4-41A8-8CFE-CD21E2CD1218";
shapes = (
{
closed = 1;
nodes = (
(458,350,l),
(741,698,l),
(524,698,l),
(386,506,l),
(376,506,l),
(297,698,l),
(93,698,l),
(241,376,l),
(-50,0,l),
(167,0,l),
(312,214,l),
(323,214,l),
(408,0,l),
(613,0,l)
);
}
);
width = 671;
},
{
layerId = "BE19BB09-F61D-48A8-8F95-1DC5A5769CFD";
shapes = (
{
closed = 1;
nodes = (
(419,347,l),
(706,698,l),
(538,698,l),
(363,468,l),
(355,468,l),
(260,698,l),
(104,698,l),
(250,369,l),
(-40,0,l),
(128,0,l),
(307,243,l),
(315,243,l),
(414,0,l),
(571,0,l)
);
}
);
width = 641;
},
{
layerId = "B488FFC1-C82B-453A-B801-8B96DD071204";
shapes = (
{
closed = 1;
nodes = (
(360,343,l),
(653,698,l),
(559,698,l),
(328,411,l),
(324,411,l),
(205,698,l),
(120,698,l),
(263,358,l),
(-25,0,l),
(69,0,l),
(299,286,l),
(303,286,l),
(423,0,l),
(508,0,l)
);
}
);
width = 596;
},
{
layerId = "76CB80E2-1BCF-4FA8-BCDD-2F5266FDBF6B";
shapes = (
{
closed = 1;
nodes = (
(306,355,l),
(602,698,l),
(574,698,l),
(297,375,l),
(294,375,l),
(142,698,l),
(118,698,l),
(279,356,l),
(-29,0,l),
(-1,0,l),
(289,336,l),
(292,336,l),
(449,0,l),
(473,0,l)
);
}
);
width = 552;
}
);
unicode = 88;
},
{
glyphname = Y;
layers = (
{
layerId = "2ED2F014-92B4-41A8-8CFE-CD21E2CD1218";
shapes = (
{
closed = 1;
nodes = (
(365,0,l),
(415,248,l),
(734,698,l),
(530,698,l),
(361,435,l),
(353,435,l),
(274,698,l),
(82,698,l),
(231,270,l),
(178,0,l)
);
}
);
width = 655;
},
{
layerId = "BE19BB09-F61D-48A8-8F95-1DC5A5769CFD";
shapes = (
{
closed = 1;
nodes = (
(330,0,l),
(382,258,l),
(701,698,l),
(541,698,l),
(340,404,l),
(333,404,l),
(239,698,l),
(91,698,l),
(239,271,l),
(185,0,l)
);
}
);
width = 624;
},
{
layerId = "B488FFC1-C82B-453A-B801-8B96DD071204";
shapes = (
{
closed = 1;
nodes = (
(277,0,l),
(332,273,l),
(651,698,l),
(558,698,l),
(308,357,l),
(303,357,l),
(187,698,l),
(105,698,l),
(251,273,l),
(196,0,l)
);
}
);
width = 577;
},
{
layerId = "76CB80E2-1BCF-4FA8-BCDD-2F5266FDBF6B";
shapes = (
{
closed = 1;
nodes = (
(230,0,l),
(289,294,l),
(609,698,l),
(583,698,l),
(283,320,l),
(280,320,l),
(132,698,l),
(109,698,l),
(267,294,l),
(208,0,l)
);
}
);
width = 540;
}
);
leftKerningGroup = Y2;
rightKerningGroup = Y;
unicode = 89;
},
{
glyphname = Z;
layers = (
{
layerId = "2ED2F014-92B4-41A8-8CFE-CD21E2CD1218";
shapes = (
{
closed = 1;
nodes = (
(529,165,l),
(248,165,l),
(604,537,l),
(636,698,l),
(152,698,l),
(119,533,l),
(380,533,l),
(24,161,l),
(-8,0,l),
(495,0,l)
);
}
);
width = 580;
},
{
layerId = "BE19BB09-F61D-48A8-8F95-1DC5A5769CFD";
shapes = (
{
closed = 1;
nodes = (
(512,128,l),
(187,128,l),
(597,570,l),
(623,698,l),
(145,698,l),
(119,570,l),
(425,570,l),
(15,128,l),
(-11,0,l),
(486,0,l)
);
}
);
width = 573;
},
{
layerId = "B488FFC1-C82B-453A-B801-8B96DD071204";
shapes = (
{
closed = 1;
nodes = (
(487,72,l),
(95,72,l),
(587,620,l),
(603,698,l),
(134,698,l),
(119,626,l),
(493,626,l),
(1,78,l),
(-15,0,l),
(472,0,l)
);
}
);
width = 563;
},
{
layerId = "76CB80E2-1BCF-4FA8-BCDD-2F5266FDBF6B";
shapes = (
{
closed = 1;
nodes = (
(466,20,l),
(9,20,l),
(576,676,l),
(581,698,l),
(141,698,l),
(137,678,l),
(550,678,l),
(-17,22,l),
(-22,0,l),
(462,0,l)
);
}
);
width = 543;
}
);
leftKerningGroup = Z2;
rightKerningGroup = Z;
unicode = 90;
},
{
glyphname = zero;
layers = (
{
layerId = "2ED2F014-92B4-41A8-8CFE-CD21E2CD1218";
shapes = (
{
closed = 1;
nodes = (
(350,-12,o),
(416,21,o),
(470,77,c),
(523,135,o),
(560,214,o),
(578,307,c),
(585,337,o),
(588,365,o),
(590,397,cs),
(591,412,o),
(591,428,o),
(591,443,cs),
(591,494,o),
(584,559,o),
(553,614,cs),
(521,669,o),
(462,710,o),
(357,710,cs),
(278,710,o),
(208,677,o),
(155,620,cs),
(101,563,o),
(64,484,o),
(46,391,cs),
(41,364,o),
(37,333,o),
(35,302,cs),
(34,287,o),
(33,271,o),
(33,255,cs),
(33,208,o),
(40,140,o),
(72,85,cs),
(103,30,o),
(162,-12,o),
(267,-12,cs)
);
},
{
closed = 1;
nodes = (
(228,137,o),
(214,166,o),
(214,216,cs),
(214,235,o),
(216,250,o),
(221,276,cs),
(249,412,ls),
(261,472,o),
(270,516,o),
(292,542,c),
(304,554,o),
(320,561,o),
(342,561,cs),
(396,561,o),
(410,532,o),
(410,482,cs),
(410,463,o),
(406,447,o),
(403,422,c),
(375,286,l),
(365,228,o),
(354,182,o),
(331,156,c),
(319,144,o),
(303,137,o),
(282,137,cs)
);
}
);
width = 600;
},
{
layerId = "BE19BB09-F61D-48A8-8F95-1DC5A5769CFD";
shapes = (
{
closed = 1;
nodes = (
(345,-12,o),
(411,24,o),
(463,84,cs),
(514,144,o),
(549,225,o),
(566,316,c),
(573,347,o),
(576,376,o),
(578,408,cs),
(579,423,o),
(579,439,o),
(579,454,cs),
(579,513,o),
(569,576,o),
(538,626,cs),
(506,676,o),
(452,710,o),
(364,710,cs),
(283,710,o),
(215,674,o),
(164,614,cs),
(112,554,o),
(77,473,o),
(60,382,cs),
(55,353,o),
(51,322,o),
(49,291,cs),
(48,276,o),
(47,260,o),
(47,244,cs),
(47,187,o),
(57,123,o),
(89,73,cs),
(120,23,o),
(174,-12,o),
(262,-12,cs)
);
},
{
closed = 1;
nodes = (
(212,106,o),
(188,147,o),
(188,215,cs),
(188,238,o),
(191,260,o),
(196,287,cs),
(221,411,ls),
(236,483,o),
(254,538,o),
(287,569,cs),
(304,584,o),
(325,592,o),
(351,592,cs),
(414,592,o),
(438,551,o),
(438,483,cs),
(438,460,o),
(435,438,o),
(430,411,cs),
(405,287,l),
(392,216,o),
(372,160,o),
(339,129,cs),
(322,114,o),
(301,106,o),
(275,106,cs)
);
}
);
width = 600;
},
{
layerId = "B488FFC1-C82B-453A-B801-8B96DD071204";
shapes = (
{
closed = 1;
nodes = (
(338,-12,o),
(403,29,o),
(452,94,cs),
(500,158,o),
(532,242,o),
(548,330,c),
(555,362,o),
(558,393,o),
(560,425,cs),
(561,440,o),
(561,455,o),
(561,470,cs),
(561,542,o),
(546,602,o),
(515,644,cs),
(484,686,o),
(437,710,o),
(374,710,cs),
(291,710,o),
(226,669,o),
(178,605,cs),
(129,540,o),
(97,456,o),
(81,368,cs),
(76,337,o),
(72,305,o),
(70,274,cs),
(69,259,o),
(68,243,o),
(68,228,cs),
(68,156,o),
(83,97,o),
(114,55,cs),
(145,13,o),
(192,-12,o),
(255,-12,cs)
);
},
{
closed = 1;
nodes = (
(188,59,o),
(149,119,o),
(149,214,cs),
(149,242,o),
(153,275,o),
(158,304,c),
(179,409,ls),
(198,500,o),
(230,571,o),
(279,610,cs),
(304,629,o),
(332,639,o),
(364,639,cs),
(441,639,o),
(480,579,o),
(480,484,cs),
(480,456,o),
(478,425,o),
(471,394,c),
(450,289,ls),
(433,198,o),
(399,127,o),
(351,88,c),
(326,69,o),
(298,59,o),
(265,59,cs)
);
}
);
width = 600;
},
{
layerId = "76CB80E2-1BCF-4FA8-BCDD-2F5266FDBF6B";
shapes = (
{
closed = 1;
nodes = (
(335,-12,o),
(399,27,o),
(445,88,cs),
(491,149,o),
(522,229,o),
(539,310,cs),
(547,349,o),
(552,388,o),
(555,425,cs),
(556,444,o),
(557,462,o),
(557,479,cs),
(557,556,o),
(542,613,o),
(513,652,cs),
(484,691,o),
(438,710,o),
(378,710,cs),
(297,710,o),
(234,671,o),
(188,610,cs),
(142,549,o),
(110,469,o),
(93,388,cs),
(85,349,o),
(80,310,o),
(77,273,cs),
(76,254,o),
(75,236,o),
(75,219,cs),
(75,142,o),
(90,85,o),
(119,46,cs),
(148,7,o),
(194,-12,o),
(254,-12,cs)
);
},
{
closed = 1;
nodes = (
(138,8,o),
(96,86,o),
(96,219,cs),
(96,254,o),
(99,291,o),
(107,331,cs),
(119,390,ls),
(146,518,o),
(195,608,o),
(264,655,cs),
(298,678,o),
(336,690,o),
(378,690,cs),
(494,690,o),
(536,612,o),
(536,479,cs),
(536,446,o),
(533,407,o),
(525,367,cs),
(513,308,ls),
(488,180,o),
(437,90,o),
(369,43,cs),
(335,20,o),
(297,8,o),
(254,8,cs)
);
}
);
width = 600;
}
);
unicode = 48;
},
{
glyphname = zero.alt01;
layers = (
{
layerId = "2ED2F014-92B4-41A8-8CFE-CD21E2CD1218";
shapes = (
{
closed = 1;
nodes = (
(350,-12,o),
(416,21,o),
(470,77,c),
(523,135,o),
(560,214,o),
(578,307,c),
(585,337,o),
(588,365,o),
(590,397,cs),
(591,412,o),
(591,428,o),
(591,443,cs),
(591,494,o),
(584,559,o),
(553,614,cs),
(521,669,o),
(462,710,o),
(357,710,cs),
(278,710,o),
(208,677,o),
(155,620,cs),
(101,563,o),
(64,484,o),
(46,391,cs),
(41,364,o),
(37,333,o),
(35,302,cs),
(34,287,o),
(33,271,o),
(33,255,cs),
(33,208,o),
(40,140,o),
(72,85,cs),
(103,30,o),
(162,-12,o),
(267,-12,cs)
);
},
{
closed = 1;
nodes = (
(226,137,o),
(211,166,o),
(211,216,cs),
(211,235,o),
(213,250,o),
(218,276,cs),
(246,412,ls),
(258,472,o),
(268,516,o),
(292,542,cs),
(304,554,o),
(320,561,o),
(342,561,cs),
(398,561,o),
(413,532,o),
(413,482,cs),
(413,463,o),
(410,447,o),
(406,422,c),
(378,286,ls),
(365,228,o),
(356,182,o),
(333,156,c),
(321,144,o),
(305,137,o),
(282,137,cs)
);
},
{
closed = 1;
nodes = (
(338,280,o),
(369,298,o),
(374,333,c),
(377,346,o),
(380,360,o),
(380,369,cs),
(380,387,o),
(368,415,o),
(322,415,cs),
(284,415,o),
(256,397,o),
(247,362,c),
(246,352,o),
(242,334,o),
(242,326,cs),
(242,308,o),
(254,280,o),
(299,280,cs)
);
}
);
width = 600;
},
{
layerId = "BE19BB09-F61D-48A8-8F95-1DC5A5769CFD";
shapes = (
{
closed = 1;
nodes = (
(345,-12,o),
(411,24,o),
(463,84,cs),
(514,144,o),
(549,225,o),
(566,316,c),
(573,347,o),
(576,376,o),
(578,408,cs),
(579,423,o),
(579,439,o),
(579,454,cs),
(579,513,o),
(569,576,o),
(538,626,cs),
(506,676,o),
(452,710,o),
(364,710,cs),
(283,710,o),
(215,674,o),
(164,614,cs),
(112,554,o),
(77,473,o),
(60,382,cs),
(55,353,o),
(51,322,o),
(49,291,cs),
(48,276,o),
(47,260,o),
(47,244,cs),
(47,187,o),
(57,123,o),
(89,73,cs),
(120,23,o),
(174,-12,o),
(262,-12,cs)
);
},
{
closed = 1;
nodes = (
(211,106,o),
(186,147,o),
(186,215,cs),
(186,238,o),
(189,260,o),
(194,287,cs),
(219,411,ls),
(234,483,o),
(253,538,o),
(287,569,cs),
(304,584,o),
(325,592,o),
(351,592,cs),
(415,592,o),
(440,551,o),
(440,483,cs),
(440,460,o),
(437,438,o),
(432,411,cs),
(407,287,ls),
(392,216,o),
(373,160,o),
(340,129,cs),
(323,114,o),
(302,106,o),
(275,106,cs)
);
},
{
closed = 1;
nodes = (
(341,285,o),
(365,306,o),
(370,337,c),
(373,348,o),
(375,361,o),
(375,369,cs),
(375,389,o),
(361,411,o),
(322,411,cs),
(283,411,o),
(261,390,o),
(254,359,c),
(253,350,o),
(249,335,o),
(249,327,cs),
(249,307,o),
(263,285,o),
(302,285,cs)
);
}
);
width = 600;
},
{
layerId = "B488FFC1-C82B-453A-B801-8B96DD071204";
shapes = (
{
closed = 1;
nodes = (
(338,-12,o),
(403,29,o),
(452,94,cs),
(500,158,o),
(532,242,o),
(548,330,c),
(555,362,o),
(558,393,o),
(560,425,cs),
(561,440,o),
(561,455,o),
(561,470,cs),
(561,542,o),
(546,602,o),
(515,644,cs),
(484,686,o),
(437,710,o),
(374,710,cs),
(291,710,o),
(226,669,o),
(178,605,cs),
(129,540,o),
(97,456,o),
(81,368,cs),
(76,337,o),
(72,305,o),
(70,274,cs),
(69,259,o),
(68,243,o),
(68,228,cs),
(68,156,o),
(83,97,o),
(114,55,cs),
(145,13,o),
(192,-12,o),
(255,-12,cs)
);
},
{
closed = 1;
nodes = (
(188,59,o),
(149,119,o),
(149,214,cs),
(149,242,o),
(153,275,o),
(158,304,c),
(179,409,ls),
(198,500,o),
(230,571,o),
(279,610,cs),
(304,629,o),
(332,639,o),
(364,639,cs),
(441,639,o),
(480,579,o),
(480,484,cs),
(480,456,o),
(478,425,o),
(471,394,c),
(450,289,ls),
(433,198,o),
(399,127,o),
(351,88,c),
(326,69,o),
(298,59,o),
(265,59,cs)
);
},
{
closed = 1;
nodes = (
(346,293,o),
(359,318,o),
(364,343,c),
(367,351,o),
(368,362,o),
(368,369,cs),
(368,392,o),
(351,405,o),
(322,405,cs),
(282,405,o),
(269,380,o),
(264,355,cs),
(263,347,o),
(260,336,o),
(260,329,cs),
(260,306,o),
(277,293,o),
(306,293,cs)
);
}
);
width = 600;
},
{
layerId = "76CB80E2-1BCF-4FA8-BCDD-2F5266FDBF6B";
shapes = (
{
closed = 1;
nodes = (
(335,-12,o),
(399,27,o),
(445,88,cs),
(491,149,o),
(522,229,o),
(539,310,cs),
(547,349,o),
(552,388,o),
(555,425,cs),
(556,444,o),
(557,462,o),
(557,479,cs),
(557,556,o),
(542,613,o),
(513,652,cs),
(484,691,o),
(438,710,o),
(378,710,cs),
(297,710,o),
(234,671,o),
(188,610,cs),
(142,549,o),
(110,469,o),
(93,388,cs),
(85,349,o),
(80,310,o),
(77,273,cs),
(76,254,o),
(75,236,o),
(75,219,cs),
(75,142,o),
(90,85,o),
(119,46,cs),
(148,7,o),
(194,-12,o),
(254,-12,cs)
);
},
{
closed = 1;
nodes = (
(138,8,o),
(96,86,o),
(96,219,cs),
(96,254,o),
(99,291,o),
(107,331,cs),
(119,390,ls),
(146,518,o),
(195,608,o),
(264,655,cs),
(298,678,o),
(336,690,o),
(378,690,cs),
(494,690,o),
(536,612,o),
(536,479,cs),
(536,446,o),
(533,407,o),
(525,367,cs),
(513,308,ls),
(488,180,o),
(437,90,o),
(369,43,cs),
(335,20,o),
(297,8,o),
(254,8,cs)
);
},
{
closed = 1;
nodes = (
(332,324,o),
(341,333,o),
(342,345,cs),
(343,350,o),
(344,357,o),
(344,358,cs),
(344,367,o),
(339,374,o),
(323,374,cs),
(306,374,o),
(297,365,o),
(294,353,cs),
(293,348,o),
(292,343,o),
(292,340,cs),
(292,331,o),
(297,324,o),
(313,324,cs)
);
}
);
width = 600;
}
);
},
{
glyphname = zero.alt02;
layers = (
{
layerId = "2ED2F014-92B4-41A8-8CFE-CD21E2CD1218";
shapes = (
{
closed = 1;
nodes = (
(350,-12,o),
(416,21,o),
(470,77,c),
(523,135,o),
(560,214,o),
(578,307,c),
(585,337,o),
(588,365,o),
(590,397,cs),
(591,412,o),
(591,428,o),
(591,443,cs),
(591,494,o),
(584,559,o),
(553,614,cs),
(521,669,o),
(462,710,o),
(357,710,cs),
(278,710,o),
(208,677,o),
(155,620,cs),
(101,563,o),
(64,484,o),
(46,391,cs),
(41,364,o),
(37,333,o),
(35,302,cs),
(34,287,o),
(33,271,o),
(33,255,cs),
(33,208,o),
(40,140,o),
(72,85,cs),
(103,30,o),
(162,-12,o),
(267,-12,cs)
);
},
{
closed = 1;
nodes = (
(241,134,o),
(218,154,o),
(214,185,c),
(294,258,l),
(392,349,l),
(394,349,l),
(393,351,o),
(392,345,o),
(388,332,c),
(387,322,o),
(383,314,o),
(383,313,c),
(377,286,ls),
(363,228,o),
(355,180,o),
(333,155,cs),
(321,141,o),
(305,134,o),
(282,134,cs)
);
},
{
closed = 1;
nodes = (
(385,564,o),
(406,544,o),
(410,513,c),
(330,440,l),
(232,349,l),
(230,349,l),
(231,346,o),
(235,356,o),
(236,366,c),
(240,376,o),
(240,383,o),
(241,385,c),
(247,412,ls),
(259,470,o),
(269,518,o),
(291,545,c),
(303,557,o),
(319,564,o),
(342,564,cs)
);
}
);
width = 600;
},
{
layerId = "BE19BB09-F61D-48A8-8F95-1DC5A5769CFD";
shapes = (
{
closed = 1;
nodes = (
(345,-12,o),
(411,24,o),
(463,84,cs),
(514,144,o),
(549,225,o),
(566,316,c),
(573,347,o),
(576,376,o),
(578,408,cs),
(579,423,o),
(579,439,o),
(579,454,cs),
(579,513,o),
(569,576,o),
(538,626,cs),
(506,676,o),
(452,710,o),
(364,710,cs),
(283,710,o),
(215,674,o),
(164,614,cs),
(112,554,o),
(77,473,o),
(60,382,cs),
(55,353,o),
(51,322,o),
(49,291,cs),
(48,276,o),
(47,260,o),
(47,244,cs),
(47,187,o),
(57,123,o),
(89,73,cs),
(120,23,o),
(174,-12,o),
(262,-12,cs)
);
},
{
closed = 1;
nodes = (
(226,104,o),
(197,131,o),
(189,176,c),
(298,275,l),
(427,393,l),
(429,393,l),
(428,389,o),
(427,380,o),
(424,369,c),
(423,360,o),
(420,350,o),
(419,345,cs),
(407,287,ls),
(392,216,o),
(373,159,o),
(340,128,cs),
(323,112,o),
(302,104,o),
(275,104,cs)
);
},
{
closed = 1;
nodes = (
(402,594,o),
(429,567,o),
(437,522,c),
(328,423,l),
(199,305,l),
(197,305,l),
(198,309,o),
(201,320,o),
(202,329,c),
(205,338,o),
(206,348,o),
(207,353,cs),
(219,411,ls),
(234,482,o),
(253,539,o),
(286,571,c),
(303,586,o),
(324,594,o),
(351,594,cs)
);
}
);
width = 600;
},
{
layerId = "B488FFC1-C82B-453A-B801-8B96DD071204";
shapes = (
{
closed = 1;
nodes = (
(338,-12,o),
(403,29,o),
(452,94,cs),
(500,158,o),
(532,242,o),
(548,330,c),
(555,362,o),
(558,393,o),
(560,425,cs),
(561,440,o),
(561,455,o),
(561,470,cs),
(561,542,o),
(546,602,o),
(515,644,cs),
(484,686,o),
(437,710,o),
(374,710,cs),
(291,710,o),
(226,669,o),
(178,605,cs),
(129,540,o),
(97,456,o),
(81,368,cs),
(76,337,o),
(72,305,o),
(70,274,cs),
(69,259,o),
(68,243,o),
(68,228,cs),
(68,156,o),
(83,97,o),
(114,55,cs),
(145,13,o),
(192,-12,o),
(255,-12,cs)
);
},
{
closed = 1;
nodes = (
(204,59,o),
(165,97,o),
(152,162,c),
(304,300,l),
(479,459,l),
(481,459,l),
(480,446,o),
(479,432,o),
(478,425,cs),
(477,417,o),
(476,404,o),
(473,393,c),
(452,289,ls),
(435,198,o),
(400,127,o),
(351,88,cs),
(326,69,o),
(298,59,o),
(265,59,cs)
);
},
{
closed = 1;
nodes = (
(427,639,o),
(464,601,o),
(477,536,c),
(325,398,l),
(150,239,l),
(148,239,l),
(149,254,o),
(150,266,o),
(151,273,cs),
(152,281,o),
(155,296,o),
(156,305,c),
(177,409,ls),
(196,500,o),
(229,571,o),
(278,610,cs),
(303,629,o),
(331,639,o),
(364,639,cs)
);
}
);
width = 600;
},
{
layerId = "76CB80E2-1BCF-4FA8-BCDD-2F5266FDBF6B";
shapes = (
{
closed = 1;
nodes = (
(335,-12,o),
(399,27,o),
(445,88,cs),
(491,149,o),
(522,229,o),
(539,310,cs),
(547,349,o),
(552,388,o),
(555,425,cs),
(556,444,o),
(557,462,o),
(557,479,cs),
(557,556,o),
(542,613,o),
(513,652,cs),
(484,691,o),
(438,710,o),
(378,710,cs),
(297,710,o),
(234,671,o),
(188,610,cs),
(142,549,o),
(110,469,o),
(93,388,cs),
(85,349,o),
(80,310,o),
(77,273,cs),
(76,254,o),
(75,236,o),
(75,219,cs),
(75,142,o),
(90,85,o),
(119,46,cs),
(148,7,o),
(194,-12,o),
(254,-12,cs)
);
},
{
closed = 1;
nodes = (
(162,8,o),
(116,57,o),
(101,144,c),
(312,333,l),
(532,529,l),
(534,529,l),
(537,514,o),
(536,496,o),
(536,479,cs),
(536,446,o),
(533,407,o),
(525,367,cs),
(513,308,ls),
(488,180,o),
(437,90,o),
(369,43,cs),
(335,20,o),
(297,8,o),
(254,8,cs)
);
},
{
closed = 1;
nodes = (
(470,690,o),
(516,641,o),
(531,554,c),
(320,365,l),
(100,169,l),
(98,169,l),
(97,184,o),
(96,202,o),
(96,219,cs),
(96,254,o),
(99,291,o),
(107,331,cs),
(119,390,ls),
(146,518,o),
(195,608,o),
(264,655,cs),
(298,678,o),
(336,690,o),
(378,690,cs)
);
}
);
width = 600;
}
);
},
{
glyphname = one;
layers = (
{
layerId = "2ED2F014-92B4-41A8-8CFE-CD21E2CD1218";
shapes = (
{
closed = 1;
nodes = (
(508,0,l),
(538,149,l),
(386,149,l),
(496,698,l),
(303,698,l),
(153,625,l),
(118,443,l),
(279,523,l),
(204,149,l),
(39,149,l),
(9,0,l)
);
}
);
width = 600;
},
{
layerId = "BE19BB09-F61D-48A8-8F95-1DC5A5769CFD";
shapes = (
{
closed = 1;
nodes = (
(502,0,l),
(526,118,l),
(363,118,l),
(479,698,l),
(326,698,l),
(162,613,l),
(134,469,l),
(310,560,l),
(221,118,l),
(48,118,l),
(24,0,l)
);
}
);
width = 600;
},
{
layerId = "B488FFC1-C82B-453A-B801-8B96DD071204";
shapes = (
{
closed = 1;
nodes = (
(492,0,l),
(507,72,l),
(327,72,l),
(452,698,l),
(360,698,l),
(175,596,l),
(158,509,l),
(355,615,l),
(246,72,l),
(61,72,l),
(46,0,l)
);
}
);
width = 600;
},
{
layerId = "76CB80E2-1BCF-4FA8-BCDD-2F5266FDBF6B";
shapes = (
{
closed = 1;
nodes = (
(500,0,l),
(504,20,l),
(293,20,l),
(428,698,l),
(404,698,l),
(177,581,l),
(172,556,l),
(401,674,l),
(271,20,l),
(52,20,l),
(48,0,l)
);
}
);
width = 600;
}
);
unicode = 49;
},
{
glyphname = two;
layers = (
{
layerId = "2ED2F014-92B4-41A8-8CFE-CD21E2CD1218";
shapes = (
{
closed = 1;
nodes = (
(530,154,l),
(251,154,l),
(360,223,l),
(456,287,o),
(524,337,o),
(561,398,c),
(578,428,o),
(588,464,o),
(588,504,cs),
(588,589,o),
(547,652,o),
(472,685,c),
(436,702,o),
(391,710,o),
(340,710,cs),
(247,710,o),
(180,674,o),
(132,618,cs),
(109,590,o),
(88,559,o),
(73,526,c),
(228,465,l),
(235,484,o),
(247,502,o),
(264,521,cs),
(280,540,o),
(301,550,o),
(325,550,cs),
(343,550,o),
(369,544,o),
(384,525,cs),
(392,516,o),
(395,502,o),
(395,485,cs),
(395,480,o),
(397,483,o),
(394,472,cs),
(387,439,o),
(375,414,o),
(343,385,c),
(326,371,o),
(304,353,o),
(275,333,cs),
(30,163,l),
(-3,0,l),
(500,0,l)
);
}
);
width = 600;
},
{
layerId = "BE19BB09-F61D-48A8-8F95-1DC5A5769CFD";
shapes = (
{
closed = 1;
nodes = (
(512,121,l),
(205,121,l),
(357,230,ls),
(446,294,o),
(511,347,o),
(546,410,cs),
(563,441,o),
(572,477,o),
(572,517,cs),
(572,594,o),
(535,653,o),
(468,686,cs),
(435,702,o),
(395,710,o),
(349,710,cs),
(262,710,o),
(199,677,o),
(153,624,cs),
(130,597,o),
(110,567,o),
(95,534,c),
(217,485,l),
(228,512,o),
(243,535,o),
(263,555,cs),
(282,575,o),
(307,585,o),
(337,585,cs),
(370,585,o),
(396,571,o),
(410,547,cs),
(417,535,o),
(420,521,o),
(420,505,cs),
(420,496,o),
(420,489,o),
(417,478,cs),
(410,445,o),
(394,413,o),
(359,378,cs),
(341,360,o),
(318,340,o),
(289,319,cs),
(39,134,l),
(12,0,l),
(488,0,l)
);
}
);
width = 600;
},
{
layerId = "B488FFC1-C82B-453A-B801-8B96DD071204";
shapes = (
{
closed = 1;
nodes = (
(485,72,l),
(136,72,l),
(352,241,ls),
(431,304,o),
(491,362,o),
(524,428,cs),
(540,461,o),
(548,497,o),
(548,536,cs),
(548,601,o),
(517,655,o),
(462,687,c),
(434,702,o),
(401,710,o),
(363,710,cs),
(284,710,o),
(227,682,o),
(184,633,cs),
(162,608,o),
(143,579,o),
(128,546,c),
(200,515,l),
(217,554,o),
(237,585,o),
(261,606,cs),
(285,627,o),
(316,637,o),
(355,637,cs),
(410,637,o),
(437,611,o),
(449,580,cs),
(455,564,o),
(458,549,o),
(458,535,cs),
(458,520,o),
(455,498,o),
(452,487,cs),
(445,454,o),
(423,411,o),
(383,367,cs),
(363,344,o),
(339,321,o),
(310,298,cs),
(52,90,l),
(34,0,l),
(470,0,l)
);
}
);
width = 600;
},
{
layerId = "76CB80E2-1BCF-4FA8-BCDD-2F5266FDBF6B";
shapes = (
{
closed = 1;
nodes = (
(470,20,l),
(63,20,l),
(383,289,ls),
(455,350,o),
(501,403,o),
(522,461,cs),
(533,490,o),
(538,521,o),
(538,556,cs),
(538,615,o),
(514,662,o),
(465,690,c),
(440,703,o),
(409,710,o),
(370,710,cs),
(299,710,o),
(242,688,o),
(199,644,c),
(178,621,o),
(160,592,o),
(146,557,c),
(165,551,l),
(185,600,o),
(212,635,o),
(245,657,cs),
(278,679,o),
(319,690,o),
(368,690,cs),
(437,690,o),
(480,666,o),
(501,626,cs),
(512,606,o),
(517,583,o),
(517,556,cs),
(517,545,o),
(517,531,o),
(508,490,c),
(500,447,o),
(473,405,o),
(434,364,cs),
(414,343,o),
(392,323,o),
(367,302,cs),
(38,24,l),
(33,0,l),
(467,0,l)
);
}
);
width = 600;
}
);
unicode = 50;
},
{
glyphname = three;
layers = (
{
layerId = "2ED2F014-92B4-41A8-8CFE-CD21E2CD1218";
shapes = (
{
closed = 1;
nodes = (
(231,434,l),
(201,280,l),
(272,280,ls),
(316,280,o),
(347,258,o),
(347,216,cs),
(347,209,o),
(350,209,o),
(347,198,c),
(340,163,o),
(301,136,o),
(252,136,cs),
(190,136,o),
(153,172,o),
(135,223,c),
(4,128,l),
(24,78,o),
(57,32,o),
(121,8,c),
(153,-6,o),
(192,-12,o),
(242,-12,cs),
(372,-12,o),
(458,29,o),
(505,98,c),
(527,133,o),
(538,172,o),
(538,214,cs),
(538,293,o),
(504,347,o),
(431,361,c),
(432,366,l),
(505,385,o),
(551,416,o),
(577,463,cs),
(589,486,o),
(596,511,o),
(596,541,cs),
(596,608,o),
(558,661,o),
(488,690,c),
(452,703,o),
(410,710,o),
(360,710,cs),
(297,710,o),
(248,701,o),
(209,681,c),
(171,660,o),
(132,633,o),
(96,599,c),
(192,482,l),
(237,538,o),
(280,560,o),
(325,560,cs),
(370,560,o),
(401,536,o),
(401,502,cs),
(401,494,o),
(399,484,o),
(396,473,cs),
(394,464,o),
(362,434,o),
(292,434,cs)
);
}
);
width = 600;
},
{
layerId = "BE19BB09-F61D-48A8-8F95-1DC5A5769CFD";
shapes = (
{
closed = 1;
nodes = (
(231,421,l),
(207,300,l),
(279,300,ls),
(338,300,o),
(373,270,o),
(373,221,cs),
(373,212,o),
(374,206,o),
(371,195,c),
(360,140,o),
(320,106,o),
(253,106,cs),
(180,106,o),
(142,143,o),
(122,196,c),
(17,121,l),
(37,74,o),
(71,31,o),
(132,7,c),
(162,-6,o),
(199,-12,o),
(244,-12,cs),
(363,-12,o),
(445,30,o),
(489,99,c),
(510,134,o),
(521,173,o),
(521,216,cs),
(521,296,o),
(481,349,o),
(410,362,c),
(411,367,l),
(478,383,o),
(526,415,o),
(553,464,cs),
(566,488,o),
(573,515,o),
(573,546,cs),
(573,611,o),
(537,662,o),
(473,690,c),
(441,703,o),
(403,710,o),
(359,710,cs),
(300,710,o),
(253,700,o),
(216,680,cs),
(179,659,o),
(144,632,o),
(113,599,c),
(193,509,l),
(236,568,o),
(281,591,o),
(334,591,cs),
(387,591,o),
(420,564,o),
(420,520,cs),
(420,512,o),
(419,503,o),
(416,492,c),
(408,452,o),
(369,421,o),
(296,421,cs)
);
}
);
width = 600;
},
{
layerId = "B488FFC1-C82B-453A-B801-8B96DD071204";
shapes = (
{
closed = 1;
nodes = (
(231,401,l),
(216,330,l),
(290,330,ls),
(371,330,o),
(412,288,o),
(412,228,cs),
(412,216,o),
(410,202,o),
(407,191,c),
(390,106,o),
(349,61,o),
(254,61,cs),
(165,61,o),
(126,99,o),
(103,156,c),
(37,111,l),
(56,68,o),
(92,29,o),
(148,6,cs),
(176,-6,o),
(209,-12,o),
(247,-12,cs),
(350,-12,o),
(425,31,o),
(465,100,cs),
(485,135,o),
(495,174,o),
(495,219,cs),
(495,300,o),
(446,352,o),
(379,363,c),
(380,368,l),
(437,380,o),
(488,414,o),
(517,466,cs),
(531,491,o),
(538,521,o),
(538,554,cs),
(538,615,o),
(506,663,o),
(451,690,cs),
(424,703,o),
(392,710,o),
(357,710,cs),
(304,710,o),
(261,699,o),
(226,678,cs),
(191,657,o),
(162,630,o),
(139,599,c),
(195,550,l),
(234,613,o),
(282,637,o),
(347,637,cs),
(412,637,o),
(449,606,o),
(449,547,cs),
(449,539,o),
(449,532,o),
(446,521,c),
(429,434,o),
(379,401,o),
(302,401,cs)
);
}
);
width = 600;
},
{
layerId = "76CB80E2-1BCF-4FA8-BCDD-2F5266FDBF6B";
shapes = (
{
closed = 1;
nodes = (
(211,376,l),
(207,356,l),
(302,356,ls),
(407,356,o),
(459,300,o),
(459,216,cs),
(459,207,o),
(458,195,o),
(451,160,cs),
(434,67,o),
(355,8,o),
(246,8,cs),
(151,8,o),
(88,36,o),
(57,105,c),
(40,95,l),
(61,46,o),
(102,15,o),
(156,-1,c),
(183,-8,o),
(212,-12,o),
(245,-12,cs),
(338,-12,o),
(411,27,o),
(451,95,cs),
(471,129,o),
(481,169,o),
(481,216,cs),
(481,297,o),
(430,354,o),
(361,363,c),
(362,366,l),
(433,377,o),
(484,411,o),
(512,466,cs),
(526,493,o),
(533,525,o),
(533,560,cs),
(533,624,o),
(501,669,o),
(450,693,cs),
(425,704,o),
(396,710,o),
(363,710,cs),
(310,710,o),
(267,700,o),
(234,681,cs),
(200,662,o),
(173,634,o),
(154,599,c),
(172,590,l),
(212,659,o),
(267,690,o),
(360,690,cs),
(453,690,o),
(511,641,o),
(511,558,cs),
(511,547,o),
(511,539,o),
(504,512,c),
(485,425,o),
(413,376,o),
(305,376,cs)
);
}
);
width = 600;
}
);
unicode = 51;
},
{
glyphname = four;
layers = (
{
layerId = "2ED2F014-92B4-41A8-8CFE-CD21E2CD1218";
shapes = (
{
closed = 1;
nodes = (
(441,0,l),
(467,132,l),
(545,132,l),
(574,273,l),
(494,273,l),
(581,698,l),
(372,698,l),
(29,291,l),
(-3,132,l),
(295,132,l),
(268,0,l)
);
},
{
closed = 1;
nodes = (
(349,482,l),
(365,482,l),
(322,273,l),
(177,273,l)
);
}
);
width = 600;
},
{
layerId = "BE19BB09-F61D-48A8-8F95-1DC5A5769CFD";
shapes = (
{
closed = 1;
nodes = (
(424,0,l),
(451,134,l),
(536,134,l),
(559,246,l),
(473,246,l),
(564,698,l),
(392,698,l),
(36,261,l),
(11,134,l),
(316,134,l),
(289,0,l)
);
},
{
closed = 1;
nodes = (
(385,534,l),
(396,534,l),
(338,246,l),
(154,246,l)
);
}
);
width = 600;
},
{
layerId = "B488FFC1-C82B-453A-B801-8B96DD071204";
shapes = (
{
closed = 1;
nodes = (
(399,0,l),
(427,137,l),
(523,137,l),
(536,205,l),
(441,205,l),
(539,698,l),
(422,698,l),
(47,216,l),
(32,137,l),
(348,137,l),
(320,0,l)
);
},
{
closed = 1;
nodes = (
(439,612,l),
(443,612,l),
(362,205,l),
(120,205,l)
);
}
);
width = 600;
},
{
layerId = "76CB80E2-1BCF-4FA8-BCDD-2F5266FDBF6B";
shapes = (
{
closed = 1;
nodes = (
(379,0,l),
(411,160,l),
(528,160,l),
(532,179,l),
(415,179,l),
(519,698,l),
(490,698,l),
(29,181,l),
(25,160,l),
(390,160,l),
(358,0,l)
);
},
{
closed = 1;
nodes = (
(489,670,l),
(492,670,l),
(394,179,l),
(53,179,l)
);
}
);
width = 600;
}
);
unicode = 52;
},
{
glyphname = five;
layers = (
{
layerId = "2ED2F014-92B4-41A8-8CFE-CD21E2CD1218";
shapes = (
{
closed = 1;
nodes = (
(600,698,l),
(156,698,l),
(50,300,l),
(193,281,l),
(199,289,o),
(211,296,o),
(226,306,c),
(241,314,o),
(261,318,o),
(285,318,cs),
(325,318,o),
(358,295,o),
(358,251,cs),
(358,239,o),
(357,230,o),
(354,215,cs),
(347,181,o),
(315,138,o),
(255,138,cs),
(228,138,o),
(205,147,o),
(186,164,cs),
(167,181,o),
(155,200,o),
(149,224,c),
(-1,131,l),
(21,81,o),
(54,34,o),
(118,8,cs),
(152,-6,o),
(195,-12,o),
(250,-12,cs),
(351,-12,o),
(430,24,o),
(481,78,cs),
(533,132,o),
(560,201,o),
(560,265,cs),
(560,354,o),
(532,414,o),
(480,445,cs),
(454,461,o),
(422,468,o),
(386,468,cs),
(296,468,o),
(252,422,o),
(211,343,c),
(200,343,l),
(250,536,l),
(569,536,l)
);
}
);
width = 600;
},
{
layerId = "BE19BB09-F61D-48A8-8F95-1DC5A5769CFD";
shapes = (
{
closed = 1;
nodes = (
(589,698,l),
(179,698,l),
(77,303,l),
(190,287,l),
(201,300,o),
(216,311,o),
(234,322,cs),
(252,332,o),
(274,337,o),
(300,337,cs),
(356,337,o),
(390,306,o),
(390,253,cs),
(390,238,o),
(388,227,o),
(385,212,cs),
(373,152,o),
(333,107,o),
(262,107,cs),
(228,107,o),
(201,116,o),
(181,133,cs),
(160,150,o),
(146,171,o),
(138,197,c),
(22,123,l),
(42,76,o),
(76,32,o),
(137,7,cs),
(168,-6,o),
(207,-12,o),
(255,-12,cs),
(348,-12,o),
(421,21,o),
(470,73,cs),
(519,125,o),
(545,193,o),
(545,262,cs),
(545,345,o),
(515,403,o),
(463,433,cs),
(437,448,o),
(406,455,o),
(371,455,cs),
(288,455,o),
(247,417,o),
(208,346,c),
(199,346,l),
(256,572,l),
(564,572,l)
);
}
);
width = 600;
},
{
layerId = "B488FFC1-C82B-453A-B801-8B96DD071204";
shapes = (
{
closed = 1;
nodes = (
(572,698,l),
(213,698,l),
(117,307,l),
(185,296,l),
(204,316,o),
(224,333,o),
(246,346,cs),
(268,359,o),
(293,365,o),
(322,365,cs),
(403,365,o),
(438,323,o),
(438,256,cs),
(438,237,o),
(435,223,o),
(432,208,cs),
(412,109,o),
(360,61,o),
(273,61,cs),
(228,61,o),
(195,70,o),
(173,87,cs),
(150,104,o),
(133,127,o),
(122,156,c),
(56,111,l),
(73,68,o),
(109,29,o),
(165,6,c),
(192,-6,o),
(225,-12,o),
(263,-12,cs),
(343,-12,o),
(408,17,o),
(453,66,cs),
(498,115,o),
(522,181,o),
(522,257,cs),
(522,332,o),
(490,386,o),
(438,415,cs),
(412,429,o),
(382,436,o),
(349,436,cs),
(276,436,o),
(239,410,o),
(204,351,c),
(197,351,l),
(265,626,l),
(557,626,l)
);
}
);
width = 600;
},
{
layerId = "76CB80E2-1BCF-4FA8-BCDD-2F5266FDBF6B";
shapes = (
{
closed = 1;
nodes = (
(575,698,l),
(233,698,l),
(133,326,l),
(157,323,l),
(182,346,o),
(207,364,o),
(232,376,cs),
(257,387,o),
(289,393,o),
(328,393,cs),
(435,393,o),
(483,337,o),
(483,245,cs),
(483,233,o),
(482,218,o),
(474,178,cs),
(454,75,o),
(384,8,o),
(259,8,cs),
(221,8,o),
(185,15,o),
(152,30,c),
(118,44,o),
(93,69,o),
(78,105,c),
(61,95,l),
(82,46,o),
(124,15,o),
(177,-1,c),
(203,-8,o),
(231,-12,o),
(260,-12,cs),
(333,-12,o),
(394,12,o),
(438,56,cs),
(481,100,o),
(505,165,o),
(505,245,cs),
(505,316,o),
(479,366,o),
(427,393,cs),
(401,406,o),
(368,413,o),
(329,413,cs),
(258,413,o),
(206,394,o),
(161,343,c),
(158,344,l),
(248,678,l),
(572,678,l)
);
}
);
width = 600;
}
);
unicode = 53;
},
{
glyphname = six;
layers = (
{
layerId = "BE19BB09-F61D-48A8-8F95-1DC5A5769CFD";
shapes = (
{
closed = 1;
nodes = (
(159,-12,o),
(45,115,o),
(45,223,qs),
(45,242,o),
(48,279,o),
(52,297,qs),
(69,384,o),
(165,535,o),
(299,657,o),
(370,698,q),
(390,698,l),
(512,657,l),
(485,641,o),
(341,536,o),
(241,421,o),
(215,347,q),
(223,344,l),
(240,371,o),
(282,419,o),
(342,449,o),
(384,449,qs),
(461,449,o),
(550,343,o),
(550,257,qs),
(550,244,o),
(547,217,o),
(545,204,qs),
(534,145,o),
(460,46,o),
(342,-12,o),
(264,-12,qs)
);
},
{
closed = 1;
nodes = (
(310,102,o),
(359,127,o),
(390,174,o),
(396,206,qs),
(398,217,o),
(401,239,o),
(401,249,qs),
(401,290,o),
(357,337,o),
(312,337,qs),
(279,337,o),
(230,312,o),
(200,266,o),
(193,233,qs),
(191,222,o),
(188,201,o),
(188,190,qs),
(188,150,o),
(232,102,o),
(277,102,qs)
);
}
);
width = 600;
},
{
layerId = "B488FFC1-C82B-453A-B801-8B96DD071204";
shapes = (
{
closed = 1;
nodes = (
(173,-12,o),
(70,100,o),
(70,202,qs),
(70,222,o),
(74,262,o),
(78,281,qs),
(95,367,o),
(191,527,o),
(325,658,o),
(398,698,q),
(410,698,l),
(469,671,l),
(428,647,o),
(290,530,o),
(194,404,o),
(174,337,q),
(178,335,l),
(200,371,o),
(248,414,o),
(303,434,o),
(335,434,qs),
(417,434,o),
(518,333,o),
(518,245,qs),
(518,231,o),
(515,204,o),
(513,190,qs),
(502,131,o),
(433,39,o),
(331,-12,o),
(268,-12,qs)
);
},
{
closed = 1;
nodes = (
(315,60,o),
(380,96,o),
(423,160,o),
(431,202,qs),
(433,210,o),
(435,229,o),
(435,238,qs),
(435,297,o),
(371,363,o),
(312,363,qs),
(269,363,o),
(203,327,o),
(161,264,o),
(152,221,qs),
(151,214,o),
(148,194,o),
(148,185,qs),
(148,126,o),
(213,60,o),
(271,60,qs)
);
}
);
width = 600;
},
{
layerId = "76CB80E2-1BCF-4FA8-BCDD-2F5266FDBF6B";
shapes = (
{
closed = 1;
nodes = (
(172,-12,o),
(85,89,o),
(85,168,qs),
(85,189,o),
(89,231,o),
(93,251,qs),
(111,343,o),
(214,509,o),
(368,649,o),
(460,698,q),
(470,698,l),
(477,688,l),
(395,642,o),
(252,520,o),
(155,381,o),
(125,297,q),
(128,296,l),
(151,340,o),
(217,393,o),
(297,416,o),
(339,416,qs),
(421,416,o),
(518,325,o),
(518,245,qs),
(518,231,o),
(515,204,o),
(513,191,qs),
(502,133,o),
(434,41,o),
(331,-12,o),
(267,-12,qs)
);
},
{
closed = 1;
nodes = (
(325,8,o),
(419,54,o),
(480,134,o),
(488,183,qs),
(493,213,o),
(496,238,o),
(496,245,qs),
(496,312,o),
(418,396,o),
(336,396,qs),
(277,396,o),
(184,350,o),
(124,271,o),
(114,221,qs),
(109,192,o),
(106,168,o),
(106,160,qs),
(106,93,o),
(184,8,o),
(266,8,qs)
);
}
);
width = 600;
},
{
layerId = "2ED2F014-92B4-41A8-8CFE-CD21E2CD1218";
shapes = (
{
closed = 1;
nodes = (
(150,-12,o),
(28,125,o),
(28,237,qs),
(28,255,o),
(31,290,o),
(35,308,qs),
(52,395,o),
(148,540,o),
(282,656,o),
(351,698,q),
(377,698,l),
(541,648,l),
(523,637,o),
(375,540,o),
(272,432,o),
(242,354,q),
(253,350,l),
(267,371,o),
(305,422,o),
(368,459,o),
(417,459,qs),
(490,459,o),
(571,350,o),
(571,265,qs),
(571,253,o),
(568,226,o),
(566,213,qs),
(555,154,o),
(478,51,o),
(349,-12,o),
(261,-12,qs)
);
},
{
closed = 1;
nodes = (
(307,130,o),
(345,148,o),
(368,183,o),
(373,209,qs),
(375,222,o),
(378,246,o),
(378,256,qs),
(378,285,o),
(348,320,o),
(312,320,qs),
(286,320,o),
(248,302,o),
(226,267,o),
(220,241,q),
(218,227,o),
(215,206,o),
(215,193,qs),
(215,166,o),
(245,130,o),
(281,130,qs)
);
}
);
width = 600;
}
);
unicode = 54;
},
{
glyphname = seven;
layers = (
{
layerId = "2ED2F014-92B4-41A8-8CFE-CD21E2CD1218";
shapes = (
{
closed = 1;
nodes = (
(292,0,l),
(609,549,l),
(638,698,l),
(129,698,l),
(100,555,l),
(435,555,l),
(105,0,l)
);
}
);
width = 600;
},
{
layerId = "BE19BB09-F61D-48A8-8F95-1DC5A5769CFD";
shapes = (
{
closed = 1;
nodes = (
(261,0,l),
(600,577,l),
(624,698,l),
(144,698,l),
(121,584,l),
(464,584,l),
(114,0,l)
);
}
);
width = 600;
},
{
layerId = "B488FFC1-C82B-453A-B801-8B96DD071204";
shapes = (
{
closed = 1;
nodes = (
(214,0,l),
(587,619,l),
(603,698,l),
(166,698,l),
(152,627,l),
(507,627,l),
(128,0,l)
);
}
);
width = 600;
},
{
layerId = "76CB80E2-1BCF-4FA8-BCDD-2F5266FDBF6B";
shapes = (
{
closed = 1;
nodes = (
(169,0,l),
(604,678,l),
(608,698,l),
(173,698,l),
(169,678,l),
(579,678,l),
(144,0,l)
);
}
);
width = 600;
}
);
unicode = 55;
},
{
glyphname = eight;
layers = (
{
layerId = "2ED2F014-92B4-41A8-8CFE-CD21E2CD1218";
shapes = (
{
closed = 1;
nodes = (
(379,-12,o),
(469,40,o),
(515,107,c),
(539,140,o),
(550,172,o),
(550,202,cs),
(550,297,o),
(515,337,o),
(454,360,c),
(454,368,l),
(507,392,o),
(551,425,o),
(577,470,cs),
(590,492,o),
(596,518,o),
(596,549,cs),
(596,644,o),
(531,710,o),
(377,710,cs),
(243,710,o),
(164,661,o),
(127,598,cs),
(108,567,o),
(98,536,o),
(98,505,cs),
(98,432,o),
(130,387,o),
(178,364,c),
(177,358,l),
(115,339,o),
(64,304,o),
(37,253,cs),
(23,227,o),
(16,196,o),
(16,162,cs),
(16,110,o),
(35,69,o),
(72,37,cs),
(109,5,o),
(169,-12,o),
(252,-12,cs)
);
},
{
closed = 1;
nodes = (
(227,127,o),
(205,148,o),
(205,186,cs),
(205,197,o),
(206,203,o),
(209,218,cs),
(215,244,o),
(229,264,o),
(254,275,cs),
(266,280,o),
(281,284,o),
(296,284,cs),
(338,284,o),
(357,263,o),
(357,226,cs),
(357,215,o),
(356,209,o),
(353,194,cs),
(349,169,o),
(333,148,o),
(309,136,cs),
(298,131,o),
(283,127,o),
(266,127,cs)
);
},
{
closed = 1;
nodes = (
(283,425,o),
(267,443,o),
(267,468,cs),
(267,475,o),
(270,491,o),
(274,509,cs),
(279,534,o),
(302,565,o),
(353,565,cs),
(396,565,o),
(412,546,o),
(412,521,cs),
(412,514,o),
(408,496,o),
(405,480,cs),
(399,454,o),
(377,425,o),
(326,425,cs)
);
}
);
width = 600;
},
{
layerId = "BE19BB09-F61D-48A8-8F95-1DC5A5769CFD";
shapes = (
{
closed = 1;
nodes = (
(376,-12,o),
(460,36,o),
(504,104,cs),
(526,138,o),
(537,173,o),
(537,210,cs),
(537,294,o),
(500,340,o),
(436,360,c),
(437,368,l),
(494,389,o),
(538,425,o),
(563,472,cs),
(575,495,o),
(581,521,o),
(581,550,cs),
(581,645,o),
(514,710,o),
(375,710,cs),
(258,710,o),
(182,666,o),
(144,603,cs),
(125,572,o),
(115,539,o),
(115,505,cs),
(115,437,o),
(146,391,o),
(199,368,c),
(198,361,l),
(130,346,o),
(79,308,o),
(52,255,cs),
(38,228,o),
(31,198,o),
(31,165,cs),
(31,113,o),
(50,71,o),
(87,38,cs),
(124,5,o),
(180,-12,o),
(257,-12,cs)
);
},
{
closed = 1;
nodes = (
(210,100,o),
(178,129,o),
(178,177,cs),
(178,190,o),
(179,198,o),
(182,213,cs),
(190,250,o),
(210,277,o),
(243,292,cs),
(259,299,o),
(278,303,o),
(299,303,cs),
(358,303,o),
(388,274,o),
(388,226,cs),
(388,213,o),
(387,205,o),
(384,190,cs),
(377,154,o),
(356,126,o),
(324,111,cs),
(308,104,o),
(289,100,o),
(267,100,cs)
);
},
{
closed = 1;
nodes = (
(274,415,o),
(247,441,o),
(247,480,cs),
(247,488,o),
(250,502,o),
(253,516,cs),
(262,560,o),
(296,595,o),
(357,595,cs),
(411,595,o),
(438,568,o),
(438,529,cs),
(438,521,o),
(435,507,o),
(432,493,cs),
(423,450,o),
(389,415,o),
(328,415,cs)
);
}
);
width = 600;
},
{
layerId = "B488FFC1-C82B-453A-B801-8B96DD071204";
shapes = (
{
closed = 1;
nodes = (
(371,-12,o),
(447,30,o),
(487,100,cs),
(507,135,o),
(517,175,o),
(517,222,cs),
(517,289,o),
(477,345,o),
(409,360,c),
(411,368,l),
(475,384,o),
(519,425,o),
(542,475,cs),
(553,500,o),
(559,525,o),
(559,551,cs),
(559,646,o),
(489,710,o),
(372,710,cs),
(281,710,o),
(209,673,o),
(170,611,cs),
(150,580,o),
(140,544,o),
(140,505,cs),
(140,444,o),
(170,397,o),
(231,374,c),
(229,366,l),
(153,357,o),
(101,314,o),
(74,258,cs),
(61,230,o),
(54,201,o),
(54,170,cs),
(54,117,o),
(72,74,o),
(109,40,cs),
(146,5,o),
(197,-12,o),
(264,-12,cs)
);
},
{
closed = 1;
nodes = (
(184,59,o),
(137,100,o),
(137,164,cs),
(137,180,o),
(139,191,o),
(142,206,cs),
(153,259,o),
(182,297,o),
(227,317,cs),
(249,327,o),
(274,332,o),
(303,332,cs),
(388,332,o),
(435,290,o),
(435,226,cs),
(435,210,o),
(433,199,o),
(430,184,cs),
(419,131,o),
(390,93,o),
(346,74,cs),
(323,64,o),
(298,59,o),
(269,59,cs)
);
},
{
closed = 1;
nodes = (
(260,400,o),
(218,438,o),
(218,497,cs),
(218,508,o),
(220,518,o),
(221,527,c),
(236,598,o),
(286,639,o),
(362,639,cs),
(434,639,o),
(476,601,o),
(476,542,cs),
(476,531,o),
(476,523,o),
(473,512,c),
(460,443,o),
(408,400,o),
(332,400,cs)
);
}
);
width = 600;
},
{
layerId = "76CB80E2-1BCF-4FA8-BCDD-2F5266FDBF6B";
shapes = (
{
closed = 1;
nodes = (
(346,-12,o),
(427,27,o),
(472,94,cs),
(495,127,o),
(506,166,o),
(506,209,cs),
(506,290,o),
(467,341,o),
(388,362,c),
(389,366,l),
(453,379,o),
(504,416,o),
(532,470,cs),
(546,497,o),
(553,527,o),
(553,561,cs),
(553,652,o),
(487,710,o),
(372,710,cs),
(283,710,o),
(209,674,o),
(169,614,cs),
(149,583,o),
(139,547,o),
(139,506,cs),
(139,434,o),
(175,388,o),
(242,371,c),
(242,367,l),
(165,355,o),
(104,315,o),
(72,255,cs),
(55,225,o),
(47,191,o),
(47,154,cs),
(47,104,o),
(64,64,o),
(99,34,c),
(133,3,o),
(182,-12,o),
(245,-12,cs)
);
},
{
closed = 1;
nodes = (
(133,8,o),
(70,66,o),
(70,150,cs),
(70,159,o),
(71,167,o),
(76,200,c),
(88,263,o),
(133,311,o),
(198,337,cs),
(231,350,o),
(267,356,o),
(307,356,cs),
(422,356,o),
(484,298,o),
(484,214,cs),
(484,205,o),
(484,197,o),
(477,164,c),
(466,101,o),
(421,54,o),
(356,28,cs),
(323,15,o),
(287,8,o),
(246,8,cs)
);
},
{
closed = 1;
nodes = (
(219,376,o),
(162,424,o),
(162,501,cs),
(162,509,o),
(163,518,o),
(168,550,c),
(185,637,o),
(261,690,o),
(370,690,cs),
(473,690,o),
(530,642,o),
(530,565,cs),
(530,557,o),
(530,548,o),
(523,516,c),
(507,431,o),
(431,376,o),
(322,376,cs)
);
}
);
width = 600;
}
);
unicode = 56;
},
{
glyphname = nine;
leftMetricsKey = "=28";
rightMetricsKey = "=70";
layers = (
{
layerId = "BE19BB09-F61D-48A8-8F95-1DC5A5769CFD";
leftMetricsKey = "=47";
shapes = (
{
closed = 1;
nodes = (
(477,710,o),
(591,583,o),
(591,475,qs),
(591,456,o),
(588,419,o),
(584,401,qs),
(567,314,o),
(471,163,o),
(337,41,o),
(266,0,q),
(246,0,l),
(124,41,l),
(151,57,o),
(295,162,o),
(395,277,o),
(421,351,q),
(413,354,l),
(396,327,o),
(354,279,o),
(294,249,o),
(252,249,qs),
(175,249,o),
(86,355,o),
(86,441,qs),
(86,454,o),
(89,481,o),
(91,494,qs),
(102,553,o),
(176,652,o),
(294,710,o),
(372,710,qs)
);
},
{
closed = 1;
nodes = (
(326,596,o),
(277,571,o),
(246,524,o),
(240,492,qs),
(238,481,o),
(235,459,o),
(235,449,qs),
(235,408,o),
(279,361,o),
(324,361,qs),
(357,361,o),
(406,386,o),
(436,432,o),
(443,465,qs),
(445,476,o),
(448,497,o),
(448,508,qs),
(448,548,o),
(404,596,o),
(359,596,qs)
);
}
);
width = 600;
},
{
layerId = "B488FFC1-C82B-453A-B801-8B96DD071204";
leftMetricsKey = "=76";
shapes = (
{
closed = 1;
nodes = (
(462,710,o),
(565,598,o),
(565,496,qs),
(565,476,o),
(561,436,o),
(557,417,qs),
(540,331,o),
(444,171,o),
(310,40,o),
(237,0,q),
(225,0,l),
(166,27,l),
(207,51,o),
(345,168,o),
(441,294,o),
(461,361,q),
(457,363,l),
(435,327,o),
(387,284,o),
(332,264,o),
(300,264,qs),
(218,264,o),
(117,365,o),
(117,453,qs),
(117,467,o),
(120,494,o),
(122,508,qs),
(133,567,o),
(202,659,o),
(304,710,o),
(367,710,qs)
);
},
{
closed = 1;
nodes = (
(320,638,o),
(255,602,o),
(212,538,o),
(204,496,qs),
(202,488,o),
(200,469,o),
(200,460,qs),
(200,401,o),
(264,335,o),
(323,335,qs),
(366,335,o),
(432,371,o),
(474,434,o),
(483,477,qs),
(484,484,o),
(487,504,o),
(487,513,qs),
(487,572,o),
(422,638,o),
(364,638,qs)
);
}
);
width = 600;
},
{
layerId = "76CB80E2-1BCF-4FA8-BCDD-2F5266FDBF6B";
leftMetricsKey = "=97";
shapes = (
{
closed = 1;
nodes = (
(487,710,o),
(574,609,o),
(574,530,qs),
(574,509,o),
(570,467,o),
(566,447,qs),
(548,355,o),
(445,189,o),
(291,49,o),
(199,0,q),
(189,0,l),
(182,10,l),
(264,56,o),
(407,178,o),
(504,317,o),
(534,401,q),
(531,402,l),
(508,358,o),
(442,305,o),
(362,282,o),
(320,282,qs),
(238,282,o),
(141,373,o),
(141,453,qs),
(141,467,o),
(144,494,o),
(146,507,qs),
(157,565,o),
(225,657,o),
(328,710,o),
(392,710,qs)
);
},
{
closed = 1;
nodes = (
(334,690,o),
(240,644,o),
(179,564,o),
(171,515,qs),
(166,485,o),
(163,460,o),
(163,453,qs),
(163,386,o),
(241,302,o),
(323,302,qs),
(382,302,o),
(475,348,o),
(535,427,o),
(545,477,qs),
(550,506,o),
(553,530,o),
(553,538,qs),
(553,605,o),
(475,690,o),
(393,690,qs)
);
}
);
width = 600;
},
{
layerId = "2ED2F014-92B4-41A8-8CFE-CD21E2CD1218";
shapes = (
{
closed = 1;
nodes = (
(487,710,o),
(609,573,o),
(609,461,qs),
(609,443,o),
(606,408,o),
(602,390,qs),
(585,303,o),
(489,158,o),
(355,42,o),
(286,0,q),
(260,0,l),
(96,50,l),
(114,61,o),
(262,158,o),
(365,266,o),
(395,344,q),
(384,348,l),
(370,327,o),
(332,276,o),
(269,239,o),
(220,239,qs),
(147,239,o),
(66,348,o),
(66,433,qs),
(66,445,o),
(69,472,o),
(71,485,qs),
(82,544,o),
(159,647,o),
(288,710,o),
(376,710,qs)
);
},
{
closed = 1;
nodes = (
(330,568,o),
(292,550,o),
(269,515,o),
(264,489,qs),
(262,476,o),
(259,452,o),
(259,442,qs),
(259,413,o),
(289,378,o),
(325,378,qs),
(351,378,o),
(389,396,o),
(411,431,o),
(417,457,q),
(419,471,o),
(422,492,o),
(422,505,qs),
(422,532,o),
(392,568,o),
(356,568,qs)
);
}
);
width = 600;
}
);
unicode = 57;
},
{
glyphname = zero.osf;
layers = (
{
layerId = "2ED2F014-92B4-41A8-8CFE-CD21E2CD1218";
shapes = (
{
closed = 1;
nodes = (
(380,-12,o),
(460,25,o),
(519,86,cs),
(576,145,o),
(606,227,o),
(606,317,cs),
(606,425,o),
(562,498,o),
(487,535,c),
(448,556,o),
(404,565,o),
(353,565,cs),
(252,565,o),
(173,528,o),
(116,467,cs),
(59,406,o),
(29,326,o),
(29,236,cs),
(29,131,o),
(73,55,o),
(150,17,c),
(187,-3,o),
(231,-12,o),
(282,-12,cs)
);
},
{
closed = 1;
nodes = (
(258,130,o),
(234,141,o),
(221,162,cs),
(215,173,o),
(212,186,o),
(212,199,cs),
(212,200,o),
(212,207,o),
(213,221,c),
(235,328,ls),
(248,391,o),
(284,422,o),
(340,422,cs),
(376,422,o),
(400,411,o),
(413,392,cs),
(420,381,o),
(423,368,o),
(423,353,cs),
(423,352,o),
(424,344,o),
(421,332,c),
(400,225,ls),
(387,162,o),
(350,130,o),
(295,130,cs)
);
}
);
width = 634;
},
{
layerId = "BE19BB09-F61D-48A8-8F95-1DC5A5769CFD";
shapes = (
{
closed = 1;
nodes = (
(357,-12,o),
(433,25,o),
(489,86,cs),
(544,146,o),
(574,228,o),
(574,319,cs),
(574,422,o),
(535,493,o),
(467,530,cs),
(432,549,o),
(392,558,o),
(345,558,cs),
(252,558,o),
(176,521,o),
(121,460,cs),
(66,399,o),
(36,318,o),
(36,227,cs),
(36,126,o),
(75,53,o),
(144,16,cs),
(178,-3,o),
(218,-12,o),
(265,-12,cs)
);
},
{
closed = 1;
nodes = (
(234,101,o),
(204,116,o),
(188,144,cs),
(180,158,o),
(176,175,o),
(176,194,cs),
(176,202,o),
(178,213,o),
(179,225,c),
(198,319,ls),
(214,399,o),
(262,445,o),
(333,445,cs),
(376,445,o),
(406,430,o),
(422,403,cs),
(430,389,o),
(434,372,o),
(434,352,cs),
(434,344,o),
(434,333,o),
(431,321,c),
(412,227,ls),
(396,147,o),
(348,101,o),
(277,101,cs)
);
}
);
width = 612;
},
{
layerId = "B488FFC1-C82B-453A-B801-8B96DD071204";
shapes = (
{
closed = 1;
nodes = (
(322,-12,o),
(392,25,o),
(444,86,cs),
(496,147,o),
(526,230,o),
(526,322,cs),
(526,418,o),
(494,486,o),
(437,522,c),
(408,539,o),
(374,548,o),
(333,548,cs),
(252,548,o),
(180,511,o),
(128,450,cs),
(76,389,o),
(46,306,o),
(46,214,cs),
(46,119,o),
(78,50,o),
(135,15,cs),
(164,-3,o),
(198,-12,o),
(239,-12,cs)
);
},
{
closed = 1;
nodes = (
(198,57,o),
(158,78,o),
(138,117,c),
(127,136,o),
(122,159,o),
(122,186,cs),
(122,205,o),
(126,222,o),
(127,231,c),
(142,306,ls),
(163,411,o),
(229,479,o),
(322,479,cs),
(375,479,o),
(414,458,o),
(435,420,cs),
(445,401,o),
(450,378,o),
(450,351,cs),
(450,332,o),
(448,316,o),
(445,305,c),
(430,230,ls),
(409,125,o),
(345,57,o),
(250,57,cs)
);
}
);
width = 580;
},
{
layerId = "76CB80E2-1BCF-4FA8-BCDD-2F5266FDBF6B";
shapes = (
{
closed = 1;
nodes = (
(330,-12,o),
(399,28,o),
(445,96,cs),
(491,163,o),
(514,251,o),
(514,347,cs),
(514,418,o),
(485,479,o),
(430,513,cs),
(402,530,o),
(368,538,o),
(327,538,cs),
(236,538,o),
(168,498,o),
(122,431,cs),
(76,363,o),
(52,275,o),
(52,179,cs),
(52,108,o),
(81,48,o),
(137,14,cs),
(165,-4,o),
(199,-12,o),
(239,-12,cs)
);
},
{
closed = 1;
nodes = (
(164,7,o),
(114,41,o),
(91,94,cs),
(79,120,o),
(73,148,o),
(73,179,cs),
(73,206,o),
(74,230,o),
(78,251,cs),
(86,291,ls),
(114,434,o),
(200,519,o),
(325,519,cs),
(404,519,o),
(452,485,o),
(476,433,c),
(487,407,o),
(493,378,o),
(493,347,cs),
(493,322,o),
(492,298,o),
(488,275,cs),
(480,235,ls),
(452,94,o),
(366,7,o),
(241,7,cs)
);
}
);
width = 578;
}
);
},
{
glyphname = zero.alt01.osf;
layers = (
{
layerId = "2ED2F014-92B4-41A8-8CFE-CD21E2CD1218";
shapes = (
{
closed = 1;
nodes = (
(380,-12,o),
(460,25,o),
(519,86,cs),
(576,145,o),
(606,227,o),
(606,317,cs),
(606,425,o),
(562,498,o),
(487,535,c),
(448,556,o),
(404,565,o),
(353,565,cs),
(252,565,o),
(173,528,o),
(116,467,cs),
(59,406,o),
(29,326,o),
(29,236,cs),
(29,131,o),
(73,55,o),
(150,17,c),
(187,-3,o),
(231,-12,o),
(282,-12,cs)
);
},
{
closed = 1;
nodes = (
(258,130,o),
(234,141,o),
(221,162,cs),
(215,173,o),
(212,186,o),
(212,199,cs),
(212,200,o),
(212,207,o),
(213,221,c),
(235,328,ls),
(248,391,o),
(284,422,o),
(340,422,cs),
(376,422,o),
(400,411,o),
(413,392,cs),
(420,381,o),
(423,368,o),
(423,353,cs),
(423,352,o),
(424,344,o),
(421,332,c),
(400,225,ls),
(387,162,o),
(350,130,o),
(295,130,cs)
);
},
{
closed = 1;
nodes = (
(346,210,o),
(375,229,o),
(380,262,c),
(383,275,o),
(386,289,o),
(386,298,cs),
(386,316,o),
(376,342,o),
(329,342,cs),
(292,342,o),
(263,324,o),
(255,291,c),
(254,281,o),
(249,263,o),
(249,255,cs),
(249,236,o),
(262,210,o),
(305,210,cs)
);
}
);
width = 634;
},
{
layerId = "BE19BB09-F61D-48A8-8F95-1DC5A5769CFD";
shapes = (
{
closed = 1;
nodes = (
(357,-12,o),
(433,25,o),
(489,86,cs),
(544,146,o),
(574,228,o),
(574,319,cs),
(574,422,o),
(535,493,o),
(467,530,cs),
(432,549,o),
(392,558,o),
(345,558,cs),
(252,558,o),
(176,521,o),
(121,460,cs),
(66,399,o),
(36,318,o),
(36,227,cs),
(36,126,o),
(75,53,o),
(144,16,cs),
(178,-3,o),
(218,-12,o),
(265,-12,cs)
);
},
{
closed = 1;
nodes = (
(234,101,o),
(204,116,o),
(188,144,cs),
(180,158,o),
(176,175,o),
(176,194,cs),
(176,202,o),
(178,213,o),
(179,225,c),
(198,319,ls),
(214,399,o),
(262,445,o),
(333,445,cs),
(376,445,o),
(406,430,o),
(422,403,cs),
(430,389,o),
(434,372,o),
(434,352,cs),
(434,344,o),
(434,333,o),
(431,321,c),
(412,227,ls),
(396,147,o),
(348,101,o),
(277,101,cs)
);
},
{
closed = 1;
nodes = (
(334,213,o),
(356,233,o),
(361,262,c),
(364,273,o),
(366,286,o),
(366,294,cs),
(366,313,o),
(354,333,o),
(315,333,cs),
(278,333,o),
(256,313,o),
(249,284,c),
(248,275,o),
(244,260,o),
(244,252,cs),
(244,233,o),
(258,213,o),
(295,213,cs)
);
}
);
width = 612;
},
{
layerId = "B488FFC1-C82B-453A-B801-8B96DD071204";
shapes = (
{
closed = 1;
nodes = (
(322,-12,o),
(392,25,o),
(444,86,cs),
(496,147,o),
(526,230,o),
(526,322,cs),
(526,418,o),
(494,486,o),
(437,522,c),
(408,539,o),
(374,548,o),
(333,548,cs),
(252,548,o),
(180,511,o),
(128,450,cs),
(76,389,o),
(46,306,o),
(46,214,cs),
(46,119,o),
(78,50,o),
(135,15,cs),
(164,-3,o),
(198,-12,o),
(239,-12,cs)
);
},
{
closed = 1;
nodes = (
(198,57,o),
(158,78,o),
(138,117,c),
(127,136,o),
(122,159,o),
(122,186,cs),
(122,205,o),
(126,222,o),
(127,231,c),
(142,306,ls),
(163,411,o),
(229,479,o),
(322,479,cs),
(375,479,o),
(414,458,o),
(435,420,cs),
(445,401,o),
(450,378,o),
(450,351,cs),
(450,332,o),
(448,316,o),
(445,305,c),
(430,230,ls),
(409,125,o),
(345,57,o),
(250,57,cs)
);
},
{
closed = 1;
nodes = (
(316,217,o),
(327,239,o),
(332,262,c),
(335,270,o),
(336,281,o),
(336,288,cs),
(336,308,o),
(320,319,o),
(293,319,cs),
(256,319,o),
(245,297,o),
(240,274,c),
(239,266,o),
(236,255,o),
(236,248,cs),
(236,228,o),
(252,217,o),
(279,217,cs)
);
}
);
width = 580;
},
{
layerId = "76CB80E2-1BCF-4FA8-BCDD-2F5266FDBF6B";
shapes = (
{
closed = 1;
nodes = (
(330,-12,o),
(399,28,o),
(445,96,cs),
(491,163,o),
(514,251,o),
(514,347,cs),
(514,418,o),
(485,479,o),
(430,513,cs),
(402,530,o),
(368,538,o),
(327,538,cs),
(236,538,o),
(168,498,o),
(122,431,cs),
(76,363,o),
(52,275,o),
(52,179,cs),
(52,108,o),
(81,48,o),
(137,14,cs),
(165,-4,o),
(199,-12,o),
(239,-12,cs)
);
},
{
closed = 1;
nodes = (
(164,7,o),
(114,41,o),
(91,94,cs),
(79,120,o),
(73,148,o),
(73,179,cs),
(73,206,o),
(74,230,o),
(78,251,cs),
(86,291,ls),
(114,434,o),
(200,519,o),
(325,519,cs),
(404,519,o),
(452,485,o),
(476,433,c),
(487,407,o),
(493,378,o),
(493,347,cs),
(493,322,o),
(492,298,o),
(488,275,cs),
(480,235,ls),
(452,94,o),
(366,7,o),
(241,7,cs)
);
},
{
closed = 1;
nodes = (
(295,239,o),
(305,248,o),
(306,259,cs),
(307,264,o),
(308,271,o),
(308,272,cs),
(308,280,o),
(303,287,o),
(288,287,cs),
(271,287,o),
(263,278,o),
(260,267,cs),
(259,262,o),
(258,257,o),
(258,254,cs),
(258,246,o),
(263,239,o),
(278,239,cs)
);
}
);
width = 578;
}
);
},
{
glyphname = zero.alt02.osf;
layers = (
{
layerId = "2ED2F014-92B4-41A8-8CFE-CD21E2CD1218";
shapes = (
{
closed = 1;
nodes = (
(380,-12,o),
(460,25,o),
(519,86,cs),
(576,145,o),
(606,227,o),
(606,317,cs),
(606,425,o),
(562,498,o),
(487,535,c),
(448,556,o),
(404,565,o),
(353,565,cs),
(252,565,o),
(173,528,o),
(116,467,cs),
(59,406,o),
(29,326,o),
(29,236,cs),
(29,131,o),
(73,55,o),
(150,17,c),
(187,-3,o),
(231,-12,o),
(282,-12,cs)
);
},
{
closed = 1;
nodes = (
(267,122,o),
(248,125,o),
(232,131,c),
(333,216,l),
(433,300,l),
(434,300,l),
(431,295,o),
(430,290,o),
(428,287,c),
(426,291,o),
(428,299,o),
(428,298,c),
(413,225,ls),
(399,157,o),
(355,122,o),
(293,122,cs)
);
},
{
closed = 1;
nodes = (
(367,431,o),
(385,428,o),
(403,421,c),
(301,335,l),
(200,251,l),
(199,251,l),
(202,255,o),
(203,261,o),
(205,264,c),
(207,260,o),
(204,250,o),
(205,253,cs),
(222,328,l),
(239,396,o),
(279,431,o),
(342,431,cs)
);
}
);
width = 634;
},
{
layerId = "BE19BB09-F61D-48A8-8F95-1DC5A5769CFD";
shapes = (
{
closed = 1;
nodes = (
(357,-12,o),
(433,25,o),
(489,86,cs),
(544,146,o),
(574,228,o),
(574,319,cs),
(574,422,o),
(535,493,o),
(467,530,cs),
(432,549,o),
(392,558,o),
(345,558,cs),
(252,558,o),
(176,521,o),
(121,460,cs),
(66,399,o),
(36,318,o),
(36,227,cs),
(36,126,o),
(75,53,o),
(144,16,cs),
(178,-3,o),
(218,-12,o),
(265,-12,cs)
);
},
{
closed = 1;
nodes = (
(241,96,o),
(215,105,o),
(196,122,c),
(318,225,l),
(439,328,l),
(440,328,l),
(439,323,o),
(438,317,o),
(437,312,cs),
(436,307,o),
(436,306,o),
(435,301,cs),
(420,227,ls),
(403,144,o),
(351,96,o),
(276,96,cs)
);
},
{
closed = 1;
nodes = (
(369,450,o),
(395,441,o),
(414,424,c),
(291,320,l),
(170,217,l),
(169,217,l),
(170,222,o),
(171,228,o),
(172,233,cs),
(173,238,o),
(173,239,o),
(174,244,cs),
(190,319,ls),
(209,402,o),
(259,450,o),
(334,450,cs)
);
}
);
width = 612;
},
{
layerId = "B488FFC1-C82B-453A-B801-8B96DD071204";
shapes = (
{
closed = 1;
nodes = (
(322,-12,o),
(392,25,o),
(444,86,cs),
(496,147,o),
(526,230,o),
(526,322,cs),
(526,418,o),
(494,486,o),
(437,522,c),
(408,539,o),
(374,548,o),
(333,548,cs),
(252,548,o),
(180,511,o),
(128,450,cs),
(76,389,o),
(46,306,o),
(46,214,cs),
(46,119,o),
(78,50,o),
(135,15,cs),
(164,-3,o),
(198,-12,o),
(239,-12,cs)
);
},
{
closed = 1;
nodes = (
(201,57,o),
(165,75,o),
(142,108,c),
(295,239,l),
(448,370,l),
(449,370,l),
(450,365,o),
(450,357,o),
(450,350,cs),
(450,331,o),
(448,316,o),
(445,305,c),
(430,230,ls),
(409,125,o),
(345,57,o),
(250,57,cs)
);
},
{
closed = 1;
nodes = (
(371,479,o),
(409,461,o),
(430,428,c),
(276,297,l),
(124,166,l),
(123,166,l),
(122,173,o),
(122,179,o),
(122,186,cs),
(122,205,o),
(126,222,o),
(127,231,c),
(142,306,ls),
(163,411,o),
(229,479,o),
(322,479,cs)
);
}
);
width = 580;
},
{
layerId = "76CB80E2-1BCF-4FA8-BCDD-2F5266FDBF6B";
shapes = (
{
closed = 1;
nodes = (
(330,-12,o),
(399,28,o),
(445,96,cs),
(491,163,o),
(514,251,o),
(514,347,cs),
(514,418,o),
(485,479,o),
(430,513,cs),
(402,530,o),
(368,538,o),
(327,538,cs),
(236,538,o),
(168,498,o),
(122,431,cs),
(76,363,o),
(52,275,o),
(52,179,cs),
(52,108,o),
(81,48,o),
(137,14,cs),
(165,-4,o),
(199,-12,o),
(239,-12,cs)
);
},
{
closed = 1;
nodes = (
(169,7,o),
(123,38,o),
(96,83,c),
(287,254,l),
(478,425,l),
(479,425,l),
(488,402,o),
(493,375,o),
(493,347,cs),
(493,322,o),
(492,298,o),
(488,275,cs),
(480,235,ls),
(452,94,o),
(366,7,o),
(241,7,cs)
);
},
{
closed = 1;
nodes = (
(397,519,o),
(445,490,o),
(470,443,c),
(278,272,l),
(88,101,l),
(87,101,l),
(78,124,o),
(73,151,o),
(73,179,cs),
(73,206,o),
(74,230,o),
(78,251,cs),
(86,291,ls),
(114,434,o),
(200,519,o),
(325,519,cs)
);
}
);
width = 578;
}
);
},
{
glyphname = one.osf;
layers = (
{
layerId = "2ED2F014-92B4-41A8-8CFE-CD21E2CD1218";
shapes = (
{
closed = 1;
nodes = (
(434,0,l),
(464,149,l),
(342,149,l),
(421,546,l),
(227,546,l),
(107,486,l),
(72,304,l),
(204,372,l),
(160,149,l),
(25,149,l),
(-5,0,l)
);
}
);
width = 565;
},
{
layerId = "BE19BB09-F61D-48A8-8F95-1DC5A5769CFD";
shapes = (
{
closed = 1;
nodes = (
(439,0,l),
(463,118,l),
(318,118,l),
(403,546,l),
(250,546,l),
(104,469,l),
(76,325,l),
(234,408,l),
(176,118,l),
(21,118,l),
(-3,0,l)
);
}
);
width = 558;
},
{
layerId = "B488FFC1-C82B-453A-B801-8B96DD071204";
shapes = (
{
closed = 1;
nodes = (
(445,0,l),
(460,72,l),
(280,72,l),
(375,546,l),
(283,546,l),
(98,444,l),
(81,357,l),
(278,463,l),
(199,72,l),
(14,72,l),
(-1,0,l)
);
}
);
width = 548;
},
{
layerId = "76CB80E2-1BCF-4FA8-BCDD-2F5266FDBF6B";
shapes = (
{
closed = 1;
nodes = (
(440,0,l),
(444,20,l),
(233,20,l),
(336,536,l),
(312,536,l),
(85,419,l),
(80,394,l),
(309,512,l),
(211,20,l),
(-8,20,l),
(-12,0,l)
);
}
);
width = 527;
}
);
},
{
glyphname = two.osf;
layers = (
{
layerId = "2ED2F014-92B4-41A8-8CFE-CD21E2CD1218";
shapes = (
{
closed = 1;
nodes = (
(35,0,l),
(539,0,l),
(566,137,l),
(286,137,l),
(381,181,ls),
(423,201,o),
(470,221,o),
(506,251,cs),
(542,282,o),
(567,326,o),
(567,392,cs),
(567,440,o),
(545,481,o),
(503,514,cs),
(461,548,o),
(403,565,o),
(331,565,cs),
(249,565,o),
(179,538,o),
(129,488,cs),
(104,462,o),
(85,430,o),
(72,395,c),
(198,315,l),
(218,372,o),
(268,419,o),
(318,419,cs),
(359,419,o),
(384,399,o),
(384,368,cs),
(384,364,o),
(385,363,o),
(382,351,c),
(379,327,o),
(366,314,o),
(349,304,cs),
(333,295,o),
(315,287,o),
(293,276,c),
(66,153,l)
);
}
);
width = 633;
},
{
layerId = "BE19BB09-F61D-48A8-8F95-1DC5A5769CFD";
shapes = (
{
closed = 1;
nodes = (
(26,0,l),
(500,0,l),
(522,111,l),
(223,111,l),
(328,164,ls),
(367,184,o),
(417,208,o),
(459,244,cs),
(501,280,o),
(531,329,o),
(531,397,cs),
(531,444,o),
(512,483,o),
(475,513,cs),
(438,543,o),
(388,558,o),
(326,558,cs),
(251,558,o),
(187,535,o),
(139,489,cs),
(115,466,o),
(95,437,o),
(79,404,c),
(177,341,l),
(205,402,o),
(256,443,o),
(311,443,cs),
(358,443,o),
(387,418,o),
(387,381,cs),
(387,374,o),
(387,366,o),
(384,354,c),
(379,325,o),
(360,303,o),
(336,286,cs),
(312,269,o),
(286,255,o),
(262,242,cs),
(51,124,l)
);
}
);
width = 613;
},
{
layerId = "B488FFC1-C82B-453A-B801-8B96DD071204";
shapes = (
{
closed = 1;
nodes = (
(15,0,l),
(443,0,l),
(458,72,l),
(130,72,l),
(250,139,ls),
(285,158,o),
(339,189,o),
(390,233,cs),
(441,277,o),
(479,334,o),
(479,405,cs),
(479,450,o),
(464,486,o),
(435,511,cs),
(406,536,o),
(368,548,o),
(321,548,cs),
(256,548,o),
(201,530,o),
(156,491,cs),
(133,472,o),
(112,447,o),
(92,417,c),
(147,380,l),
(188,447,o),
(240,479,o),
(303,479,cs),
(359,479,o),
(394,447,o),
(394,400,cs),
(394,389,o),
(392,370,o),
(389,359,cs),
(381,322,o),
(353,287,o),
(318,259,cs),
(283,230,o),
(245,207,o),
(218,191,cs),
(31,80,l)
);
}
);
width = 582;
},
{
layerId = "76CB80E2-1BCF-4FA8-BCDD-2F5266FDBF6B";
shapes = (
{
closed = 1;
nodes = (
(3,0,l),
(437,0,l),
(441,20,l),
(38,20,l),
(277,163,ls),
(349,207,o),
(396,245,o),
(423,283,cs),
(450,321,o),
(460,361,o),
(460,409,cs),
(460,445,o),
(447,476,o),
(422,501,cs),
(397,526,o),
(357,538,o),
(304,538,cs),
(239,538,o),
(180,519,o),
(137,477,cs),
(115,456,o),
(97,428,o),
(84,395,c),
(103,389,l),
(140,480,o),
(212,518,o),
(301,518,cs),
(396,518,o),
(439,469,o),
(439,409,cs),
(439,400,o),
(438,383,o),
(431,348,cs),
(426,319,o),
(407,290,o),
(379,262,cs),
(351,234,o),
(312,206,o),
(261,175,cs),
(7,20,l)
);
}
);
width = 538;
}
);
},
{
glyphname = three.osf;
layers = (
{
layerId = "2ED2F014-92B4-41A8-8CFE-CD21E2CD1218";
shapes = (
{
closed = 1;
nodes = (
(206,294,l),
(176,143,l),
(246,143,ls),
(291,143,o),
(317,123,o),
(317,80,cs),
(317,73,o),
(320,71,o),
(317,62,c),
(315,48,o),
(305,34,o),
(289,20,cs),
(273,7,o),
(251,0,o),
(226,0,cs),
(152,0,o),
(121,44,o),
(108,86,c),
(-17,-4,l),
(2,-49,o),
(29,-95,o),
(90,-123,cs),
(120,-137,o),
(162,-144,o),
(215,-144,cs),
(342,-144,o),
(430,-103,o),
(472,-35,cs),
(494,-1,o),
(504,39,o),
(504,83,cs),
(504,158,o),
(461,210,o),
(393,223,c),
(394,228,l),
(444,239,o),
(485,260,o),
(516,289,cs),
(545,317,o),
(560,354,o),
(560,401,cs),
(560,451,o),
(539,490,o),
(500,521,c),
(458,550,o),
(403,565,o),
(333,565,cs),
(244,565,o),
(184,543,o),
(139,509,cs),
(116,492,o),
(94,474,o),
(71,454,c),
(163,341,l),
(209,397,o),
(252,419,o),
(300,419,cs),
(341,419,o),
(369,394,o),
(369,360,cs),
(369,352,o),
(367,342,o),
(364,331,cs),
(362,323,o),
(332,294,o),
(266,294,cs)
);
}
);
width = 649;
},
{
layerId = "BE19BB09-F61D-48A8-8F95-1DC5A5769CFD";
shapes = (
{
closed = 1;
nodes = (
(190,271,l),
(167,154,l),
(234,154,ls),
(293,154,o),
(327,126,o),
(327,75,cs),
(327,66,o),
(328,60,o),
(325,49,c),
(320,21,o),
(307,-1,o),
(287,-18,cs),
(267,-34,o),
(240,-42,o),
(207,-42,cs),
(134,-42,o),
(98,-5,o),
(78,48,c),
(-22,-23,l),
(-2,-70,o),
(31,-113,o),
(90,-138,cs),
(119,-150,o),
(156,-156,o),
(200,-156,cs),
(316,-156,o),
(398,-114,o),
(440,-46,cs),
(461,-12,o),
(471,27,o),
(471,70,cs),
(471,149,o),
(429,201,o),
(358,214,c),
(359,219,l),
(408,230,o),
(448,251,o),
(478,282,cs),
(507,312,o),
(522,350,o),
(522,396,cs),
(522,445,o),
(503,484,o),
(466,514,c),
(428,543,o),
(377,558,o),
(313,558,cs),
(237,558,o),
(181,538,o),
(137,505,cs),
(114,488,o),
(93,469,o),
(72,447,c),
(148,361,l),
(192,420,o),
(237,443,o),
(290,443,cs),
(342,443,o),
(373,415,o),
(373,370,cs),
(373,362,o),
(372,353,o),
(369,342,c),
(361,302,o),
(322,271,o),
(251,271,cs)
);
}
);
width = 623;
},
{
layerId = "B488FFC1-C82B-453A-B801-8B96DD071204";
shapes = (
{
closed = 1;
nodes = (
(172,237,l),
(159,170,l),
(222,170,ls),
(301,170,o),
(348,131,o),
(348,68,cs),
(348,55,o),
(346,44,o),
(343,29,cs),
(333,-20,o),
(315,-54,o),
(290,-75,c),
(264,-95,o),
(229,-105,o),
(184,-105,cs),
(113,-105,o),
(69,-78,o),
(38,-9,c),
(-24,-51,l),
(-3,-102,o),
(40,-140,o),
(96,-160,cs),
(123,-169,o),
(152,-174,o),
(183,-174,cs),
(282,-174,o),
(356,-131,o),
(397,-63,cs),
(417,-29,o),
(427,9,o),
(427,51,cs),
(427,135,o),
(386,188,o),
(311,201,c),
(312,206,l),
(359,216,o),
(398,238,o),
(427,272,cs),
(456,305,o),
(470,344,o),
(470,389,cs),
(470,436,o),
(454,475,o),
(421,504,cs),
(388,533,o),
(343,548,o),
(288,548,cs),
(232,548,o),
(182,531,o),
(139,499,cs),
(117,482,o),
(97,462,o),
(79,437,c),
(131,391,l),
(172,454,o),
(220,479,o),
(281,479,cs),
(349,479,o),
(385,446,o),
(385,385,cs),
(385,377,o),
(385,370,o),
(382,359,c),
(365,270,o),
(313,237,o),
(234,237,cs)
);
}
);
width = 584;
},
{
layerId = "76CB80E2-1BCF-4FA8-BCDD-2F5266FDBF6B";
shapes = (
{
closed = 1;
nodes = (
(137,208,l),
(133,188,l),
(222,188,ls),
(325,188,o),
(375,133,o),
(375,50,cs),
(375,41,o),
(374,29,o),
(367,-6,cs),
(358,-51,o),
(336,-87,o),
(300,-115,c),
(263,-142,o),
(219,-156,o),
(166,-156,cs),
(75,-156,o),
(15,-128,o),
(-16,-59,c),
(-33,-69,l),
(-12,-118,o),
(28,-149,o),
(80,-165,c),
(106,-172,o),
(134,-176,o),
(165,-176,cs),
(258,-176,o),
(329,-138,o),
(368,-70,cs),
(387,-36,o),
(397,4,o),
(397,50,cs),
(397,130,o),
(346,186,o),
(277,195,c),
(278,198,l),
(331,206,o),
(372,227,o),
(403,261,cs),
(434,294,o),
(449,337,o),
(449,390,cs),
(449,437,o),
(433,474,o),
(402,500,c),
(370,525,o),
(330,538,o),
(282,538,cs),
(215,538,o),
(164,519,o),
(128,487,cs),
(109,470,o),
(93,450,o),
(80,427,c),
(98,418,l),
(138,486,o),
(190,518,o),
(279,518,cs),
(371,518,o),
(427,469,o),
(427,388,cs),
(427,377,o),
(427,369,o),
(420,342,c),
(401,257,o),
(332,208,o),
(225,208,cs)
);
}
);
width = 544;
}
);
},
{
glyphname = four.osf;
layers = (
{
layerId = "2ED2F014-92B4-41A8-8CFE-CD21E2CD1218";
shapes = (
{
closed = 1;
nodes = (
(423,-132,l),
(450,0,l),
(524,0,l),
(553,136,l),
(476,136,l),
(561,553,l),
(356,553,l),
(-1,151,l),
(-31,0,l),
(281,0,l),
(254,-132,l)
);
},
{
closed = 1;
nodes = (
(308,136,l),
(154,136,l),
(335,341,l),
(351,341,l)
);
}
);
width = 614;
},
{
layerId = "BE19BB09-F61D-48A8-8F95-1DC5A5769CFD";
shapes = (
{
closed = 1;
nodes = (
(395,-144,l),
(424,0,l),
(507,0,l),
(529,108,l),
(445,108,l),
(534,546,l),
(368,546,l),
(0,120,l),
(-24,0,l),
(293,0,l),
(264,-144,l)
);
},
{
closed = 1;
nodes = (
(314,108,l),
(122,108,l),
(360,386,l),
(371,386,l)
);
}
);
width = 615;
},
{
layerId = "B488FFC1-C82B-453A-B801-8B96DD071204";
shapes = (
{
closed = 1;
nodes = (
(352,-162,l),
(384,0,l),
(480,0,l),
(492,66,l),
(397,66,l),
(492,536,l),
(385,536,l),
(0,74,l),
(-15,0,l),
(310,0,l),
(277,-162,l)
);
},
{
closed = 1;
nodes = (
(322,66,l),
(73,66,l),
(396,453,l),
(400,453,l)
);
}
);
width = 617;
},
{
layerId = "76CB80E2-1BCF-4FA8-BCDD-2F5266FDBF6B";
shapes = (
{
closed = 1;
nodes = (
(329,-164,l),
(362,0,l),
(479,0,l),
(483,19,l),
(366,19,l),
(467,526,l),
(437,526,l),
(-12,20,l),
(-16,0,l),
(341,0,l),
(308,-164,l)
);
},
{
closed = 1;
nodes = (
(345,19,l),
(11,19,l),
(437,498,l),
(440,498,l)
);
}
);
width = 597;
}
);
},
{
glyphname = five.osf;
layers = (
{
layerId = "2ED2F014-92B4-41A8-8CFE-CD21E2CD1218";
shapes = (
{
closed = 1;
nodes = (
(582,553,l),
(142,553,l),
(36,162,l),
(181,142,l),
(186,147,o),
(196,157,o),
(210,168,cs),
(224,179,o),
(244,185,o),
(270,185,cs),
(316,185,o),
(346,159,o),
(346,116,cs),
(346,99,o),
(344,90,o),
(341,80,c),
(333,42,o),
(300,5,o),
(245,5,cs),
(213,5,o),
(189,14,o),
(171,32,c),
(153,52,o),
(143,71,o),
(140,91,c),
(-11,-1,l),
(9,-45,o),
(35,-93,o),
(99,-122,cs),
(131,-137,o),
(177,-144,o),
(236,-144,cs),
(339,-144,o),
(417,-108,o),
(467,-54,cs),
(518,1,o),
(544,71,o),
(544,135,cs),
(544,261,o),
(470,330,o),
(367,330,cs),
(320,330,o),
(286,319,o),
(263,296,cs),
(240,273,o),
(218,242,o),
(199,204,c),
(188,204,l),
(239,391,l),
(550,391,l)
);
}
);
width = 648;
},
{
layerId = "BE19BB09-F61D-48A8-8F95-1DC5A5769CFD";
shapes = (
{
closed = 1;
nodes = (
(552,546,l),
(148,546,l),
(46,155,l),
(159,139,l),
(171,152,o),
(186,165,o),
(203,176,cs),
(220,187,o),
(242,193,o),
(268,193,cs),
(324,193,o),
(358,162,o),
(358,107,cs),
(358,92,o),
(356,81,o),
(353,66,cs),
(341,6,o),
(300,-39,o),
(229,-39,cs),
(196,-39,o),
(170,-31,o),
(150,-14,cs),
(130,4,o),
(116,25,o),
(108,51,c),
(-7,-21,l),
(13,-68,o),
(46,-112,o),
(107,-137,cs),
(137,-150,o),
(176,-156,o),
(223,-156,cs),
(315,-156,o),
(387,-123,o),
(435,-72,cs),
(483,-20,o),
(509,48,o),
(509,116,cs),
(509,239,o),
(440,307,o),
(337,307,cs),
(296,307,o),
(264,298,o),
(241,279,cs),
(218,260,o),
(196,233,o),
(177,198,c),
(168,198,l),
(226,422,l),
(527,422,l)
);
}
);
width = 618;
},
{
layerId = "B488FFC1-C82B-453A-B801-8B96DD071204";
shapes = (
{
closed = 1;
nodes = (
(508,536,l),
(159,536,l),
(63,145,l),
(127,134,l),
(150,159,o),
(172,177,o),
(194,188,cs),
(216,199,o),
(240,205,o),
(267,205,cs),
(338,205,o),
(378,166,o),
(378,93,cs),
(378,81,o),
(376,68,o),
(372,45,cs),
(355,-48,o),
(301,-105,o),
(206,-105,cs),
(172,-105,o),
(143,-98,o),
(120,-83,cs),
(97,-68,o),
(77,-44,o),
(62,-9,c),
(0,-51,l),
(21,-102,o),
(64,-140,o),
(120,-160,cs),
(147,-169,o),
(176,-174,o),
(205,-174,cs),
(280,-174,o),
(343,-146,o),
(388,-99,cs),
(432,-51,o),
(458,14,o),
(458,87,cs),
(458,206,o),
(396,272,o),
(293,272,cs),
(261,272,o),
(233,266,o),
(210,254,cs),
(186,241,o),
(165,220,o),
(146,189,c),
(139,189,l),
(208,468,l),
(494,468,l)
);
}
);
width = 573;
},
{
layerId = "76CB80E2-1BCF-4FA8-BCDD-2F5266FDBF6B";
shapes = (
{
closed = 1;
nodes = (
(498,526,l),
(162,526,l),
(63,158,l),
(87,155,l),
(112,178,o),
(136,196,o),
(160,208,cs),
(184,219,o),
(215,225,o),
(254,225,cs),
(357,225,o),
(405,170,o),
(405,79,cs),
(405,67,o),
(404,52,o),
(396,12,cs),
(376,-88,o),
(305,-156,o),
(186,-156,cs),
(149,-156,o),
(115,-149,o),
(82,-135,cs),
(49,-120,o),
(24,-95,o),
(9,-59,c),
(-8,-69,l),
(13,-118,o),
(54,-149,o),
(106,-165,cs),
(131,-172,o),
(158,-176,o),
(187,-176,cs),
(260,-176,o),
(321,-152,o),
(363,-109,cs),
(405,-65,o),
(427,-1,o),
(427,79,cs),
(427,183,o),
(370,245,o),
(255,245,cs),
(220,245,o),
(190,240,o),
(164,229,cs),
(138,218,o),
(114,200,o),
(91,175,c),
(88,176,l),
(177,506,l),
(495,506,l)
);
}
);
width = 529;
}
);
},
{
glyphname = seven.osf;
layers = (
{
layerId = "2ED2F014-92B4-41A8-8CFE-CD21E2CD1218";
shapes = (
{
closed = 1;
nodes = (
(250,-132,l),
(553,402,l),
(582,553,l),
(76,553,l),
(47,407,l),
(376,407,l),
(54,-132,l)
);
}
);
width = 571;
},
{
layerId = "BE19BB09-F61D-48A8-8F95-1DC5A5769CFD";
shapes = (
{
closed = 1;
nodes = (
(199,-144,l),
(530,424,l),
(554,546,l),
(78,546,l),
(55,431,l),
(393,431,l),
(48,-144,l)
);
}
);
width = 555;
},
{
layerId = "B488FFC1-C82B-453A-B801-8B96DD071204";
shapes = (
{
closed = 1;
nodes = (
(123,-162,l),
(496,457,l),
(512,536,l),
(81,536,l),
(67,467,l),
(418,467,l),
(39,-162,l)
);
}
);
width = 531;
},
{
layerId = "76CB80E2-1BCF-4FA8-BCDD-2F5266FDBF6B";
shapes = (
{
closed = 1;
nodes = (
(69,-164,l),
(492,506,l),
(496,526,l),
(81,526,l),
(77,506,l),
(467,506,l),
(44,-164,l)
);
}
);
width = 509;
}
);
},
